<svg width="49" height="46" viewBox="0 0 49 46" fill="none" xmlns="http://www.w3.org/2000/svg">
<rect width="49" height="46" rx="12" fill="#EBE6EA"/>
<path d="M9.96647 17.7142C9.97717 16.1748 10.039 15.2943 10.3963 14.593C10.7764 13.8471 11.3828 13.2406 12.1288 12.8605C12.9768 12.4285 14.0869 12.4285 16.3071 12.4285H32.6928C34.913 12.4285 36.0231 12.4285 36.8711 12.8605C37.6171 13.2406 38.2235 13.8471 38.6036 14.593C38.9609 15.2943 39.0227 16.1748 39.0334 17.7142H9.96647Z" fill="#582C4F"/>
<path fill-rule="evenodd" clip-rule="evenodd" d="M9.96423 20.357V27.2285C9.96423 29.4487 9.96423 30.5588 10.3963 31.4068C10.7764 32.1527 11.3828 32.7592 12.1288 33.1392C12.9768 33.5713 14.0869 33.5713 16.3071 33.5713H32.6928C34.913 33.5713 36.0231 33.5713 36.8711 33.1392C37.6171 32.7592 38.2235 32.1527 38.6036 31.4068C39.0357 30.5588 39.0357 29.4487 39.0357 27.2285V20.357H9.96423ZM13.9285 27.6249C13.9285 27.0092 13.9285 26.7013 14.0291 26.4585C14.1632 26.1347 14.4205 25.8775 14.7443 25.7433C14.9871 25.6428 15.295 25.6428 15.9107 25.6428H17.2321C17.8478 25.6428 18.1557 25.6428 18.3985 25.7433C18.7223 25.8775 18.9795 26.1347 19.1136 26.4585C19.2142 26.7013 19.2142 27.0092 19.2142 27.6249C19.2142 28.2406 19.2142 28.5485 19.1136 28.7913C18.9795 29.1151 18.7223 29.3723 18.3985 29.5065C18.1557 29.607 17.8478 29.607 17.2321 29.607H15.9107C15.295 29.607 14.9871 29.607 14.7443 29.5065C14.4205 29.3723 14.1632 29.1151 14.0291 28.7913C13.9285 28.5485 13.9285 28.2406 13.9285 27.6249Z" fill="#582C4F"/>
</svg>
