<svg width="49" height="46" viewBox="0 0 49 46" fill="none" xmlns="http://www.w3.org/2000/svg">
<rect width="49" height="46" rx="12" fill="#EBE6EA"/>
<path d="M38.566 26.5077C36.6291 34.2756 28.7607 39.003 20.991 37.0659C13.2245 35.1292 8.49658 27.2613 10.4343 19.4939C12.3703 11.7251 20.2388 6.99727 28.0061 8.93391C35.7753 10.8705 40.5028 18.7394 38.566 26.5077Z" fill="#582C4F"/>
<path d="M30.8937 20.9343C31.1824 19.0049 29.7132 17.9677 27.7043 17.2758L28.3559 14.6622L26.7648 14.2657L26.1304 16.8104C25.7121 16.7062 25.2825 16.6079 24.8556 16.5105L25.4946 13.949L23.9044 13.5525L23.2523 16.1652C22.9061 16.0863 22.5662 16.0084 22.2363 15.9264L22.2381 15.9182L20.0438 15.3704L19.6206 17.0696C19.6206 17.0696 20.8011 17.3401 20.7762 17.3569C21.4206 17.5177 21.537 17.9441 21.5176 18.2822L20.7753 21.2596C20.8197 21.2709 20.8772 21.2873 20.9407 21.3126C20.8877 21.2995 20.831 21.285 20.7725 21.2709L19.732 25.4419C19.6532 25.6377 19.4534 25.9313 19.0029 25.8198C19.0188 25.8429 17.8464 25.5312 17.8464 25.5312L17.0565 27.3523L19.1271 27.8684C19.5123 27.9649 19.8898 28.0659 20.2614 28.1611L19.6029 30.8046L21.1922 31.2011L21.8443 28.5857C22.2784 28.7035 22.6999 28.8122 23.1123 28.9146L22.4624 31.5178L24.0535 31.9143L24.712 29.2758C27.4251 29.7892 29.4653 29.5821 30.3241 27.1284C31.0161 25.1528 30.2896 24.0132 28.8621 23.2701C29.9017 23.0304 30.6848 22.3467 30.8937 20.9343ZM27.2583 26.0314C26.7667 28.007 23.4399 26.939 22.3614 26.6712L23.2351 23.1691C24.3136 23.4382 27.7722 23.9711 27.2583 26.0314ZM27.7505 20.9057C27.3019 22.7028 24.533 21.7898 23.6348 21.5659L24.4269 18.3896C25.3251 18.6134 28.2177 19.0312 27.7505 20.9057Z" fill="white"/>
</svg>
