<svg width="49" height="46" viewBox="0 0 49 46" fill="none" xmlns="http://www.w3.org/2000/svg">
<rect width="49" height="46" rx="12" fill="#EBE6EA"/>
<path d="M11.5 19.4C11.5 17.1598 11.5 16.0397 11.936 15.184C12.3195 14.4314 12.9314 13.8195 13.684 13.436C14.5397 13 15.6598 13 17.9 13H32.1C34.3402 13 35.4603 13 36.316 13.436C37.0686 13.8195 37.6805 14.4314 38.064 15.184C38.3979 15.8394 38.4761 16.6499 38.4944 18H31.5C29.6362 18 28.7044 18 27.9693 18.3045C26.9892 18.7105 26.2105 19.4892 25.8045 20.4693C25.5 21.2044 25.5 22.1362 25.5 24C25.5 25.8638 25.5 26.7956 25.8045 27.5307C26.2105 28.5108 26.9892 29.2895 27.9693 29.6955C28.7044 30 29.6362 30 31.5 30H38.4944C38.4761 31.3501 38.3979 32.1606 38.064 32.816C37.6805 33.5686 37.0686 34.1805 36.316 34.564C35.4603 35 34.3402 35 32.1 35H17.9C15.6598 35 14.5397 35 13.684 34.564C12.9314 34.1805 12.3195 33.5686 11.936 32.816C11.5 31.9603 11.5 30.8402 11.5 28.6V19.4Z" fill="#582C4F"/>
<path fill-rule="evenodd" clip-rule="evenodd" d="M27.25 23.75C27.25 22.3499 27.25 21.6498 27.5225 21.115C27.7622 20.6446 28.1446 20.2622 28.615 20.0225C29.1498 19.75 29.8499 19.75 31.25 19.75H35.75C37.1501 19.75 37.8502 19.75 38.385 20.0225C38.8554 20.2622 39.2378 20.6446 39.4775 21.115C39.75 21.6498 39.75 22.3499 39.75 23.75V24.25C39.75 25.6501 39.75 26.3502 39.4775 26.885C39.2378 27.3554 38.8554 27.7378 38.385 27.9775C37.8502 28.25 37.1501 28.25 35.75 28.25H31.25C29.8499 28.25 29.1498 28.25 28.615 27.9775C28.1446 27.7378 27.7622 27.3554 27.5225 26.885C27.25 26.3502 27.25 25.6501 27.25 24.25V23.75ZM33.5 24C33.5 25.1046 32.6046 26 31.5 26C30.3954 26 29.5 25.1046 29.5 24C29.5 22.8954 30.3954 22 31.5 22C32.6046 22 33.5 22.8954 33.5 24Z" fill="#582C4F"/>
</svg>
