<svg width="49" height="46" viewBox="0 0 49 46" fill="none" xmlns="http://www.w3.org/2000/svg">
<rect width="49" height="46" rx="12" fill="#EBE6EA"/>
<path fill-rule="evenodd" clip-rule="evenodd" d="M23.8032 31.755L17.762 35.3371C17.1339 35.7095 16.3126 35.5185 15.9278 34.9106C15.7399 34.6136 15.6839 34.2557 15.7724 33.9182L16.7076 30.3555C17.0452 29.0694 17.9545 27.9944 19.1903 27.42L25.781 24.3573C26.0883 24.2145 26.2178 23.8577 26.0703 23.5603C25.9508 23.3194 25.6806 23.1846 25.4086 23.2302L18.0724 24.4595C16.5811 24.7094 15.0518 24.3108 13.8918 23.3699L11.5742 21.4901C11.0096 21.0321 10.9354 20.2178 11.4086 19.6713C11.6387 19.4055 11.9697 19.2405 12.3269 19.2134L19.4078 18.6771C19.908 18.6392 20.344 18.3328 20.536 17.8841L23.2677 11.5016C23.5497 10.8429 24.3299 10.5301 25.0105 10.803C25.3373 10.934 25.5969 11.1853 25.7323 11.5016L28.464 17.8841C28.656 18.3328 29.092 18.6392 29.5923 18.6771L36.7122 19.2164C37.4466 19.272 37.9952 19.8934 37.9378 20.6042C37.9102 20.9462 37.743 21.2635 37.4734 21.486L32.0435 25.9666C31.661 26.282 31.4944 26.7785 31.6119 27.2512L33.2812 33.9634C33.4536 34.6567 33.0128 35.3539 32.2967 35.5208C31.9524 35.601 31.5895 35.5454 31.2877 35.3664L25.1968 31.755C24.7692 31.5015 24.2308 31.5015 23.8032 31.755Z" fill="#582C4F"/>
</svg>
