<svg xmlns="http://www.w3.org/2000/svg" xmlns:xlink="http://www.w3.org/1999/xlink" width="576" zoomAndPan="magnify" viewBox="0 0 432 287.999989" height="384" preserveAspectRatio="xMidYMid meet" version="1.0"><defs><clipPath id="d0313bc271"><path d="M 16.503906 0 L 415.503906 0 L 415.503906 288 L 16.503906 288 Z M 16.503906 0 " clip-rule="nonzero"/></clipPath></defs><g clip-path="url(#d0313bc271)"><path fill="#ffce00" d="M 216.003906 0 L 193.847656 0 L 193.847656 121.847656 L 415.394531 121.847656 L 415.394531 99.691406 L 216.003906 99.691406 Z M 193.847656 188.308594 L 193.847656 288 L 216.003906 288 L 216.003906 188.308594 L 415.394531 188.308594 L 415.394531 166.152344 L 193.847656 166.152344 Z M 160.617188 166.152344 L 16.613281 166.152344 L 16.613281 188.308594 L 138.464844 188.308594 L 138.464844 288 L 160.617188 288 Z M 160.617188 99.691406 L 160.617188 0 L 138.464844 0 L 138.464844 99.691406 L 16.613281 99.691406 L 16.613281 121.847656 L 160.617188 121.847656 Z M 160.617188 99.691406 " fill-opacity="1" fill-rule="nonzero"/><path fill="#d21034" d="M 193.847656 0 L 160.617188 0 L 160.617188 121.847656 L 16.613281 121.847656 L 16.613281 166.152344 L 160.617188 166.152344 L 160.617188 288 L 193.847656 288 L 193.847656 166.152344 L 415.394531 166.152344 L 415.394531 121.847656 L 193.847656 121.847656 Z M 193.847656 0 " fill-opacity="1" fill-rule="nonzero"/><path fill="#0053a5" d="M 216.003906 188.308594 L 216.003906 288 L 371.085938 288 C 395.554688 288 415.394531 268.160156 415.394531 243.691406 L 415.394531 188.308594 Z M 16.613281 188.308594 L 16.613281 243.691406 C 16.613281 268.160156 36.453125 288 60.921875 288 L 138.464844 288 L 138.464844 188.308594 Z M 138.464844 0 L 60.921875 0 C 36.453125 0 16.613281 19.839844 16.613281 44.308594 L 16.613281 99.691406 L 138.464844 99.691406 Z M 371.085938 0 L 216.003906 0 L 216.003906 99.691406 L 415.394531 99.691406 L 415.394531 44.308594 C 415.394531 19.839844 395.554688 0 371.085938 0 Z M 371.085938 0 " fill-opacity="1" fill-rule="nonzero"/></g></svg>