<svg width="21" height="15" viewBox="0 0 21 15" fill="none" xmlns="http://www.w3.org/2000/svg">
<g clip-path="url(#clip0_3201_36612)">
<rect width="21" height="15" rx="3" fill="#3A99FF"/>
<path d="M19 0H2C0.89543 0 0 0.89543 0 2V13C0 14.1046 0.89543 15 2 15H19C20.1046 15 21 14.1046 21 13V2C21 0.89543 20.1046 0 19 0Z" fill="#3A99FF"/>
<path fill-rule="evenodd" clip-rule="evenodd" d="M0 0H21V8H0V0Z" fill="#249F58"/>
<path fill-rule="evenodd" clip-rule="evenodd" d="M0 0L21 7.5L0 15V0Z" fill="#F93939"/>
<path fill-rule="evenodd" clip-rule="evenodd" d="M9 7.50001C9 6.12001 7.88 5.00001 6.5 4.50001C5.12 5.00001 4 6.12001 4 7.50001C4 8.71001 4.86 9.71801 6 9.95001V6.49801C6 6.22301 6.232 6.00001 6.5 6.00001C6.776 6.00001 7 6.21501 7 6.49801V9.95001C8.14 9.71801 9 8.71001 9 7.50001ZM10 7.50001C10 5.56701 8.433 4.00001 6.5 4.50001C4.567 4.00001 3 5.56701 3 7.50001C3 9.43301 4.567 11 6.5 11C8.433 11 10 9.43301 10 7.50001Z" fill="#FFDA2C"/>
</g>
<defs>
<clipPath id="clip0_3201_36612">
<rect width="21" height="15" rx="3" fill="white"/>
</clipPath>
</defs>
</svg>
