<svg xmlns="http://www.w3.org/2000/svg" xmlns:xlink="http://www.w3.org/1999/xlink" width="576" zoomAndPan="magnify" viewBox="0 0 432 287.999989" height="384" preserveAspectRatio="xMidYMid meet" version="1.0"><defs><clipPath id="60de250e75"><path d="M 16.503906 0 L 415.503906 0 L 415.503906 288 L 16.503906 288 Z M 16.503906 0 " clip-rule="nonzero"/></clipPath></defs><g clip-path="url(#60de250e75)"><path fill="#eeeeee" d="M 371.085938 0 L 60.921875 0 C 36.453125 0 16.613281 19.839844 16.613281 44.308594 L 16.613281 243.691406 C 16.613281 268.160156 36.453125 288 60.921875 288 L 371.085938 288 C 395.554688 288 415.394531 268.160156 415.394531 243.691406 L 415.394531 44.308594 C 415.394531 19.839844 395.554688 0 371.085938 0 Z M 371.085938 0 " fill-opacity="1" fill-rule="nonzero"/><path fill="#e8112d" d="M 249.234375 288 L 182.773438 288 L 182.773438 177.230469 L 16.613281 177.230469 L 16.613281 110.769531 L 182.773438 110.769531 L 182.773438 0 L 249.234375 0 L 249.234375 110.769531 L 415.394531 110.769531 L 415.394531 177.230469 L 249.234375 177.230469 Z M 249.234375 288 " fill-opacity="1" fill-rule="nonzero"/></g><path fill="#f9dd16" d="M 321.238281 132.921875 L 227.082031 132.921875 L 227.082031 49.847656 L 238.160156 38.769531 L 193.847656 38.769531 L 204.925781 49.847656 L 204.925781 132.921875 L 110.769531 132.921875 L 99.691406 121.847656 L 99.691406 166.152344 L 110.769531 155.078125 L 204.925781 155.078125 L 204.925781 238.152344 L 193.847656 249.230469 L 238.160156 249.230469 L 227.082031 238.152344 L 227.082031 155.078125 L 321.238281 155.078125 L 332.316406 166.152344 L 332.316406 121.847656 Z M 321.238281 132.921875 " fill-opacity="1" fill-rule="nonzero"/></svg>