<svg xmlns="http://www.w3.org/2000/svg" xmlns:xlink="http://www.w3.org/1999/xlink" width="576" zoomAndPan="magnify" viewBox="0 0 432 287.999989" height="384" preserveAspectRatio="xMidYMid meet" version="1.0"><defs><clipPath id="26b607166e"><path d="M 16.503906 144 L 415.503906 144 L 415.503906 288 L 16.503906 288 Z M 16.503906 144 " clip-rule="nonzero"/></clipPath><clipPath id="ac219063d2"><path d="M 16.503906 0 L 415.503906 0 L 415.503906 144 L 16.503906 144 Z M 16.503906 0 " clip-rule="nonzero"/></clipPath></defs><g clip-path="url(#26b607166e)"><path fill="#d00c33" d="M 16.613281 243.691406 C 16.613281 268.160156 36.453125 288 60.921875 288 L 371.085938 288 C 395.554688 288 415.394531 268.160156 415.394531 243.691406 L 415.394531 144 L 16.613281 144 Z M 16.613281 243.691406 " fill-opacity="1" fill-rule="nonzero"/></g><g clip-path="url(#ac219063d2)"><path fill="#eeeeee" d="M 371.085938 0 L 60.921875 0 C 36.453125 0 16.613281 19.839844 16.613281 44.308594 L 16.613281 144 L 415.394531 144 L 415.394531 44.308594 C 415.394531 19.839844 395.554688 0 371.085938 0 Z M 371.085938 0 " fill-opacity="1" fill-rule="nonzero"/></g><path fill="#eeeeee" d="M 254.773438 144 C 254.773438 145.449219 254.738281 146.898438 254.667969 148.347656 C 254.597656 149.796875 254.488281 151.242188 254.347656 152.6875 C 254.207031 154.128906 254.027344 155.566406 253.816406 157.003906 C 253.601562 158.4375 253.355469 159.867188 253.070312 161.289062 C 252.789062 162.710938 252.472656 164.125 252.117188 165.53125 C 251.765625 166.9375 251.378906 168.335938 250.957031 169.722656 C 250.539062 171.113281 250.082031 172.488281 249.59375 173.855469 C 249.105469 175.21875 248.582031 176.570312 248.027344 177.910156 C 247.472656 179.25 246.886719 180.578125 246.265625 181.886719 C 245.644531 183.199219 244.992188 184.492188 244.308594 185.773438 C 243.625 187.050781 242.910156 188.3125 242.167969 189.558594 C 241.421875 190.800781 240.644531 192.027344 239.839844 193.230469 C 239.035156 194.4375 238.199219 195.625 237.335938 196.789062 C 236.472656 197.953125 235.578125 199.097656 234.660156 200.21875 C 233.738281 201.339844 232.792969 202.4375 231.816406 203.511719 C 230.84375 204.585938 229.84375 205.636719 228.820312 206.660156 C 227.792969 207.6875 226.742188 208.6875 225.667969 209.660156 C 224.59375 210.632812 223.496094 211.582031 222.375 212.5 C 221.253906 213.421875 220.109375 214.3125 218.945312 215.175781 C 217.78125 216.039062 216.59375 216.875 215.390625 217.679688 C 214.183594 218.488281 212.957031 219.261719 211.714844 220.007812 C 210.472656 220.753906 209.210938 221.46875 207.929688 222.152344 C 206.652344 222.835938 205.355469 223.488281 204.046875 224.105469 C 202.734375 224.726562 201.410156 225.316406 200.070312 225.871094 C 198.730469 226.425781 197.375 226.945312 196.011719 227.433594 C 194.644531 227.925781 193.269531 228.378906 191.878906 228.800781 C 190.492188 229.21875 189.09375 229.605469 187.6875 229.960938 C 186.28125 230.3125 184.867188 230.628906 183.445312 230.914062 C 182.023438 231.195312 180.59375 231.445312 179.160156 231.65625 C 177.722656 231.867188 176.285156 232.046875 174.84375 232.1875 C 173.398438 232.332031 171.953125 232.4375 170.503906 232.507812 C 169.054688 232.578125 167.605469 232.617188 166.15625 232.617188 C 164.707031 232.617188 163.257812 232.578125 161.808594 232.507812 C 160.359375 232.4375 158.914062 232.332031 157.46875 232.1875 C 156.027344 232.046875 154.585938 231.867188 153.152344 231.65625 C 151.71875 231.445312 150.289062 231.195312 148.867188 230.914062 C 147.445312 230.628906 146.03125 230.3125 144.625 229.960938 C 143.21875 229.605469 141.820312 229.21875 140.433594 228.800781 C 139.042969 228.378906 137.667969 227.925781 136.300781 227.433594 C 134.9375 226.945312 133.582031 226.425781 132.242188 225.871094 C 130.902344 225.316406 129.578125 224.726562 128.265625 224.105469 C 126.957031 223.488281 125.660156 222.835938 124.382812 222.152344 C 123.101562 221.46875 121.839844 220.753906 120.597656 220.007812 C 119.351562 219.261719 118.128906 218.488281 116.921875 217.679688 C 115.714844 216.875 114.53125 216.039062 113.367188 215.175781 C 112.203125 214.3125 111.058594 213.421875 109.9375 212.5 C 108.816406 211.582031 107.71875 210.632812 106.644531 209.660156 C 105.570312 208.6875 104.519531 207.6875 103.492188 206.660156 C 102.46875 205.636719 101.46875 204.585938 100.496094 203.511719 C 99.519531 202.4375 98.574219 201.339844 97.652344 200.21875 C 96.734375 199.097656 95.839844 197.953125 94.976562 196.789062 C 94.113281 195.625 93.277344 194.4375 92.472656 193.230469 C 91.667969 192.027344 90.890625 190.800781 90.144531 189.558594 C 89.398438 188.3125 88.6875 187.050781 88.003906 185.773438 C 87.320312 184.492188 86.667969 183.199219 86.046875 181.886719 C 85.425781 180.578125 84.839844 179.25 84.285156 177.910156 C 83.730469 176.570312 83.207031 175.21875 82.71875 173.855469 C 82.230469 172.488281 81.773438 171.113281 81.355469 169.722656 C 80.933594 168.335938 80.546875 166.9375 80.195312 165.53125 C 79.839844 164.125 79.523438 162.710938 79.242188 161.289062 C 78.957031 159.867188 78.710938 158.4375 78.496094 157.003906 C 78.285156 155.566406 78.105469 154.128906 77.964844 152.6875 C 77.824219 151.242188 77.714844 149.796875 77.644531 148.347656 C 77.574219 146.898438 77.539062 145.449219 77.539062 144 C 77.539062 142.550781 77.574219 141.101562 77.644531 139.652344 C 77.714844 138.203125 77.824219 136.757812 77.964844 135.3125 C 78.105469 133.871094 78.285156 132.433594 78.496094 130.996094 C 78.710938 129.5625 78.957031 128.132812 79.242188 126.710938 C 79.523438 125.289062 79.839844 123.875 80.195312 122.46875 C 80.546875 121.0625 80.933594 119.664062 81.355469 118.277344 C 81.773438 116.886719 82.230469 115.511719 82.71875 114.144531 C 83.207031 112.78125 83.730469 111.429688 84.285156 110.089844 C 84.839844 108.75 85.425781 107.421875 86.046875 106.113281 C 86.667969 104.800781 87.320312 103.507812 88.003906 102.226562 C 88.6875 100.949219 89.398438 99.6875 90.144531 98.441406 C 90.890625 97.199219 91.667969 95.972656 92.472656 94.769531 C 93.277344 93.5625 94.113281 92.375 94.976562 91.210938 C 95.839844 90.046875 96.734375 88.902344 97.652344 87.78125 C 98.574219 86.660156 99.519531 85.5625 100.496094 84.488281 C 101.46875 83.414062 102.46875 82.363281 103.492188 81.339844 C 104.519531 80.3125 105.570312 79.3125 106.644531 78.339844 C 107.71875 77.367188 108.816406 76.417969 109.9375 75.5 C 111.058594 74.578125 112.203125 73.6875 113.367188 72.824219 C 114.53125 71.960938 115.714844 71.125 116.921875 70.320312 C 118.128906 69.511719 119.351562 68.738281 120.597656 67.992188 C 121.839844 67.246094 123.101562 66.53125 124.382812 65.847656 C 125.660156 65.164062 126.957031 64.511719 128.265625 63.894531 C 129.578125 63.273438 130.902344 62.683594 132.242188 62.128906 C 133.582031 61.574219 134.9375 61.054688 136.300781 60.566406 C 137.667969 60.074219 139.042969 59.621094 140.433594 59.199219 C 141.820312 58.78125 143.21875 58.394531 144.625 58.039062 C 146.03125 57.6875 147.445312 57.371094 148.867188 57.085938 C 150.289062 56.804688 151.71875 56.554688 153.152344 56.34375 C 154.585938 56.132812 156.027344 55.953125 157.46875 55.8125 C 158.914062 55.667969 160.359375 55.5625 161.808594 55.492188 C 163.257812 55.421875 164.707031 55.382812 166.15625 55.382812 C 167.605469 55.382812 169.054688 55.421875 170.503906 55.492188 C 171.953125 55.5625 173.398438 55.667969 174.84375 55.8125 C 176.285156 55.953125 177.722656 56.132812 179.160156 56.34375 C 180.59375 56.554688 182.023438 56.804688 183.445312 57.085938 C 184.867188 57.371094 186.28125 57.6875 187.6875 58.039062 C 189.09375 58.394531 190.492188 58.78125 191.878906 59.199219 C 193.269531 59.621094 194.644531 60.074219 196.011719 60.566406 C 197.375 61.054688 198.730469 61.574219 200.070312 62.128906 C 201.410156 62.683594 202.734375 63.273438 204.046875 63.894531 C 205.355469 64.511719 206.652344 65.164062 207.929688 65.847656 C 209.210938 66.53125 210.472656 67.246094 211.714844 67.992188 C 212.957031 68.738281 214.183594 69.511719 215.390625 70.320312 C 216.59375 71.125 217.78125 71.960938 218.945312 72.824219 C 220.109375 73.6875 221.253906 74.578125 222.375 75.5 C 223.496094 76.417969 224.59375 77.367188 225.667969 78.339844 C 226.742188 79.3125 227.792969 80.3125 228.820312 81.339844 C 229.84375 82.363281 230.84375 83.414062 231.816406 84.488281 C 232.792969 85.5625 233.738281 86.660156 234.660156 87.78125 C 235.578125 88.902344 236.472656 90.046875 237.335938 91.210938 C 238.199219 92.375 239.035156 93.5625 239.839844 94.769531 C 240.644531 95.972656 241.421875 97.199219 242.167969 98.441406 C 242.910156 99.6875 243.625 100.949219 244.308594 102.226562 C 244.992188 103.507812 245.644531 104.800781 246.265625 106.113281 C 246.886719 107.421875 247.472656 108.75 248.027344 110.089844 C 248.582031 111.429688 249.105469 112.78125 249.59375 114.144531 C 250.082031 115.511719 250.539062 116.886719 250.957031 118.277344 C 251.378906 119.664062 251.765625 121.0625 252.117188 122.46875 C 252.472656 123.875 252.789062 125.289062 253.070312 126.710938 C 253.355469 128.132812 253.601562 129.5625 253.816406 130.996094 C 254.027344 132.433594 254.207031 133.871094 254.347656 135.3125 C 254.488281 136.757812 254.597656 138.203125 254.667969 139.652344 C 254.738281 141.101562 254.773438 142.550781 254.773438 144 Z M 254.773438 144 " fill-opacity="1" fill-rule="nonzero"/><path fill="#d00c33" d="M 166.15625 55.382812 C 117.21875 55.382812 77.539062 95.0625 77.539062 144 L 254.773438 144 C 254.773438 95.0625 215.09375 55.382812 166.15625 55.382812 Z M 166.15625 55.382812 " fill-opacity="1" fill-rule="nonzero"/></svg>