<svg xmlns="http://www.w3.org/2000/svg" xmlns:xlink="http://www.w3.org/1999/xlink" width="576" zoomAndPan="magnify" viewBox="0 0 432 287.999989" height="384" preserveAspectRatio="xMidYMid meet" version="1.0"><defs><clipPath id="332009977d"><path d="M 16.503906 0 L 415.503906 0 L 415.503906 288 L 16.503906 288 Z M 16.503906 0 " clip-rule="nonzero"/></clipPath><clipPath id="ceaaee8913"><path d="M 16.503906 99 L 415.503906 99 L 415.503906 288 L 16.503906 288 Z M 16.503906 99 " clip-rule="nonzero"/></clipPath></defs><g clip-path="url(#332009977d)"><path fill="#002488" d="M 415.394531 243.691406 C 415.394531 268.160156 395.554688 288 371.085938 288 L 60.921875 288 C 36.453125 288 16.613281 268.160156 16.613281 243.691406 L 16.613281 44.308594 C 16.613281 19.839844 36.453125 0 60.921875 0 L 371.085938 0 C 395.554688 0 415.394531 19.839844 415.394531 44.308594 Z M 415.394531 243.691406 " fill-opacity="1" fill-rule="nonzero"/></g><g clip-path="url(#ceaaee8913)"><path fill="#141414" d="M 16.613281 243.691406 C 16.613281 268.160156 36.453125 288 60.921875 288 L 371.085938 288 C 395.554688 288 415.394531 268.160156 415.394531 243.691406 L 415.394531 99.691406 L 16.613281 99.691406 Z M 16.613281 243.691406 " fill-opacity="1" fill-rule="nonzero"/></g><path fill="#008000" d="M 337.851562 260.074219 C 337.851562 260.074219 244.847656 211.148438 199.851562 196.382812 C 154.855469 181.617188 142.851562 193.148438 140.3125 198.6875 C 145.164062 185.527344 150.238281 182.304688 150.238281 182.304688 C 150.238281 182.304688 132.46875 186.910156 132.703125 197.988281 C 129.015625 188.0625 141.464844 175.835938 157.859375 175.601562 C 143.09375 173.519531 117.472656 175.835938 112.863281 190.367188 C 113.097656 175.371094 139.171875 171.214844 149.785156 171.671875 C 123.242188 163.363281 101.089844 163.59375 99.472656 174.671875 C 97.621094 169.820312 102.707031 165.84375 102.707031 165.84375 C 102.707031 165.84375 92.316406 164.96875 87.242188 169.585938 C 87.007812 165.433594 104.089844 161.292969 112.398438 162.210938 C 97.863281 156.4375 86.554688 155.496094 83.785156 162.078125 C 82.84375 154.390625 109.851562 152.308594 122.3125 155.078125 C 93.234375 144.464844 82.390625 140.3125 71.546875 151.621094 C 71.546875 143.777344 81.003906 140.777344 87.695312 141.464844 C 81.925781 135.460938 77.550781 131.539062 71.546875 131.304688 C 75 129.921875 82.390625 132.691406 82.390625 132.691406 C 82.390625 132.691406 74.082031 123.917969 68.3125 121.148438 C 78.46875 122.765625 97.386719 142.382812 98.773438 143.988281 C 100.15625 145.59375 108.234375 147.445312 108.234375 147.445312 C 108.234375 147.445312 81.925781 125.976562 81.003906 119.066406 C 91.851562 124.371094 113.085938 147.675781 113.085938 147.675781 C 113.085938 147.675781 118.390625 150.679688 118.625 148.363281 C 118.855469 146.058594 86.777344 125.058594 87.242188 113.050781 C 93.699219 122.046875 102.9375 132.203125 102.9375 132.203125 C 102.9375 132.203125 96.246094 123.429688 96.933594 115.355469 C 103.390625 126.898438 113.085938 140.964844 121.859375 145.816406 C 107.4375 131.660156 105.929688 123.429688 107.09375 120.429688 C 114.933594 134.738281 127.628906 149.039062 129.710938 149.96875 C 131.792969 150.902344 132.945312 150.65625 132.945312 150.65625 C 132.945312 150.65625 123.953125 141.199219 122.554688 135.195312 C 128.78125 139.582031 133.167969 149.726562 134.554688 150.191406 C 135.9375 150.65625 137.554688 149.726562 137.554688 149.726562 C 137.554688 149.726562 124.171875 135.878906 124.171875 129.191406 C 130.632812 134.261719 139.171875 148.34375 140.324219 150.425781 C 141.476562 152.507812 146.78125 156.195312 147.480469 154.578125 C 148.179688 152.960938 128.328125 134.960938 134.097656 131.960938 C 143.324219 139.582031 148.632812 150.65625 149.5625 150.878906 C 150.492188 151.101562 154.636719 152.730469 153.949219 151.34375 C 153.261719 149.960938 140.933594 134.386719 144.023438 125.734375 C 144.699219 134.917969 154.179688 152.507812 170.566406 156.429688 C 186.949219 160.347656 235.644531 193.113281 268.175781 202.820312 C 300.710938 212.523438 359.332031 225.4375 359.332031 225.4375 L 357.480469 228.207031 C 357.480469 228.207031 271.402344 205.585938 271.402344 206.285156 C 271.402344 206.984375 273.9375 209.289062 273.9375 209.289062 C 273.9375 209.289062 356.5625 230.976562 356.332031 231.675781 C 356.097656 232.371094 354.46875 235.617188 354.46875 235.617188 L 270.703125 209.542969 L 268.167969 209.542969 C 268.167969 209.542969 351.710938 237.699219 351.710938 238.386719 C 351.710938 239.074219 350.09375 242.074219 350.09375 242.074219 L 263.78125 209.53125 L 266.550781 212.765625 C 266.550781 212.765625 348.941406 244.136719 348.710938 245.066406 C 348.476562 245.996094 346.394531 248.300781 346.394531 248.300781 L 267.933594 216.222656 L 263.316406 215.070312 L 345.007812 250.382812 L 342.472656 253.382812 L 266.550781 219.699219 L 264.011719 219.699219 L 340.867188 257.78125 Z M 337.851562 260.074219 " fill-opacity="1" fill-rule="nonzero"/><path fill="#fcdd09" d="M 297.433594 214.28125 C 297.433594 214.28125 294.5625 204.503906 275.597656 204.101562 L 275.644531 204.058594 C 285.980469 193.722656 295.371094 194.699219 300.511719 196.714844 C 300.511719 196.714844 295.714844 188.074219 277.738281 191.277344 C 285.667969 180.066406 294.695312 179.15625 299.980469 180.089844 C 299.980469 180.089844 293.355469 172.070312 275.445312 179.613281 C 275.554688 179.359375 275.710938 179.136719 275.808594 178.859375 C 281.027344 165.210938 290 162.265625 295.515625 162.011719 C 295.515625 162.011719 287.640625 155.984375 272.554688 166.230469 C 275.265625 152.882812 283.097656 148.386719 288.292969 147.101562 C 288.292969 147.101562 279.023438 142.503906 265.816406 156.527344 C 265.816406 156.339844 265.851562 156.171875 265.839844 155.996094 C 265.121094 141.417969 272.121094 135.082031 277.074219 132.636719 C 277.074219 132.636719 267.148438 130.199219 257.34375 146.449219 L 257.332031 146.394531 C 253.535156 132.304688 259.050781 124.625 263.371094 121.179688 C 263.371094 121.179688 253.246094 120.914062 247.074219 138.640625 C 240.660156 125.8125 244.40625 117.25 247.894531 113.027344 C 247.894531 113.027344 237.980469 114.910156 235.609375 133.453125 C 226.757812 122.246094 228.652344 113.117188 231.191406 108.277344 C 231.191406 108.277344 221.863281 112.164062 223.371094 130.820312 C 212.347656 121.65625 212.324219 112.332031 213.820312 107.058594 C 213.820312 107.058594 205.492188 112.785156 210.820312 130.742188 C 198.148438 124.082031 196.164062 114.933594 196.53125 109.460938 C 196.53125 109.460938 189.507812 116.816406 198.566406 133.398438 C 184.542969 129.578125 180.667969 120.960938 179.882812 115.5 C 179.882812 115.5 174.574219 124.074219 186.671875 138.25 C 172.558594 137.222656 167.085938 129.734375 165.226562 124.605469 C 165.226562 124.605469 161.703125 134.242188 176.902344 145.792969 C 176.8125 145.804688 176.734375 145.792969 176.644531 145.816406 C 162.246094 148.085938 155.179688 141.796875 152.222656 137.121094 C 152.222656 137.121094 150.925781 146.890625 167.1875 154.84375 C 154.402344 158.988281 146.660156 154.480469 143.003906 150.613281 C 143.003906 150.613281 143.59375 161.003906 162.5 165.488281 C 162.257812 165.632812 162.011719 165.722656 161.769531 165.875 C 149.519531 173.785156 140.511719 170.882812 135.925781 167.816406 C 135.925781 167.816406 138.796875 177.597656 157.75 177.996094 L 157.691406 178.039062 C 147.390625 188.351562 137.976562 187.421875 132.835938 185.382812 C 132.835938 185.382812 137.632812 194.035156 155.597656 190.820312 C 147.691406 202.011719 138.652344 202.960938 133.367188 202.011719 C 133.367188 202.011719 139.992188 210.03125 157.890625 202.476562 C 157.78125 202.742188 157.625 202.960938 157.527344 203.226562 C 152.332031 216.84375 143.347656 219.84375 137.832031 220.078125 C 137.832031 220.078125 145.695312 226.101562 160.773438 215.867188 C 158.082031 229.191406 150.25 233.722656 145.054688 234.984375 C 145.054688 234.984375 154.316406 239.582031 167.519531 225.558594 C 167.519531 225.738281 167.484375 225.902344 167.496094 226.089844 C 168.238281 240.644531 161.238281 247.015625 156.273438 249.453125 C 156.273438 249.453125 166.199219 251.890625 176.003906 235.640625 L 176.015625 235.695312 C 179.824219 249.773438 174.308594 257.460938 169.988281 260.894531 C 169.988281 260.894531 180.113281 261.160156 186.273438 243.449219 C 192.6875 256.253906 188.953125 264.828125 185.453125 269.058594 C 185.453125 269.058594 195.367188 267.164062 197.738281 248.632812 C 206.597656 259.832031 204.703125 268.957031 202.15625 273.800781 C 202.15625 273.800781 211.484375 269.910156 209.988281 251.257812 C 221.011719 260.40625 221.03125 269.746094 219.539062 275.007812 C 219.539062 275.007812 227.867188 269.28125 222.539062 251.335938 C 235.246094 258.015625 237.171875 267.164062 236.828125 272.601562 C 236.828125 272.601562 243.839844 265.257812 234.800781 248.6875 C 248.847656 252.519531 252.667969 261.136719 253.488281 266.566406 C 253.488281 266.566406 258.785156 258.015625 246.722656 243.835938 C 260.84375 244.867188 266.273438 252.367188 268.15625 257.460938 C 268.15625 257.460938 271.679688 247.835938 256.480469 236.269531 L 256.710938 236.257812 C 271.144531 233.976562 278.179688 240.292969 281.136719 244.945312 C 281.136719 244.945312 282.433594 235.183594 266.171875 227.210938 C 278.96875 223.066406 286.6875 227.597656 290.355469 231.441406 C 290.355469 231.441406 289.765625 221.0625 270.871094 216.554688 C 271.113281 216.410156 271.355469 216.320312 271.589844 216.175781 C 283.851562 208.300781 292.824219 211.226562 297.433594 214.28125 Z M 85.835938 71.082031 C 85.835938 71.082031 86.3125 54.699219 75.6875 45.925781 C 65.078125 37.152344 58.386719 46.613281 58.839844 51.929688 C 59.304688 57.234375 63.878906 64.15625 72.320312 66.695312 C 67.148438 56.535156 74.171875 56.347656 76.609375 57.699219 C 80.050781 59.605469 81.914062 64.621094 81.914062 71.082031 Z M 90.699219 14.078125 C 79.15625 20.082031 79.621094 37.851562 83.308594 46.84375 C 87 55.851562 87.929688 71.082031 87.929688 71.082031 L 93.46875 71.082031 C 93.46875 71.082031 94.386719 55.851562 98.085938 46.84375 C 101.773438 37.851562 102.230469 20.070312 90.699219 14.078125 Z M 95.550781 71.082031 C 95.550781 71.082031 95.074219 54.699219 105.695312 45.925781 C 116.308594 37.152344 123 46.613281 122.535156 51.929688 C 122.070312 57.234375 117.492188 64.15625 109.054688 66.695312 C 114.226562 56.535156 107.203125 56.347656 104.765625 57.699219 C 101.320312 59.605469 99.460938 64.621094 99.460938 71.082031 Z M 90.699219 73.152344 L 80.984375 73.960938 L 90.699219 74.769531 L 100.402344 73.960938 Z M 103.324219 85.160156 C 97.265625 81.871094 95.550781 76.851562 95.550781 76.851562 L 85.835938 76.851562 C 85.835938 76.851562 84.117188 81.871094 78.058594 85.160156 C 83.421875 86.023438 88.957031 83.253906 88.957031 83.253906 C 88.957031 83.253906 85.835938 90.875 90.6875 98.308594 C 95.539062 90.863281 92.414062 83.253906 92.414062 83.253906 C 92.414062 83.253906 97.964844 86.023438 103.324219 85.160156 Z M 211.152344 71.082031 C 211.152344 71.082031 211.628906 54.699219 201.003906 45.925781 C 190.394531 37.152344 183.691406 46.613281 184.15625 51.929688 C 184.621094 57.234375 189.195312 64.15625 197.636719 66.695312 C 192.464844 56.535156 199.488281 56.347656 201.925781 57.699219 C 205.371094 59.605469 207.230469 64.621094 207.230469 71.082031 Z M 216.003906 14.078125 C 204.460938 20.082031 204.925781 37.851562 208.617188 46.84375 C 212.304688 55.851562 213.234375 71.082031 213.234375 71.082031 L 218.773438 71.082031 C 218.773438 71.082031 219.691406 55.851562 223.390625 46.84375 C 227.082031 37.851562 227.546875 20.070312 216.003906 14.078125 Z M 220.855469 71.082031 C 220.855469 71.082031 220.378906 54.699219 231.003906 45.925781 C 241.613281 37.152344 248.304688 46.613281 247.851562 51.929688 C 247.386719 57.234375 242.8125 64.15625 234.359375 66.695312 C 239.542969 56.535156 232.507812 56.347656 230.070312 57.699219 C 226.625 59.605469 224.765625 64.621094 224.765625 71.082031 Z M 216.003906 73.152344 L 206.289062 73.960938 L 216.003906 74.769531 L 225.71875 73.960938 Z M 228.644531 85.160156 C 222.582031 81.871094 220.867188 76.851562 220.867188 76.851562 L 211.152344 76.851562 C 211.152344 76.851562 209.433594 81.871094 203.375 85.160156 C 208.738281 86.023438 214.277344 83.253906 214.277344 83.253906 C 214.277344 83.253906 211.152344 90.863281 216.003906 98.308594 C 220.855469 90.863281 217.730469 83.253906 217.730469 83.253906 C 217.730469 83.253906 223.269531 86.023438 228.644531 85.160156 Z M 337.320312 71.082031 C 337.320312 71.082031 337.796875 54.699219 327.1875 45.925781 C 316.5625 37.152344 309.871094 46.613281 310.335938 51.929688 C 310.804688 57.234375 315.378906 64.15625 323.820312 66.695312 C 318.644531 56.535156 325.679688 56.347656 328.117188 57.699219 C 331.5625 59.605469 333.421875 64.621094 333.421875 71.082031 Z M 342.183594 14.078125 C 330.640625 20.082031 331.109375 37.851562 334.808594 46.84375 C 338.496094 55.851562 339.414062 71.082031 339.414062 71.082031 L 344.953125 71.082031 C 344.953125 71.082031 345.875 55.851562 349.5625 46.84375 C 353.261719 37.851562 353.726562 20.070312 342.183594 14.078125 Z M 347.035156 71.082031 C 347.035156 71.082031 346.558594 54.699219 357.183594 45.925781 C 367.796875 37.152344 374.484375 46.613281 374.019531 51.929688 C 373.554688 57.234375 368.980469 64.15625 360.527344 66.695312 C 365.710938 56.535156 358.679688 56.347656 356.242188 57.699219 C 352.796875 59.605469 350.9375 64.621094 350.9375 71.082031 Z M 342.183594 73.152344 L 332.46875 73.960938 L 342.183594 74.769531 L 351.898438 73.960938 Z M 354.8125 85.160156 C 348.753906 81.871094 347.035156 76.851562 347.035156 76.851562 L 337.332031 76.851562 C 337.332031 76.851562 335.617188 81.871094 329.554688 85.160156 C 334.917969 86.023438 340.457031 83.253906 340.457031 83.253906 C 340.457031 83.253906 337.332031 90.875 342.183594 98.308594 C 347.035156 90.863281 343.914062 83.253906 343.914062 83.253906 C 343.914062 83.253906 349.453125 86.023438 354.8125 85.160156 Z M 354.8125 85.160156 " fill-opacity="1" fill-rule="nonzero"/></svg>