<svg xmlns="http://www.w3.org/2000/svg" xmlns:xlink="http://www.w3.org/1999/xlink" width="576" zoomAndPan="magnify" viewBox="0 0 432 287.999989" height="384" preserveAspectRatio="xMidYMid meet" version="1.0"><defs><clipPath id="03e81894c0"><path d="M 16.503906 0 L 415.503906 0 L 415.503906 288 L 16.503906 288 Z M 16.503906 0 " clip-rule="nonzero"/></clipPath></defs><g clip-path="url(#03e81894c0)"><path fill="#dd2e44" d="M 415.394531 243.691406 C 415.394531 268.160156 395.554688 288 371.085938 288 L 60.921875 288 C 36.453125 288 16.613281 268.160156 16.613281 243.691406 L 16.613281 44.308594 C 16.613281 19.839844 36.453125 0 60.921875 0 L 371.085938 0 C 395.554688 0 415.394531 19.839844 415.394531 44.308594 Z M 415.394531 243.691406 " fill-opacity="1" fill-rule="nonzero"/></g><path fill="#00297b" d="M 404.316406 243.691406 C 404.316406 262.046875 389.441406 276.921875 371.085938 276.921875 L 60.921875 276.921875 C 42.566406 276.921875 27.691406 262.046875 27.691406 243.691406 L 27.691406 44.308594 C 27.691406 25.953125 42.566406 11.078125 60.921875 11.078125 L 371.085938 11.078125 C 389.441406 11.078125 404.316406 25.953125 404.316406 44.308594 Z M 404.316406 243.691406 " fill-opacity="1" fill-rule="nonzero"/><path fill="#dd2e44" d="M 210.675781 239.539062 C 240.273438 214.949219 273.03125 186.425781 273.03125 146.117188 C 273.03125 105.796875 240.273438 77.273438 210.675781 52.683594 C 181.066406 77.273438 148.3125 105.785156 148.3125 146.117188 C 148.3125 186.425781 181.066406 214.949219 210.675781 239.539062 Z M 210.675781 239.539062 " fill-opacity="1" fill-rule="nonzero"/><path fill="#017bdd" d="M 157.59375 162.011719 C 164.40625 190.378906 188.542969 211.824219 210.675781 230.710938 C 232.820312 211.824219 256.957031 190.367188 263.757812 162.011719 Z M 157.59375 162.011719 " fill-opacity="1" fill-rule="nonzero"/><path fill="#66afeb" d="M 263.746094 162.011719 C 264.976562 156.949219 265.652344 151.644531 265.652344 146.117188 C 265.652344 109.605469 236.773438 83.773438 210.675781 61.511719 C 184.578125 83.773438 155.710938 109.59375 155.710938 146.117188 C 155.710938 151.644531 156.375 156.949219 157.59375 162.011719 Z M 263.746094 162.011719 " fill-opacity="1" fill-rule="nonzero"/><path fill="#9c8431" d="M 265.441406 151.355469 C 265.164062 155.023438 264.601562 158.566406 263.757812 162.011719 L 199.976562 162.011719 C 200.761719 159.882812 201.859375 156.605469 202.8125 154.136719 C 220.757812 156.605469 249.015625 155.941406 265.441406 151.355469 Z M 265.441406 151.355469 " fill-opacity="1" fill-rule="nonzero"/><path fill="#fff100" d="M 182.085938 204.070312 C 177.199219 198.765625 172.691406 193.179688 168.835938 187.289062 C 178.871094 187.742188 198.480469 189.824219 206.265625 196.59375 C 208.160156 198.234375 208.160156 199.050781 205.800781 198.71875 C 201.070312 198.078125 188.445312 200.726562 182.085938 204.070312 Z M 182.085938 204.070312 " fill-opacity="1" fill-rule="nonzero"/><path fill="#fff100" d="M 257.976562 177.785156 C 247.652344 198.609375 228.511719 215.492188 210.675781 230.710938 C 205.125 225.96875 199.453125 221.085938 193.960938 215.964844 C 201.535156 203.96875 222.648438 211.347656 222.648438 200.691406 C 222.648438 195.121094 217.300781 190.246094 209.734375 189.703125 C 207.375 189.546875 206.796875 189.449219 208.625 188.074219 C 217.289062 181.527344 226.117188 188.5625 240.90625 181.851562 C 251.683594 176.964844 256.613281 177.332031 257.976562 177.785156 Z M 257.976562 177.785156 " fill-opacity="1" fill-rule="nonzero"/><path fill="#029270" d="M 222.007812 104.675781 C 221.808594 104.421875 221.574219 103.746094 221.5 103.582031 C 221.964844 103.988281 224.023438 104.523438 224.765625 104.644531 C 224.457031 104.445312 223.902344 103.625 223.703125 103.457031 C 224.289062 103.703125 226.492188 104.476562 226.96875 104.234375 C 226.582031 103.835938 225.464844 102.671875 225 102.351562 C 225.816406 102.640625 227.789062 103.746094 228.300781 103.746094 C 228.1875 103.304688 228.023438 102.605469 227.757812 102.019531 C 228.445312 102.515625 229.75 103.09375 230.414062 103.335938 C 230.347656 102.804688 230.183594 101.941406 229.960938 101.453125 C 230.648438 101.941406 231.933594 102.925781 232.773438 103.257812 C 232.554688 102.925781 232.621094 101.863281 232.230469 101.375 C 232.773438 101.785156 234.4375 103.105469 235.15625 103.347656 C 234.746094 102.859375 234.679688 101.875 234.359375 101.464844 C 234.835938 101.875 236.417969 102.617188 237.128906 103.105469 C 236.949219 102.773438 236.652344 102.03125 236.332031 101.542969 C 236.808594 102.03125 238.921875 103.257812 239.554688 103.757812 C 239.398438 103.269531 239.078125 102.195312 238.867188 101.785156 C 239.796875 102.117188 242.246094 103.589844 243.042969 103.914062 C 240.207031 98.242188 227.46875 96.335938 220.191406 98.640625 C 221.34375 98.074219 221.964844 96.945312 224.144531 96.414062 C 223.601562 96.246094 222.242188 95.550781 222.097656 95.304688 C 222.792969 95.472656 225.398438 94.972656 225.949219 94.894531 C 225.476562 94.484375 224.609375 93.832031 224.222656 93.421875 C 225.253906 93.5 227.691406 93.257812 228.398438 93.011719 C 227.988281 92.847656 227.125 92.527344 226.648438 92.28125 C 227.359375 92.359375 229.019531 92.527344 229.71875 92.359375 C 229.261719 91.949219 228.464844 90.964844 227.835938 90.554688 C 228.851562 90.796875 230.902344 90.796875 232.242188 90.632812 C 231.613281 90.222656 230.746094 89.8125 230.183594 89.492188 C 230.835938 89.566406 233.496094 88.835938 234.203125 88.671875 C 233.816406 88.261719 232.773438 88.015625 232.144531 87.773438 C 233.25 87.695312 235.066406 86.621094 235.597656 86.132812 C 226.828125 86.265625 219.539062 90.519531 215.738281 96.789062 C 215.859375 94.753906 215.183594 92.269531 215.085938 90.820312 L 213.988281 92.203125 C 214.320312 91.074219 214.308594 88.074219 214.132812 87.164062 C 213.933594 87.75 213.390625 88.636719 213.144531 89.089844 C 213.222656 88.007812 212.933594 85.015625 212.601562 83.832031 C 212.359375 84.449219 211.738281 85.292969 211.484375 85.757812 C 211.683594 84.394531 210.808594 80.894531 210.386719 79.554688 C 210.398438 80.195312 209.8125 81.78125 209.625 82.179688 C 209.589844 80.960938 208.605469 77.039062 208.148438 76.199219 C 208.347656 76.851562 207.996094 78.578125 207.972656 79.1875 C 207.671875 78.324219 206.488281 76.066406 206.078125 75.410156 C 206.234375 75.875 206.089844 76.761719 206.089844 77.238281 C 205.402344 76.253906 203.585938 74.414062 202.765625 73.828125 C 203.476562 74.914062 204.097656 76.617188 204.472656 77.351562 C 204.261719 77.238281 203.71875 77.007812 203.453125 76.953125 C 204.074219 77.703125 205.246094 79.753906 205.679688 80.496094 C 205.292969 80.363281 204.484375 80.296875 204.085938 80.296875 C 204.90625 80.9375 206.523438 82.765625 207.074219 83.519531 C 206.722656 83.363281 205.636719 83.429688 205.335938 83.5625 C 206.046875 83.941406 207.695312 85.449219 208.195312 86.132812 C 207.804688 85.878906 206.875 85.636719 206.5 85.667969 C 207.332031 86.542969 208.539062 88.074219 209.082031 88.671875 C 208.605469 88.382812 207.066406 87.949219 206.523438 88.007812 C 207.164062 88.636719 209.082031 90.6875 209.578125 91.363281 C 209.089844 91.183594 207.960938 91.351562 207.5625 91.351562 C 208.28125 92.015625 210.15625 94.152344 210.609375 94.707031 C 210.15625 94.453125 208.914062 94.242188 208.472656 94.210938 C 209.300781 95.140625 210.488281 97 211.007812 97.777344 C 210.574219 97.742188 209.644531 97.621094 209.28125 97.464844 C 205.171875 90.675781 197.757812 86.488281 192.597656 86.101562 C 193.304688 86.421875 195.753906 87.984375 196.53125 88.804688 C 195.976562 88.804688 195.191406 88.636719 194.714844 88.636719 C 195.578125 89.378906 197.394531 90.441406 198.101562 90.765625 C 197.871094 90.765625 196.839844 90.765625 196.53125 90.976562 C 197.238281 91.683594 199.121094 92.203125 200.351562 93.101562 C 199.886719 93.101562 199.089844 93.179688 198.625 93.179688 C 199.6875 93.589844 201.535156 94.90625 202.167969 95.847656 C 201.859375 95.804688 200.984375 95.726562 200.550781 95.683594 C 201.570312 96.257812 203 97.277344 203.621094 97.941406 C 203.230469 97.820312 202.324219 97.820312 201.96875 97.820312 C 202.601562 98.308594 204.527344 99.171875 205.113281 99.902344 C 204.792969 99.871094 203.695312 99.78125 203.386719 99.78125 C 204.050781 100.3125 205.921875 101.753906 206.941406 102.859375 C 194.933594 97.054688 180.324219 99.679688 172.59375 110.359375 C 173.542969 110.039062 176.84375 108.066406 177.941406 107.734375 C 177.464844 108.308594 177.621094 109.050781 177.3125 109.617188 C 178.253906 109.042969 179.746094 107.8125 180.855469 107.070312 C 180.621094 107.480469 180.457031 108.375 180.070312 109.117188 C 180.855469 108.632812 183.292969 106.992188 184.476562 106.007812 C 184.324219 106.75 184.011719 107.402344 183.769531 107.890625 C 185.03125 107.148438 187.390625 105.507812 188.1875 104.933594 C 187.800781 105.664062 187.480469 106.492188 187.082031 106.980469 C 188.1875 106.570312 190.703125 104.933594 192.199219 104.113281 C 191.964844 104.6875 191.8125 105.507812 191.414062 105.996094 C 192.597656 105.339844 194.480469 104.765625 195.753906 104.84375 C 195.511719 105.253906 195.125 105.996094 194.648438 106.316406 C 195.832031 105.90625 197.515625 105.605469 199.410156 105.851562 C 191.289062 108.53125 183.171875 117.28125 183.390625 123.042969 C 184.132812 121.722656 185.640625 119.972656 186.582031 119.109375 C 186.382812 119.730469 186.503906 120.714844 186.550781 121.28125 C 186.9375 120.050781 187.769531 118.578125 188.511719 117.261719 C 188.398438 118.003906 188.632812 118.945312 188.785156 119.429688 C 189.175781 118.246094 190.605469 115.832031 191.222656 114.835938 C 191.023438 115.53125 191.269531 116.851562 191.421875 117.539062 C 192.019531 116.308594 193.238281 114.425781 194.226562 113.316406 C 193.992188 114.058594 194.027344 115.320312 194.070312 115.777344 C 194.691406 114.667969 196.265625 112.695312 197.214844 111.675781 C 196.941406 112.542969 196.941406 113.847656 196.894531 114.46875 C 197.648438 113.285156 199.777344 111.066406 200.992188 110.003906 C 200.640625 110.78125 200.519531 112.054688 200.40625 112.585938 C 201.316406 111.601562 203.953125 109.960938 204.9375 109.671875 C 203.355469 110.78125 201.703125 113.605469 200.761719 114.957031 L 202.289062 114.667969 C 201.425781 115.246094 199.742188 117.328125 199.332031 118.070312 C 199.808594 117.78125 200.671875 117.492188 201.117188 117.328125 C 200.441406 118.023438 198.945312 120.285156 198.511719 121.304688 C 199.023438 121.015625 199.929688 120.816406 200.363281 120.648438 C 199.464844 121.46875 198.082031 124.417969 197.605469 125.601562 C 197.957031 125.148438 199.253906 124.417969 199.621094 124.25 C 198.957031 125.113281 197.417969 128.425781 197.261719 129.289062 C 197.503906 128.714844 198.722656 127.726562 199.078125 127.316406 C 198.800781 128.09375 198.324219 130.386719 198.246094 131.09375 C 198.402344 130.675781 198.988281 130.152344 199.265625 129.820312 C 199.1875 130.929688 199.386719 133.3125 199.621094 134.207031 C 199.742188 133.023438 200.285156 131.460938 200.453125 130.730469 C 200.527344 130.941406 200.761719 131.429688 200.917969 131.636719 C 200.917969 130.730469 201.28125 128.601562 201.394531 127.828125 C 201.59375 128.148438 202.101562 128.691406 202.378906 128.933594 C 202.179688 127.992188 202.101562 125.746094 202.144531 124.882812 C 202.300781 125.203125 203.085938 125.824219 203.363281 125.898438 C 203.085938 125.203125 202.820312 123.152344 202.855469 122.378906 C 202.964844 122.789062 203.488281 123.519531 203.761719 123.730469 C 203.6875 122.621094 203.730469 120.828125 203.6875 120.085938 C 203.839844 120.574219 204.660156 121.800781 205.070312 122.089844 C 204.980469 121.269531 204.828125 118.6875 204.871094 117.914062 C 205.113281 118.324219 205.980469 118.886719 206.246094 119.144531 C 206.132812 118.246094 206.046875 115.621094 206.046875 114.96875 C 206.199219 115.421875 206.953125 116.320312 207.230469 116.605469 C 207.1875 115.453125 207.429688 113.449219 207.507812 112.597656 C 207.773438 112.886719 208.371094 113.539062 208.527344 113.871094 C 208.683594 112.152344 209.710938 110.347656 211.042969 108.707031 C 212.460938 110.183594 213.6875 113.460938 213.921875 113.75 C 214.078125 113.382812 214.277344 112.597656 214.429688 112.429688 C 214.464844 113.25 214.820312 115.386719 214.894531 115.953125 C 215.0625 115.542969 215.527344 114.679688 215.683594 114.558594 C 215.683594 115.542969 215.792969 117.183594 215.914062 117.925781 C 216.070312 117.515625 216.457031 116.863281 216.703125 116.695312 C 216.503906 117.515625 216.589844 119.730469 216.703125 120.550781 C 216.855469 120.21875 217.378906 119.519531 217.644531 119.277344 C 217.398438 120.019531 218.195312 122.644531 218.273438 123.785156 C 218.351562 123.375 218.917969 122.722656 219.136719 122.3125 C 219.136719 123.207031 219.449219 125.832031 219.527344 127.140625 C 219.691406 126.609375 220.234375 125.824219 220.523438 125.5 C 220.324219 126.6875 220.910156 128.945312 221.34375 129.964844 C 221.421875 129.390625 221.652344 128.449219 221.898438 128.082031 C 222.285156 128.867188 223.347656 131.085938 223.390625 132.304688 C 223.867188 131.117188 223.789062 128.691406 223.238281 127.183594 C 223.589844 127.472656 223.933594 127.671875 224.179688 127.761719 C 223.914062 126.699219 223.070312 124.648438 222.640625 124.28125 C 223.039062 124.484375 223.625 124.769531 223.859375 124.980469 C 223.589844 123.75 222.671875 121.703125 222.171875 120.839844 C 222.640625 120.960938 223.316406 121.082031 223.746094 121.324219 C 223.316406 120.429688 221.808594 118.335938 221.144531 117.769531 C 221.542969 117.890625 222.539062 118.214844 222.882812 118.347656 C 222.449219 117.605469 220.433594 115.84375 219.214844 115.066406 C 219.859375 114.988281 220.945312 114.988281 221.464844 114.988281 C 220.722656 114.046875 218.9375 112.773438 217.84375 112.199219 C 218.195312 112.242188 219.136719 112.441406 219.605469 112.5625 C 219.304688 111.667969 217.566406 109.9375 216.734375 109.207031 C 217.453125 109.585938 219.738281 110.726562 220.433594 111.46875 C 220.601562 110.890625 220.480469 109.539062 220.234375 108.964844 C 220.933594 109.40625 222.640625 111 222.949219 111.621094 C 223.117188 111.046875 223.117188 110.058594 223.070312 109.695312 C 224.875 110.96875 226.027344 112.476562 226.503906 113.304688 C 226.582031 112.730469 226.617188 111.378906 226.460938 110.679688 C 227.015625 111.167969 228.308594 112.6875 228.597656 113.339844 C 228.621094 112.808594 228.710938 111.945312 228.554688 111.488281 C 228.941406 111.976562 230.003906 114.113281 230.160156 114.558594 C 230.292969 114.101562 230.570312 112.675781 230.4375 112.265625 C 230.871094 112.886719 232.320312 115.046875 232.53125 115.789062 C 232.6875 115.132812 232.964844 114.101562 232.917969 113.738281 C 233.394531 114.4375 234.257812 116.929688 234.324219 117.625 C 234.523438 117.292969 234.914062 115.609375 234.847656 115 C 235.234375 115.742188 236.386719 118.734375 236.617188 119.355469 C 236.773438 118.898438 237.007812 117.546875 236.960938 117.183594 C 237.238281 117.636719 238.546875 120.871094 238.578125 121.402344 C 238.765625 120.914062 238.878906 119.6875 238.832031 119.277344 C 239.011719 120.019531 239.984375 121.988281 241.238281 123.375 C 242.355469 112.773438 231.035156 106.050781 222.007812 104.675781 Z M 222.007812 104.675781 " fill-opacity="1" fill-rule="nonzero"/><path fill="#7b4800" d="M 203.753906 173.730469 C 199.367188 173.730469 197.371094 174.539062 192.675781 174.871094 C 192.609375 156.707031 192.707031 150.371094 192.175781 150.371094 C 191.65625 150.371094 191.734375 156.714844 191.679688 174.90625 C 190.691406 174.960938 189.828125 175.027344 188.566406 175.027344 C 180.367188 175.027344 178.871094 173.71875 173.355469 173.71875 C 173.179688 175.679688 175.4375 177.628906 181.699219 178.4375 L 181.441406 180.042969 C 180.578125 180.011719 179.625 179.867188 179.140625 179.699219 C 178.785156 181.550781 183.160156 181.992188 188.554688 181.992188 C 193.949219 181.992188 198.3125 181.550781 197.957031 179.699219 C 197.472656 179.878906 196.519531 180.011719 195.65625 180.042969 L 195.398438 178.449219 C 201.667969 177.640625 203.929688 175.679688 203.753906 173.730469 Z M 194.304688 180.1875 C 192.375 180.453125 189.9375 180.453125 188.554688 180.453125 C 187.167969 180.453125 184.734375 180.453125 182.792969 180.1875 L 183.003906 178.582031 C 184.632812 178.738281 186.417969 178.847656 188.542969 178.847656 C 190.671875 178.847656 192.441406 178.738281 194.070312 178.582031 Z M 194.304688 180.1875 " fill-opacity="1" fill-rule="nonzero"/><path fill="#7b4800" d="M 212.25 107.523438 C 212.945312 127.738281 204.296875 176.464844 234.914062 191.585938 C 237.835938 192.90625 235.664062 198.421875 230.691406 195.863281 C 201.546875 179.347656 210.875 129.058594 210.355469 107.402344 Z M 212.25 107.523438 " fill-opacity="1" fill-rule="nonzero"/><path fill="#7b4800" d="M 212.09375 108.277344 C 212.09375 108.566406 212.039062 108.847656 211.925781 109.117188 C 211.816406 109.386719 211.65625 109.621094 211.449219 109.828125 C 211.246094 110.035156 211.007812 110.191406 210.738281 110.304688 C 210.472656 110.414062 210.191406 110.46875 209.898438 110.46875 C 209.609375 110.46875 209.328125 110.414062 209.0625 110.304688 C 208.792969 110.191406 208.554688 110.035156 208.347656 109.828125 C 208.144531 109.621094 207.984375 109.386719 207.875 109.117188 C 207.761719 108.847656 207.707031 108.566406 207.707031 108.277344 C 207.707031 107.984375 207.761719 107.707031 207.875 107.4375 C 207.984375 107.167969 208.144531 106.933594 208.347656 106.726562 C 208.554688 106.519531 208.792969 106.363281 209.0625 106.25 C 209.328125 106.140625 209.609375 106.082031 209.898438 106.082031 C 210.191406 106.082031 210.472656 106.140625 210.738281 106.25 C 211.007812 106.363281 211.246094 106.519531 211.449219 106.726562 C 211.65625 106.933594 211.816406 107.167969 211.925781 107.4375 C 212.039062 107.707031 212.09375 107.984375 212.09375 108.277344 Z M 212.09375 108.277344 " fill-opacity="1" fill-rule="nonzero"/><path fill="#7b4800" d="M 214.675781 107.5 C 214.675781 107.792969 214.617188 108.070312 214.507812 108.339844 C 214.394531 108.609375 214.238281 108.847656 214.03125 109.050781 C 213.828125 109.257812 213.589844 109.417969 213.320312 109.527344 C 213.050781 109.640625 212.773438 109.695312 212.480469 109.695312 C 212.191406 109.695312 211.910156 109.640625 211.640625 109.527344 C 211.375 109.417969 211.136719 109.257812 210.929688 109.050781 C 210.726562 108.847656 210.566406 108.609375 210.453125 108.339844 C 210.34375 108.070312 210.289062 107.792969 210.289062 107.5 C 210.289062 107.210938 210.34375 106.929688 210.453125 106.664062 C 210.566406 106.394531 210.726562 106.15625 210.929688 105.949219 C 211.136719 105.746094 211.375 105.585938 211.640625 105.476562 C 211.910156 105.363281 212.191406 105.308594 212.480469 105.308594 C 212.773438 105.308594 213.050781 105.363281 213.320312 105.476562 C 213.589844 105.585938 213.828125 105.746094 214.03125 105.949219 C 214.238281 106.15625 214.394531 106.394531 214.507812 106.664062 C 214.617188 106.929688 214.675781 107.210938 214.675781 107.5 Z M 214.675781 107.5 " fill-opacity="1" fill-rule="nonzero"/><path fill="#7b4800" d="M 215.78125 105.417969 C 215.78125 105.710938 215.726562 105.988281 215.617188 106.257812 C 215.503906 106.527344 215.34375 106.765625 215.140625 106.96875 C 214.933594 107.175781 214.695312 107.335938 214.429688 107.445312 C 214.160156 107.554688 213.878906 107.613281 213.589844 107.613281 C 213.296875 107.613281 213.019531 107.554688 212.75 107.445312 C 212.480469 107.335938 212.242188 107.175781 212.039062 106.96875 C 211.832031 106.765625 211.675781 106.527344 211.5625 106.257812 C 211.453125 105.988281 211.394531 105.710938 211.394531 105.417969 C 211.394531 105.128906 211.453125 104.847656 211.5625 104.578125 C 211.675781 104.3125 211.832031 104.074219 212.039062 103.867188 C 212.242188 103.664062 212.480469 103.503906 212.75 103.394531 C 213.019531 103.28125 213.296875 103.226562 213.589844 103.226562 C 213.878906 103.226562 214.160156 103.28125 214.429688 103.394531 C 214.695312 103.503906 214.933594 103.664062 215.140625 103.867188 C 215.34375 104.074219 215.503906 104.3125 215.617188 104.578125 C 215.726562 104.847656 215.78125 105.128906 215.78125 105.417969 Z M 215.78125 105.417969 " fill-opacity="1" fill-rule="nonzero"/><path fill="#7b4800" d="M 211.949219 104.722656 C 211.949219 105.011719 211.894531 105.292969 211.78125 105.558594 C 211.671875 105.828125 211.511719 106.066406 211.308594 106.273438 C 211.101562 106.476562 210.863281 106.636719 210.59375 106.746094 C 210.328125 106.859375 210.046875 106.914062 209.757812 106.914062 C 209.464844 106.914062 209.1875 106.859375 208.917969 106.746094 C 208.648438 106.636719 208.410156 106.476562 208.207031 106.273438 C 208 106.066406 207.839844 105.828125 207.730469 105.558594 C 207.617188 105.292969 207.5625 105.011719 207.5625 104.722656 C 207.5625 104.429688 207.617188 104.152344 207.730469 103.882812 C 207.839844 103.613281 208 103.375 208.207031 103.171875 C 208.410156 102.964844 208.648438 102.804688 208.917969 102.695312 C 209.1875 102.582031 209.464844 102.527344 209.757812 102.527344 C 210.046875 102.527344 210.328125 102.582031 210.59375 102.695312 C 210.863281 102.804688 211.101562 102.964844 211.308594 103.171875 C 211.511719 103.375 211.671875 103.613281 211.78125 103.882812 C 211.894531 104.152344 211.949219 104.429688 211.949219 104.722656 Z M 211.949219 104.722656 " fill-opacity="1" fill-rule="nonzero"/><path fill="#ffffff" d="M 180.832031 151.6875 C 182.714844 158.566406 180.667969 167.648438 177.289062 173.972656 C 184.535156 173.242188 196.1875 172.5 200.128906 173.972656 C 196.664062 164.800781 188.710938 153.570312 180.832031 151.6875 Z M 180.832031 151.6875 " fill-opacity="1" fill-rule="nonzero"/><path fill="#dd2e44" d="M 181.054688 139.203125 C 180.523438 137.707031 179.539062 136.789062 178.207031 136.789062 C 176.214844 136.789062 174.929688 138.828125 174.929688 141.863281 C 174.929688 144.898438 176.246094 147.011719 178.253906 146.980469 C 179.9375 146.96875 181.054688 145.773438 181.175781 143.789062 L 178.597656 143.789062 L 178.597656 141.40625 L 183.382812 141.40625 L 183.382812 149.152344 L 181.851562 149.152344 C 181.851562 148.628906 181.773438 147.921875 181.632812 147.445312 C 180.898438 148.730469 179.691406 149.460938 178.21875 149.539062 C 175.152344 149.738281 172.558594 146.347656 172.558594 141.839844 C 172.558594 137.332031 174.753906 134.351562 178.21875 134.351562 C 180.957031 134.351562 183.203125 136.402344 183.203125 139.203125 Z M 198.902344 147.058594 C 200.726562 147.058594 201.203125 145.683594 201.203125 144.398438 L 201.203125 134.363281 L 203.753906 134.363281 L 203.753906 144.367188 C 203.753906 146.824219 202.632812 149.570312 198.890625 149.570312 C 195.15625 149.570312 194.027344 146.824219 194.027344 144.367188 L 194.027344 134.363281 L 196.585938 134.363281 L 196.585938 144.398438 C 196.609375 145.695312 197.09375 147.058594 198.902344 147.058594 Z M 222.039062 143.921875 L 220.421875 143.933594 L 222.097656 137.753906 L 223.757812 143.933594 L 222.039062 143.921875 L 222.039062 146.460938 L 224.476562 146.460938 L 225.296875 149.550781 L 227.789062 149.550781 L 223.570312 134.339844 L 220.621094 134.339844 L 216.402344 149.550781 L 218.894531 149.550781 L 219.726562 146.460938 L 222.039062 146.460938 Z M 241.769531 149.550781 L 239.410156 137.964844 L 239.410156 149.550781 L 236.949219 149.550781 L 236.949219 134.339844 L 240.773438 134.339844 L 243.042969 146.003906 L 245.3125 134.339844 L 249.148438 134.339844 L 249.148438 149.550781 L 246.6875 149.550781 L 246.6875 137.964844 L 244.328125 149.550781 Z M 241.769531 149.550781 " fill-opacity="1" fill-rule="nonzero"/></svg>