<svg xmlns="http://www.w3.org/2000/svg" xmlns:xlink="http://www.w3.org/1999/xlink" width="576" zoomAndPan="magnify" viewBox="0 0 432 287.999989" height="384" preserveAspectRatio="xMidYMid meet" version="1.0"><defs><clipPath id="c53255a881"><path d="M 16.503906 0 L 415.503906 0 L 415.503906 288 L 16.503906 288 Z M 16.503906 0 " clip-rule="nonzero"/></clipPath><clipPath id="c5bd20b9ee"><path d="M 16.503906 0 L 150 0 L 150 288 L 16.503906 288 Z M 16.503906 0 " clip-rule="nonzero"/></clipPath></defs><g clip-path="url(#c53255a881)"><path fill="#ffcc00" d="M 415.394531 243.691406 C 415.394531 268.160156 395.554688 288 371.085938 288 L 60.921875 288 C 36.453125 288 16.613281 268.160156 16.613281 243.691406 L 16.613281 44.308594 C 16.613281 19.839844 36.453125 0 60.921875 0 L 371.085938 0 C 395.554688 0 415.394531 19.839844 415.394531 44.308594 Z M 415.394531 243.691406 " fill-opacity="1" fill-rule="nonzero"/></g><g clip-path="url(#c5bd20b9ee)"><path fill="#eeeeee" d="M 60.921875 0 C 36.453125 0 16.613281 19.839844 16.613281 44.308594 L 16.613281 243.691406 C 16.613281 268.160156 36.453125 288 60.921875 288 L 149.539062 288 L 149.539062 0 Z M 60.921875 0 " fill-opacity="1" fill-rule="nonzero"/></g><path fill="#0868a9" d="M 149.539062 0 L 282.46875 0 L 282.46875 288 L 149.539062 288 Z M 149.539062 0 " fill-opacity="1" fill-rule="nonzero"/><path fill="#c09b5a" d="M 249.46875 125.167969 C 246.386719 121.957031 242.667969 125.167969 241.027344 124.195312 C 239.410156 123.21875 237.304688 122.488281 237.472656 125.898438 C 237.636719 129.3125 240.230469 130.886719 241.691406 132.027344 C 243.152344 133.167969 242.34375 136.546875 242.34375 136.546875 C 242.34375 136.546875 239.910156 133.777344 238.933594 131.992188 C 237.957031 130.210938 237.148438 128.582031 235.367188 128.582031 C 233.582031 128.582031 231.800781 131.007812 232.929688 131.980469 C 234.070312 132.957031 238.125 133.929688 238.125 136.523438 C 238.125 139.113281 239.742188 141.71875 239.742188 141.71875 L 239.253906 143.5 C 239.253906 143.5 237.636719 142.691406 237.148438 141.71875 C 236.664062 140.742188 237.636719 137.664062 235.367188 137.664062 C 233.097656 137.664062 232.441406 142.691406 233.90625 143.5 C 235.367188 144.308594 239.585938 149.019531 239.585938 149.019531 C 239.585938 149.019531 241.359375 152.417969 244.117188 154.046875 C 246.875 155.664062 250.453125 159.242188 250.453125 159.242188 C 250.453125 159.242188 245.746094 162.652344 245.425781 164.757812 C 245.105469 166.851562 247.042969 167.671875 246.875 169.464844 C 246.710938 171.238281 244.617188 170.328125 242.832031 171.304688 C 241.039062 172.28125 242.867188 174.761719 242.867188 174.761719 L 247.738281 174.761719 L 250.144531 170.273438 L 250.144531 167.019531 L 255.285156 165.875 C 255.285156 165.875 254.820312 167.828125 255.792969 168.957031 C 256.769531 170.109375 260.511719 171.714844 260.511719 174.472656 C 260.511719 177.230469 259.0625 177.320312 257.433594 177.472656 C 255.816406 177.652344 255.007812 179.535156 255.007812 179.535156 L 261.34375 179.535156 C 261.34375 179.535156 263.117188 175.382812 264.101562 173.441406 C 265.066406 171.480469 264.410156 170.140625 263.28125 169.644531 C 262.140625 169.15625 261.023438 166.617188 261.34375 164.515625 C 261.34375 164.515625 263.601562 166.332031 266.207031 165.84375 C 268.796875 165.355469 271.070312 163.175781 271.234375 160.425781 C 271.402344 157.65625 271.234375 154.945312 268.644531 153.980469 C 266.050781 153.015625 266.550781 155.796875 267.503906 156.59375 C 268.476562 157.402344 268.476562 160.980469 267.179688 161.800781 C 265.882812 162.621094 263.78125 163.59375 263.125 161.324219 C 262.472656 159.054688 261.066406 155.496094 258.296875 154.523438 C 255.539062 153.546875 251.773438 147.378906 251.9375 143.003906 C 252.070312 138.640625 253.203125 129.058594 249.46875 125.167969 Z M 182.328125 125.167969 C 185.410156 121.957031 189.140625 125.167969 190.757812 124.195312 C 192.375 123.21875 194.492188 122.488281 194.324219 125.898438 C 194.160156 129.3125 191.566406 130.886719 190.117188 132.027344 C 188.652344 133.167969 189.460938 136.546875 189.460938 136.546875 C 189.460938 136.546875 191.898438 133.777344 192.875 131.992188 C 193.847656 130.210938 194.65625 128.582031 196.441406 128.582031 C 198.226562 128.582031 200.007812 131.007812 198.878906 131.980469 C 197.738281 132.957031 193.683594 133.929688 193.683594 136.523438 C 193.683594 139.113281 192.066406 141.71875 192.066406 141.71875 L 192.554688 143.5 C 192.554688 143.5 194.171875 142.691406 194.65625 141.71875 C 195.144531 140.742188 194.171875 137.664062 196.441406 137.664062 C 198.710938 137.664062 199.367188 142.691406 197.902344 143.5 C 196.441406 144.308594 192.222656 149.019531 192.222656 149.019531 C 192.222656 149.019531 190.4375 152.417969 187.679688 154.046875 C 184.921875 155.664062 181.355469 159.242188 181.355469 159.242188 C 181.355469 159.242188 186.0625 162.652344 186.382812 164.757812 C 186.703125 166.851562 184.765625 167.671875 184.921875 169.464844 C 185.085938 171.238281 187.191406 170.328125 188.976562 171.304688 C 190.757812 172.28125 190.28125 174.707031 190.28125 174.707031 L 185.398438 174.707031 L 181.675781 170.285156 L 181.675781 167.027344 L 176.625 165.886719 C 176.625 165.886719 177.046875 167.835938 176.070312 168.96875 C 175.09375 170.121094 171.328125 171.726562 171.328125 174.484375 C 171.328125 177.242188 172.769531 177.332031 174.398438 177.484375 C 176.015625 177.664062 176.8125 179.546875 176.8125 179.546875 L 170.488281 179.546875 C 170.488281 179.546875 168.691406 175.390625 167.730469 173.453125 C 166.753906 171.492188 167.398438 170.152344 168.539062 169.652344 C 169.667969 169.167969 170.808594 166.628906 170.488281 164.527344 C 170.488281 164.527344 168.214844 166.34375 165.625 165.855469 C 163.03125 165.367188 160.761719 163.183594 160.59375 160.4375 C 160.429688 157.667969 160.59375 154.953125 163.1875 153.992188 C 165.78125 153.027344 165.304688 155.808594 164.328125 156.605469 C 163.355469 157.414062 163.355469 160.992188 164.648438 161.8125 C 165.945312 162.632812 168.0625 163.605469 168.703125 161.335938 C 169.359375 159.066406 170.765625 155.507812 173.535156 154.535156 C 176.292969 153.558594 180.058594 147.390625 179.902344 143.015625 C 179.726562 138.640625 178.597656 129.058594 182.328125 125.167969 Z M 182.328125 125.167969 " fill-opacity="1" fill-rule="nonzero"/><path fill="#8c8d8f" d="M 251.738281 135.636719 C 249.378906 136.035156 245.589844 135.738281 242.820312 135.558594 C 241.847656 135.503906 241.46875 138.316406 242.167969 138.484375 C 244.339844 138.980469 250.066406 139.324219 251.859375 138.285156 C 252.535156 137.886719 252.792969 135.460938 251.738281 135.636719 Z M 251.738281 135.636719 " fill-opacity="1" fill-rule="nonzero"/><path fill="#000000" d="M 240.109375 123.71875 C 240.109375 123.71875 239.15625 125.167969 237.460938 125.425781 C 237.460938 125.425781 237.273438 124.050781 238.257812 123.519531 C 239.253906 122.988281 240.109375 123.71875 240.109375 123.71875 Z M 244.027344 126.144531 C 242.609375 125.855469 241.515625 126.707031 242.886719 127.195312 C 244.285156 127.683594 244.914062 126.320312 244.027344 126.144531 Z M 250.121094 129.46875 C 250.121094 129.46875 249.957031 134.652344 247.128906 134.574219 C 244.285156 134.496094 245.425781 130.121094 247.128906 128.25 C 247.128906 128.25 245.082031 133.453125 246.953125 133.597656 C 248.824219 133.765625 250.121094 129.46875 250.121094 129.46875 Z M 250.121094 129.46875 " fill-opacity="1" fill-rule="nonzero"/><path fill="#8c8d8f" d="M 180.046875 135.636719 C 182.40625 136.035156 186.195312 135.738281 188.976562 135.558594 C 189.949219 135.503906 190.328125 138.316406 189.617188 138.484375 C 187.445312 138.980469 181.730469 139.324219 179.925781 138.285156 C 179.25 137.886719 178.996094 135.460938 180.046875 135.636719 Z M 180.046875 135.636719 " fill-opacity="1" fill-rule="nonzero"/><path fill="#000000" d="M 191.6875 123.71875 C 191.6875 123.71875 192.628906 125.167969 194.335938 125.425781 C 194.335938 125.425781 194.523438 124.050781 193.539062 123.519531 C 192.542969 122.988281 191.6875 123.71875 191.6875 123.71875 Z M 187.757812 126.144531 C 189.1875 125.855469 190.269531 126.707031 188.898438 127.195312 C 187.511719 127.683594 186.871094 126.320312 187.757812 126.144531 Z M 181.675781 129.46875 C 181.675781 129.46875 181.839844 134.652344 184.675781 134.574219 C 187.511719 134.496094 186.382812 130.121094 184.675781 128.25 C 184.675781 128.25 186.714844 133.453125 184.84375 133.597656 C 182.960938 133.765625 181.675781 129.46875 181.675781 129.46875 Z M 181.675781 129.46875 " fill-opacity="1" fill-rule="nonzero"/><path fill="#ebd11b" d="M 224.390625 112.296875 C 224.390625 112.296875 221.109375 109.140625 217.566406 109.949219 L 216.800781 109.441406 L 216.867188 105.972656 L 215.25 105.972656 L 215.328125 109.441406 L 214.5625 109.949219 C 211.03125 109.152344 207.738281 112.296875 207.738281 112.296875 C 202.476562 110.191406 197.40625 113.660156 197.40625 117.660156 C 197.40625 121.65625 200.441406 123.464844 201.082031 124.160156 C 201.734375 124.871094 205.226562 133.542969 205.226562 133.542969 L 226.882812 133.542969 C 226.882812 133.542969 230.382812 124.871094 231.035156 124.160156 C 231.6875 123.464844 234.714844 121.648438 234.714844 117.660156 C 234.722656 113.660156 229.652344 110.183594 224.390625 112.296875 Z M 224.390625 112.296875 " fill-opacity="1" fill-rule="nonzero"/><path fill="#be1827" d="M 213.953125 115.765625 L 213.953125 118.355469 L 212.148438 120.371094 C 212.148438 120.371094 210.398438 120.527344 209.589844 119.929688 C 208.792969 119.320312 208.082031 117.871094 208.082031 117.871094 C 208.082031 117.871094 209.933594 116.617188 211.019531 116.308594 C 212.105469 116.007812 213.953125 115.765625 213.953125 115.765625 Z M 207.441406 118.722656 C 207.441406 118.722656 207.140625 120.828125 205.582031 121.382812 C 204.027344 121.933594 202.476562 121.679688 202.476562 121.679688 C 202.476562 121.679688 202.878906 120.582031 204.171875 119.675781 C 205.480469 118.777344 207.441406 118.722656 207.441406 118.722656 Z M 207.441406 118.722656 " fill-opacity="1" fill-rule="nonzero"/><path fill="#0868a9" d="M 210.542969 113.503906 C 212.160156 113.117188 213.953125 113.503906 213.953125 113.503906 C 213.953125 113.503906 213.921875 115.796875 211.804688 116.128906 C 209.699219 116.460938 208.847656 115.511719 208.847656 115.511719 C 208.847656 115.511719 209.289062 113.804688 210.542969 113.503906 Z M 200.539062 117.871094 C 199.964844 115.101562 203.773438 114.082031 205.679688 116.195312 C 205.679688 116.195312 206.054688 119.066406 203.820312 119.941406 C 201.570312 120.828125 200.773438 118.964844 200.539062 117.871094 Z M 205.714844 114.003906 C 206.1875 112.941406 208.339844 113.914062 207.695312 115.054688 C 207.03125 116.21875 204.882812 115.820312 205.714844 114.003906 Z M 205.714844 114.003906 " fill-opacity="1" fill-rule="nonzero"/><path fill="#0868a9" d="M 206.167969 116.71875 C 207.175781 115.664062 208.683594 117.757812 207.441406 118.3125 C 206.1875 118.878906 205.390625 117.515625 206.167969 116.71875 Z M 206.167969 116.71875 " fill-opacity="1" fill-rule="nonzero"/><path fill="#be1827" d="M 217.855469 115.765625 L 217.855469 118.355469 L 219.8125 120.371094 C 219.8125 120.371094 221.652344 120.527344 222.449219 119.929688 C 223.25 119.320312 223.992188 117.871094 223.992188 117.871094 C 223.992188 117.871094 221.996094 116.617188 220.921875 116.308594 C 219.847656 116.007812 217.855469 115.765625 217.855469 115.765625 Z M 224.6875 118.722656 C 224.6875 118.722656 224.988281 120.828125 226.539062 121.382812 C 228.101562 121.933594 229.652344 121.679688 229.652344 121.679688 C 229.652344 121.679688 229.253906 120.582031 227.945312 119.675781 C 226.648438 118.777344 224.6875 118.722656 224.6875 118.722656 Z M 224.6875 118.722656 " fill-opacity="1" fill-rule="nonzero"/><path fill="#0868a9" d="M 221.574219 113.503906 C 219.96875 113.117188 218.175781 113.503906 218.175781 113.503906 C 218.175781 113.503906 218.207031 115.796875 220.324219 116.128906 C 222.429688 116.460938 223.292969 115.511719 223.292969 115.511719 C 223.292969 115.511719 222.839844 113.804688 221.574219 113.503906 Z M 231.578125 117.871094 C 232.15625 115.101562 228.34375 114.082031 226.4375 116.195312 C 226.4375 116.195312 226.0625 119.066406 228.3125 119.941406 C 230.546875 120.828125 231.355469 118.964844 231.578125 117.871094 Z M 226.417969 114.003906 C 225.929688 112.941406 223.792969 113.914062 224.433594 115.054688 C 225.085938 116.21875 227.257812 115.820312 226.417969 114.003906 Z M 226.417969 114.003906 " fill-opacity="1" fill-rule="nonzero"/><path fill="#0868a9" d="M 225.949219 116.71875 C 224.953125 115.664062 223.449219 117.757812 224.6875 118.3125 C 225.929688 118.878906 226.726562 117.515625 225.949219 116.71875 Z M 225.949219 116.71875 " fill-opacity="1" fill-rule="nonzero"/><path fill="#be1827" d="M 205.238281 131.992188 C 205.238281 129.933594 210.011719 128.257812 215.902344 128.257812 C 221.796875 128.257812 226.570312 129.933594 226.570312 131.992188 C 226.570312 134.054688 221.796875 135.726562 215.902344 135.726562 C 210 135.714844 205.238281 134.042969 205.238281 131.992188 Z M 205.238281 131.992188 " fill-opacity="1" fill-rule="nonzero"/><path fill="#020202" d="M 215.992188 131.304688 L 195.234375 131.304688 L 195.234375 165.234375 C 195.234375 178.605469 216.003906 178.605469 216.003906 178.605469 C 216.003906 178.605469 236.539062 178.605469 236.539062 165.234375 L 236.539062 131.304688 Z M 215.992188 131.304688 " fill-opacity="1" fill-rule="nonzero"/><path fill="#4c86c7" d="M 215.980469 133.554688 L 197.582031 133.554688 L 197.582031 165.246094 C 197.582031 176.265625 215.980469 176.101562 215.980469 176.101562 C 215.980469 176.101562 234.382812 176.265625 234.382812 165.246094 L 234.382812 133.554688 Z M 215.980469 133.554688 " fill-opacity="1" fill-rule="nonzero"/><path fill="#a5a7a9" d="M 242.191406 107.867188 C 244.871094 106.890625 247.0625 103.214844 247.0625 103.214844 C 247.0625 103.214844 242.746094 103.757812 240.03125 103.214844 C 237.316406 102.671875 235.300781 100.722656 235.300781 100.722656 C 237.261719 97.265625 234.046875 95.171875 227.890625 94.441406 C 223.125 93.886719 215.96875 93.6875 215.96875 93.6875 C 215.96875 93.6875 208.691406 93.886719 203.917969 94.441406 C 197.769531 95.160156 194.492188 97.253906 196.441406 100.722656 C 196.441406 100.722656 194.390625 102.671875 191.679688 103.214844 C 188.964844 103.757812 184.644531 103.214844 184.644531 103.214844 C 184.644531 103.214844 186.816406 106.890625 189.507812 107.867188 C 189.507812 107.867188 188.742188 110.359375 185.386719 110.890625 C 185.386719 110.890625 192.421875 112.078125 197.492188 109.925781 C 202.578125 107.765625 205.390625 105.929688 206.144531 105.164062 C 206.910156 104.410156 204.140625 102.683594 206.1875 102.460938 C 208.25 102.25 215.960938 102.03125 215.960938 102.03125 C 215.960938 102.03125 223.546875 102.25 225.609375 102.460938 C 227.667969 102.683594 224.753906 104.410156 225.519531 105.164062 C 226.273438 105.917969 229.085938 107.757812 234.171875 109.925781 C 239.253906 112.085938 246.277344 110.890625 246.277344 110.890625 C 242.953125 110.359375 242.191406 107.867188 242.191406 107.867188 Z M 242.191406 107.867188 " fill-opacity="1" fill-rule="nonzero"/><path fill="#ffffff" d="M 222.171875 172.214844 L 209.632812 172.214844 L 215.902344 165.933594 Z M 213.089844 151.453125 L 200.539062 151.453125 L 206.820312 145.175781 Z M 213.089844 141.71875 L 200.539062 141.71875 L 206.820312 135.449219 Z M 213.089844 161.824219 L 200.539062 161.824219 L 206.820312 155.5625 Z M 230.605469 151.453125 L 218.0625 151.453125 L 224.332031 145.175781 Z M 230.605469 141.71875 L 218.0625 141.71875 L 224.332031 135.449219 Z M 230.605469 161.824219 L 218.0625 161.824219 L 224.332031 155.5625 Z M 230.605469 161.824219 " fill-opacity="1" fill-rule="nonzero"/></svg>