<svg xmlns="http://www.w3.org/2000/svg" xmlns:xlink="http://www.w3.org/1999/xlink" width="576" zoomAndPan="magnify" viewBox="0 0 432 287.999989" height="384" preserveAspectRatio="xMidYMid meet" version="1.0"><defs><clipPath id="e141f1536e"><path d="M 16.503906 0 L 415.503906 0 L 415.503906 288 L 16.503906 288 Z M 16.503906 0 " clip-rule="nonzero"/></clipPath></defs><g clip-path="url(#e141f1536e)"><path fill="#cf1b2b" d="M 415.394531 243.691406 C 415.394531 268.160156 395.554688 288 371.085938 288 L 60.921875 288 C 36.453125 288 16.613281 268.160156 16.613281 243.691406 L 16.613281 44.308594 C 16.613281 19.839844 36.453125 0 60.921875 0 L 371.085938 0 C 395.554688 0 415.394531 19.839844 415.394531 44.308594 Z M 415.394531 243.691406 " fill-opacity="1" fill-rule="nonzero"/></g><path fill="#f8dc15" d="M 227.28125 128.214844 C 227.28125 129.222656 227.183594 130.21875 226.984375 131.203125 C 226.789062 132.191406 226.5 133.148438 226.113281 134.078125 C 225.730469 135.007812 225.257812 135.890625 224.699219 136.726562 C 224.140625 137.5625 223.503906 138.335938 222.792969 139.046875 C 222.082031 139.757812 221.308594 140.394531 220.472656 140.953125 C 219.636719 141.511719 218.753906 141.984375 217.824219 142.367188 C 216.894531 142.753906 215.9375 143.042969 214.949219 143.242188 C 213.960938 143.4375 212.964844 143.535156 211.960938 143.535156 C 210.953125 143.535156 209.957031 143.4375 208.972656 143.242188 C 207.984375 143.042969 207.027344 142.753906 206.097656 142.367188 C 205.167969 141.984375 204.285156 141.511719 203.449219 140.953125 C 202.613281 140.394531 201.839844 139.757812 201.128906 139.046875 C 200.417969 138.335938 199.78125 137.5625 199.222656 136.726562 C 198.664062 135.890625 198.191406 135.007812 197.808594 134.078125 C 197.421875 133.148438 197.132812 132.191406 196.933594 131.203125 C 196.738281 130.21875 196.640625 129.222656 196.640625 128.214844 C 196.640625 127.210938 196.738281 126.214844 196.933594 125.226562 C 197.132812 124.238281 197.421875 123.28125 197.808594 122.351562 C 198.191406 121.421875 198.664062 120.539062 199.222656 119.703125 C 199.78125 118.867188 200.417969 118.09375 201.128906 117.382812 C 201.839844 116.671875 202.613281 116.035156 203.449219 115.476562 C 204.285156 114.917969 205.167969 114.445312 206.097656 114.0625 C 207.027344 113.675781 207.984375 113.386719 208.972656 113.191406 C 209.957031 112.992188 210.953125 112.894531 211.960938 112.894531 C 212.964844 112.894531 213.960938 112.992188 214.949219 113.191406 C 215.9375 113.386719 216.894531 113.675781 217.824219 114.0625 C 218.753906 114.445312 219.636719 114.917969 220.472656 115.476562 C 221.308594 116.035156 222.082031 116.671875 222.792969 117.382812 C 223.503906 118.09375 224.140625 118.867188 224.699219 119.703125 C 225.257812 120.539062 225.730469 121.421875 226.113281 122.351562 C 226.5 123.28125 226.789062 124.238281 226.984375 125.226562 C 227.183594 126.214844 227.28125 127.210938 227.28125 128.214844 Z M 227.28125 128.214844 " fill-opacity="1" fill-rule="nonzero"/><path fill="#f8dc15" d="M 227.28125 136.421875 C 227.28125 137.429688 227.183594 138.425781 226.984375 139.410156 C 226.789062 140.398438 226.5 141.355469 226.113281 142.285156 C 225.730469 143.214844 225.257812 144.097656 224.699219 144.933594 C 224.140625 145.769531 223.503906 146.542969 222.792969 147.253906 C 222.082031 147.96875 221.308594 148.601562 220.472656 149.160156 C 219.636719 149.71875 218.753906 150.191406 217.824219 150.578125 C 216.894531 150.960938 215.9375 151.253906 214.949219 151.449219 C 213.960938 151.644531 212.964844 151.742188 211.960938 151.742188 C 210.953125 151.742188 209.957031 151.644531 208.972656 151.449219 C 207.984375 151.253906 207.027344 150.960938 206.097656 150.578125 C 205.167969 150.191406 204.285156 149.71875 203.449219 149.160156 C 202.613281 148.601562 201.839844 147.96875 201.128906 147.253906 C 200.417969 146.542969 199.78125 145.769531 199.222656 144.933594 C 198.664062 144.097656 198.191406 143.214844 197.808594 142.285156 C 197.421875 141.355469 197.132812 140.398438 196.933594 139.410156 C 196.738281 138.425781 196.640625 137.429688 196.640625 136.421875 C 196.640625 135.417969 196.738281 134.421875 196.933594 133.433594 C 197.132812 132.449219 197.421875 131.488281 197.808594 130.5625 C 198.191406 129.632812 198.664062 128.75 199.222656 127.914062 C 199.78125 127.074219 200.417969 126.300781 201.128906 125.589844 C 201.839844 124.878906 202.613281 124.246094 203.449219 123.6875 C 204.285156 123.125 205.167969 122.65625 206.097656 122.269531 C 207.027344 121.886719 207.984375 121.59375 208.972656 121.398438 C 209.957031 121.203125 210.953125 121.105469 211.960938 121.105469 C 212.964844 121.105469 213.960938 121.203125 214.949219 121.398438 C 215.9375 121.59375 216.894531 121.886719 217.824219 122.269531 C 218.753906 122.65625 219.636719 123.125 220.472656 123.6875 C 221.308594 124.246094 222.082031 124.878906 222.792969 125.589844 C 223.503906 126.300781 224.140625 127.074219 224.699219 127.914062 C 225.257812 128.75 225.730469 129.632812 226.113281 130.5625 C 226.5 131.488281 226.789062 132.449219 226.984375 133.433594 C 227.183594 134.421875 227.28125 135.417969 227.28125 136.421875 Z M 227.28125 136.421875 " fill-opacity="1" fill-rule="nonzero"/><path fill="#ffffff" d="M 125.8125 78.757812 C 130.320312 76.496094 140.546875 95.859375 148.621094 95.382812 C 156.695312 94.90625 177.597656 79.445312 189.007812 78.378906 C 189.007812 78.378906 189.007812 73.515625 198.511719 73.515625 C 208.015625 73.515625 209.433594 78.28125 210.386719 84.449219 C 210.386719 84.449219 217.976562 96.324219 221.308594 105.351562 C 224.644531 114.378906 224.644531 120.5625 224.644531 120.5625 C 224.644531 120.5625 217.511719 127.683594 213.234375 128.160156 C 208.957031 128.636719 197.082031 124.359375 197.082031 124.359375 C 197.082031 124.359375 194.714844 106.347656 193.761719 100.867188 L 190.4375 97.277344 C 190.4375 97.277344 185.695312 102.503906 177.132812 103.933594 C 168.570312 105.363281 155.277344 104.875 150.527344 105.828125 C 145.773438 106.78125 146.25 112.960938 141.972656 112.484375 C 137.699219 112.011719 141.03125 102.503906 133.421875 97.277344 C 125.8125 92.058594 120.109375 81.605469 125.8125 78.757812 Z M 209.589844 234.71875 C 205.378906 231.929688 217.035156 213.386719 212.59375 206.640625 C 208.140625 199.894531 184.289062 189.527344 177.664062 180.175781 C 177.664062 180.175781 173.46875 182.601562 168.714844 174.363281 C 163.960938 166.144531 167.375 162.53125 172.238281 158.609375 C 172.238281 158.609375 178.71875 146.105469 184.886719 138.707031 C 191.035156 131.304688 196.386719 128.214844 196.386719 128.214844 C 196.386719 128.214844 206.121094 130.828125 208.671875 134.285156 C 211.21875 137.742188 213.457031 150.191406 213.457031 150.191406 C 213.457031 150.191406 199.042969 161.234375 194.769531 164.8125 L 193.316406 169.488281 C 193.316406 169.488281 200.21875 170.984375 205.722656 177.683594 C 211.25 184.375 217.476562 196.140625 220.679688 199.773438 C 223.878906 203.40625 228.984375 199.90625 230.726562 203.859375 C 232.453125 207.769531 222.550781 209.652344 221.832031 218.847656 C 221.109375 228.050781 214.90625 238.21875 209.589844 234.71875 Z M 302.25 84.90625 C 301.953125 89.945312 280.0625 89.113281 276.441406 96.335938 C 272.820312 103.570312 275.753906 129.402344 270.992188 139.8125 C 270.992188 139.8125 275.191406 142.226562 270.425781 150.457031 C 265.675781 158.6875 260.84375 157.535156 255.027344 155.289062 C 255.027344 155.289062 240.949219 155.929688 231.457031 154.289062 C 221.972656 152.671875 216.636719 149.582031 216.636719 149.582031 C 216.636719 149.582031 214.03125 139.847656 215.738281 135.902344 C 217.464844 131.96875 227.113281 123.808594 227.113281 123.808594 C 227.113281 123.808594 243.90625 130.761719 249.125 132.679688 L 253.910156 131.605469 C 253.910156 131.605469 251.738281 124.871094 254.796875 116.75 C 257.820312 108.621094 264.898438 97.355469 266.449219 92.757812 C 268 88.160156 262.429688 85.492188 264.964844 82.011719 C 267.5 78.546875 274.070312 86.191406 282.390625 82.214844 C 290.730469 78.246094 302.640625 78.558594 302.25 84.90625 Z M 302.25 84.90625 " fill-opacity="1" fill-rule="nonzero"/><path fill="#f8dc15" d="M 145.417969 109.574219 L 149.585938 113.195312 L 154.914062 111.820312 L 152.753906 116.894531 L 155.699219 121.535156 L 150.214844 121.046875 L 146.695312 125.292969 L 145.464844 119.917969 L 140.347656 117.890625 L 145.085938 115.066406 Z M 226.484375 202.332031 L 227.535156 196.890625 L 223.679688 192.960938 L 229.152344 192.304688 L 231.699219 187.421875 L 234.015625 192.4375 L 239.453125 193.347656 L 235.421875 197.113281 L 236.207031 202.542969 L 231.414062 199.859375 Z M 265.761719 86.464844 L 260.546875 88.273438 L 259.070312 93.578125 L 255.761719 89.167969 L 250.253906 89.402344 L 253.433594 84.90625 L 251.507812 79.730469 L 256.769531 81.335938 L 261.089844 77.925781 L 261.164062 83.441406 Z M 265.761719 86.464844 " fill-opacity="1" fill-rule="nonzero"/></svg>