<svg xmlns="http://www.w3.org/2000/svg" xmlns:xlink="http://www.w3.org/1999/xlink" width="576" zoomAndPan="magnify" viewBox="0 0 432 287.999989" height="384" preserveAspectRatio="xMidYMid meet" version="1.0"><defs><clipPath id="91bf3b66a9"><path d="M 16.503906 0 L 415.503906 0 L 415.503906 288 L 16.503906 288 Z M 16.503906 0 " clip-rule="nonzero"/></clipPath></defs><g clip-path="url(#91bf3b66a9)"><path fill="#eeeeee" d="M 415.394531 243.691406 C 415.394531 268.160156 395.554688 288 371.085938 288 L 60.921875 288 C 36.453125 288 16.613281 268.160156 16.613281 243.691406 L 16.613281 44.308594 C 16.613281 19.839844 36.453125 0 60.921875 0 L 371.085938 0 C 395.554688 0 415.394531 19.839844 415.394531 44.308594 Z M 415.394531 243.691406 " fill-opacity="1" fill-rule="nonzero"/></g><path fill="#d52048" d="M 51.90625 0.929688 C 38.96875 3.609375 28.265625 12.03125 22.140625 23.304688 L 185.941406 144 L 22.140625 264.695312 C 28.265625 275.980469 38.96875 284.390625 51.90625 287.082031 L 216.003906 166.152344 L 380.101562 287.070312 C 393.039062 284.390625 403.753906 275.96875 409.878906 264.683594 L 246.066406 144 L 409.878906 23.304688 C 403.753906 12.03125 393.039062 3.609375 380.101562 0.929688 L 216.003906 121.847656 Z M 51.90625 0.929688 " fill-opacity="1" fill-rule="nonzero"/><path fill="#ffcc4d" d="M 244.039062 22.152344 C 242.179688 22.875 241.226562 26.195312 241.226562 26.195312 C 241.226562 26.195312 239.566406 22.441406 234.523438 24.890625 C 234.523438 24.890625 237.273438 27.636719 236.683594 29.941406 C 236.097656 32.257812 234.503906 33.273438 231.777344 32.898438 C 228.597656 32.464844 228.011719 28.789062 228.011719 28.789062 C 228.011719 28.789062 229.984375 28.421875 230.195312 26.761719 C 230.328125 25.753906 229.828125 24.304688 228.101562 24.167969 C 226.78125 24.058594 225.496094 24.890625 225.496094 26.472656 C 225.496094 27.636719 226.949219 28.632812 226.949219 28.632812 C 226.949219 28.632812 225.796875 31.113281 223.183594 31.238281 C 219.871094 31.382812 218.394531 29.507812 218.351562 26.328125 C 218.273438 21.777344 224.125 21.710938 224.125 21.710938 C 224.125 21.710938 223.613281 19.472656 221.597656 18.320312 C 219.582031 17.167969 217.699219 18.753906 217.699219 18.753906 C 217.699219 18.753906 219.136719 15.507812 218.707031 13.257812 C 218.328125 11.34375 216.890625 9.425781 216.371094 8.796875 L 216.371094 8.585938 L 216.28125 8.695312 L 216.191406 8.585938 L 216.191406 8.816406 C 215.671875 9.449219 214.21875 11.355469 213.855469 13.28125 C 213.421875 15.519531 214.863281 18.773438 214.863281 18.773438 C 214.863281 18.773438 212.992188 17.179688 210.964844 18.34375 C 208.9375 19.496094 208.425781 21.734375 208.425781 21.734375 C 208.425781 21.734375 214.277344 21.800781 214.199219 26.351562 C 214.152344 29.53125 212.679688 31.402344 209.355469 31.257812 C 206.753906 31.136719 205.601562 28.65625 205.601562 28.65625 C 205.601562 28.65625 207.042969 27.660156 207.042969 26.496094 C 207.042969 24.902344 205.757812 24.082031 204.449219 24.191406 C 202.722656 24.335938 202.222656 25.777344 202.355469 26.785156 C 202.578125 28.445312 204.527344 28.8125 204.527344 28.8125 C 204.527344 28.8125 203.953125 32.5 200.773438 32.921875 C 198.035156 33.296875 196.441406 32.277344 195.867188 29.964844 C 195.289062 27.660156 198.023438 24.910156 198.023438 24.910156 C 192.972656 22.453125 191.324219 26.21875 191.324219 26.21875 C 191.324219 26.21875 190.382812 22.875 188.519531 22.152344 C 186.636719 21.433594 184.765625 21.722656 184.765625 21.722656 C 184.765625 21.722656 188.234375 27.214844 190.539062 32.542969 C 192.851562 37.882812 193.714844 43.378906 193.714844 43.378906 C 193.714844 43.378906 197.660156 40.609375 204.105469 39.046875 C 209.089844 37.839844 215.449219 37.75 216.292969 37.738281 C 217.121094 37.75 223.480469 37.828125 228.453125 39.046875 C 234.921875 40.617188 238.867188 43.378906 238.867188 43.378906 C 238.867188 43.378906 239.730469 37.882812 242.046875 32.542969 C 244.363281 27.214844 247.816406 21.722656 247.816406 21.722656 C 247.816406 21.722656 245.921875 21.433594 244.039062 22.152344 Z M 244.039062 22.152344 " fill-opacity="1" fill-rule="nonzero"/><path fill="#dd2e44" d="M 238.84375 43.378906 C 238.84375 43.378906 233.5625 39.910156 228.023438 38.679688 C 222.847656 37.539062 217.054688 37.527344 216.269531 37.527344 C 215.484375 37.527344 209.691406 37.539062 204.527344 38.679688 C 198.96875 39.910156 193.707031 43.378906 193.707031 43.378906 C 193.707031 43.378906 189.175781 60.214844 191.832031 72.464844 C 197.074219 96.679688 214.21875 106.648438 216.191406 107.734375 L 216.191406 107.84375 L 216.28125 107.800781 L 216.371094 107.84375 L 216.371094 107.734375 C 218.339844 106.660156 235.5 96.679688 240.726562 72.464844 C 243.398438 60.214844 238.84375 43.378906 238.84375 43.378906 Z M 238.84375 43.378906 " fill-opacity="1" fill-rule="nonzero"/><path fill="#231f20" d="M 216.203125 107.855469 L 216.160156 107.722656 C 214.230469 106.683594 197.039062 96.667969 191.800781 72.464844 C 189.175781 60.347656 193.640625 43.53125 193.671875 43.367188 C 193.738281 43.3125 199.023438 39.867188 204.515625 38.648438 C 209.378906 37.574219 214.742188 37.496094 216.269531 37.496094 C 217.796875 37.496094 223.160156 37.574219 228.035156 38.648438 C 233.503906 39.867188 238.800781 43.3125 238.855469 43.34375 L 238.867188 43.355469 C 238.921875 43.519531 243.386719 60.335938 240.75 72.453125 C 235.523438 96.65625 218.328125 106.671875 216.378906 107.734375 L 216.390625 107.824219 C 216.359375 107.84375 216.3125 107.824219 216.257812 107.800781 Z M 216.269531 107.765625 L 216.390625 107.824219 L 216.347656 107.734375 C 218.308594 106.648438 235.476562 96.644531 240.71875 72.464844 C 243.308594 60.480469 238.96875 43.886719 238.832031 43.398438 C 238.589844 43.246094 233.40625 39.910156 228.023438 38.714844 C 223.160156 37.640625 217.808594 37.5625 216.28125 37.5625 C 214.753906 37.5625 209.402344 37.640625 204.539062 38.714844 C 199.042969 39.921875 193.773438 43.367188 193.714844 43.398438 C 193.683594 43.554688 189.230469 60.359375 191.855469 72.464844 C 197.082031 96.644531 214.253906 106.648438 216.191406 107.710938 L 216.203125 107.800781 Z M 216.269531 107.765625 " fill-opacity="1" fill-rule="nonzero"/><path fill="#ffcc4d" d="M 231.578125 43.445312 C 231.578125 43.445312 230.558594 44.816406 227.027344 44.816406 C 223.492188 44.816406 225.066406 44.351562 222.261719 44.351562 C 219.4375 44.351562 218.21875 45.070312 218.21875 45.9375 C 218.21875 46.800781 219.226562 47.34375 222.992188 47.34375 C 226.738281 47.34375 228.121094 46.402344 231.144531 46.402344 C 234.171875 46.402344 235.324219 47.488281 235.324219 48.859375 C 235.324219 50.234375 233.371094 52.757812 230.261719 51.960938 C 230.261719 51.960938 232.441406 53.035156 234.757812 52.890625 C 237.050781 52.757812 239 52.328125 239.15625 52.835938 C 239.308594 53.335938 240.242188 56.003906 240.109375 57.457031 C 239.886719 59.695312 237.0625 60.480469 235.910156 60.347656 C 234.757812 60.203125 233.25 61.289062 232.820312 61.785156 L 233.097656 60.269531 L 231.933594 60.703125 L 232.585938 58.828125 L 231.15625 58.828125 C 231.15625 58.828125 231.867188 57.378906 233.019531 57.378906 C 234.179688 57.378906 236.785156 57.667969 236.941406 56.878906 C 237.074219 56.09375 236.207031 55.007812 234.558594 55.074219 C 232.898438 55.140625 229.707031 56.082031 227.769531 55.574219 C 227.769531 55.574219 227.125 56.503906 227.703125 57.234375 C 228.265625 57.953125 229.128906 58.828125 228.699219 59.328125 C 228.265625 59.828125 227.179688 59.828125 226.183594 59.761719 C 225.164062 59.695312 221.699219 59.96875 220.480469 60.414062 C 219.25 60.84375 218.097656 61.5 218.097656 61.5 L 218.671875 59.835938 C 218.671875 59.835938 217.519531 59.472656 216.945312 59.980469 C 216.945312 59.980469 217.167969 58.90625 218.097656 58.683594 L 217.011719 58.398438 C 217.011719 58.398438 217.453125 57.101562 219.039062 57.246094 C 220.621094 57.390625 221.34375 57.742188 221.851562 57.167969 C 222.363281 56.59375 220.621094 55.441406 220.621094 55.441406 C 220.621094 55.441406 219.328125 55.949219 216.445312 56.382812 C 213.554688 56.824219 211.683594 56.667969 211.683594 56.667969 C 211.683594 56.667969 211.316406 59.703125 206.699219 60.203125 C 202.078125 60.703125 199.777344 58.542969 198.691406 58.109375 C 197.605469 57.675781 196.085938 58.042969 196.085938 58.042969 L 196.808594 56.667969 L 195.066406 57.035156 C 195.066406 57.035156 194.957031 55.375 196.152344 55.308594 L 194.570312 54.875 C 194.570312 54.875 195.722656 53.5 197.304688 53.867188 C 198.902344 54.222656 199.710938 55.574219 201.203125 56.316406 C 203.664062 57.542969 209.367188 56.679688 205.113281 55.816406 C 204.117188 55.617188 203.421875 54.664062 203.421875 54.664062 C 203.421875 54.664062 200.707031 55.242188 198.613281 51.996094 C 197.183594 49.769531 196.519531 47.953125 193.914062 48.460938 C 193.914062 48.460938 195.144531 46.878906 196.519531 47.375 C 196.519531 47.375 195.722656 46.367188 194.503906 46.433594 C 194.503906 46.433594 195.078125 44.996094 196.808594 45.503906 C 196.808594 45.503906 195.867188 44.640625 195 44.707031 C 195 44.707031 195.5 43.1875 197.816406 44.484375 C 200.109375 45.746094 198.722656 46.84375 199.167969 47.628906 C 199.453125 48.128906 200.085938 49.015625 201.625 50.378906 C 204.230469 52.683594 205.445312 53.269531 204.648438 50.921875 C 203.785156 50.34375 203.277344 48.859375 203.066406 48.140625 C 202.84375 47.421875 201.625 45.691406 201.980469 45.25 C 202.34375 44.816406 203.421875 45.613281 203.421875 45.613281 C 203.421875 45.613281 204.792969 45.027344 206.664062 45.027344 C 208.539062 45.027344 209.257812 45.890625 209.257812 45.890625 C 209.257812 45.890625 210.554688 44.882812 210.773438 45.394531 C 210.984375 45.890625 210.054688 46.699219 209.625 47.5625 C 209.191406 48.429688 209.691406 49.4375 209.691406 49.4375 C 209.691406 49.4375 210.953125 51.085938 213.554688 51.164062 C 216.148438 51.230469 220.015625 50.796875 221.386719 50.511719 C 222.75 50.222656 225.132812 49.746094 226.726562 50.046875 C 228.320312 50.332031 232.796875 50.222656 232.652344 49.070312 C 232.496094 47.917969 231.421875 47.554688 229.195312 47.839844 C 226.949219 48.128906 225.007812 48.847656 220.890625 48.5625 C 216.769531 48.273438 216.359375 46.179688 216.625 45.160156 C 216.988281 43.785156 219.304688 42.957031 221.464844 42.957031 C 223.636719 42.957031 226.351562 43.863281 227.921875 43.863281 C 229.527344 43.886719 231.578125 43.445312 231.578125 43.445312 Z M 231.578125 43.445312 " fill-opacity="1" fill-rule="nonzero"/><path fill="#dd2e44" d="M 204.871094 49.757812 C 204.871094 49.757812 205.734375 50.167969 206.246094 50.125 C 206.753906 50.078125 207.652344 49.625 207.652344 49.625 C 207.652344 49.625 207.363281 50.167969 207.363281 50.664062 C 207.363281 51.164062 207.253906 51.683594 206.390625 51.707031 C 205.09375 51.742188 205.269531 50.910156 205.203125 50.554688 C 205.125 50.199219 204.871094 49.757812 204.871094 49.757812 Z M 204.871094 49.757812 " fill-opacity="1" fill-rule="nonzero"/><path fill="#11429a" d="M 207.03125 54.421875 C 207.03125 54.773438 206.742188 55.074219 206.378906 55.074219 L 206.234375 55.074219 C 205.878906 55.074219 205.589844 54.773438 205.589844 54.421875 L 205.589844 51.605469 C 205.589844 51.253906 205.878906 50.953125 206.234375 50.953125 L 206.378906 50.953125 C 206.742188 50.953125 207.03125 51.242188 207.03125 51.605469 Z M 195.632812 54.042969 C 194.957031 54.367188 194.546875 54.851562 194.546875 54.851562 L 196.132812 55.285156 C 194.933594 55.351562 195.046875 57.011719 195.046875 57.011719 L 196.761719 56.648438 Z M 232.34375 57.554688 C 231.589844 57.945312 231.15625 58.828125 231.15625 58.828125 L 232.585938 58.828125 L 231.933594 60.703125 L 233.097656 60.269531 L 232.820312 61.785156 C 233.019531 61.53125 233.503906 61.144531 234.070312 60.835938 Z M 219.128906 60.957031 L 217.941406 57.390625 C 217.222656 57.710938 217 58.375 217 58.375 L 218.085938 58.664062 C 217.144531 58.875 216.933594 59.960938 216.933594 59.960938 C 217.511719 59.460938 218.664062 59.816406 218.664062 59.816406 L 218.085938 61.476562 C 218.085938 61.488281 218.507812 61.246094 219.128906 60.957031 Z M 194.980469 44.671875 C 195.476562 44.628906 196.019531 44.90625 196.363281 45.148438 L 196.5625 43.976562 C 195.300781 43.730469 194.980469 44.671875 194.980469 44.671875 Z M 196.773438 56.667969 L 196.066406 58.03125 C 196.066406 58.03125 196.628906 57.898438 197.304688 57.886719 Z M 196.074219 46.945312 L 196.332031 45.382812 C 194.945312 45.214844 194.46875 46.402344 194.46875 46.402344 C 195.167969 46.367188 195.722656 46.667969 196.074219 46.945312 Z M 193.894531 48.429688 C 194.691406 48.273438 195.300781 48.339844 195.808594 48.5625 L 196.03125 47.253906 C 194.855469 47.1875 193.894531 48.429688 193.894531 48.429688 Z M 193.894531 48.429688 " fill-opacity="1" fill-rule="nonzero"/><path fill="#ffcc4d" d="M 229.507812 63.347656 C 229.507812 63.347656 228.621094 64.578125 225.429688 64.578125 C 222.25 64.578125 223.679688 64.15625 221.144531 64.15625 C 218.617188 64.15625 217.519531 64.800781 217.519531 65.585938 C 217.519531 66.363281 218.429688 66.847656 221.796875 66.847656 C 225.152344 66.847656 226.40625 66.007812 229.109375 66.007812 C 231.832031 66.007812 232.875 66.980469 232.875 68.210938 C 232.875 69.453125 231.125 71.710938 228.355469 71.003906 C 228.355469 71.003906 230.28125 71.976562 232.355469 71.84375 C 234.4375 71.722656 236.1875 71.335938 236.308594 71.789062 C 236.429688 72.242188 237.261719 74.636719 237.148438 75.945312 C 236.949219 77.960938 234.425781 78.667969 233.382812 78.535156 C 232.34375 78.414062 230.980469 79.378906 230.59375 79.832031 L 230.847656 78.46875 L 229.804688 78.855469 L 230.394531 77.171875 L 229.097656 77.171875 C 229.097656 77.171875 229.75 75.875 230.78125 75.875 C 231.820312 75.875 234.160156 76.132812 234.28125 75.421875 C 234.414062 74.703125 233.628906 73.738281 232.144531 73.804688 C 230.648438 73.859375 227.789062 74.703125 226.050781 74.257812 C 226.050781 74.257812 225.476562 75.101562 225.996094 75.753906 C 226.503906 76.398438 227.28125 77.171875 226.894531 77.628906 C 226.503906 78.082031 225.53125 78.082031 224.632812 78.015625 C 223.726562 77.960938 220.613281 78.214844 219.515625 78.601562 C 218.40625 78.988281 217.378906 79.566406 217.378906 79.566406 L 217.886719 78.070312 C 217.886719 78.070312 216.84375 77.75 216.324219 78.203125 C 216.324219 78.203125 216.523438 77.226562 217.367188 77.027344 L 216.390625 76.773438 C 216.390625 76.773438 216.777344 75.609375 218.207031 75.742188 C 219.636719 75.867188 220.289062 76.199219 220.746094 75.675781 C 221.1875 75.15625 219.636719 74.117188 219.636719 74.117188 C 219.636719 74.117188 218.472656 74.570312 215.871094 74.957031 C 213.277344 75.355469 211.59375 75.210938 211.59375 75.210938 C 211.59375 75.210938 211.273438 77.9375 207.121094 78.390625 C 202.964844 78.835938 200.894531 76.894531 199.917969 76.507812 C 198.957031 76.121094 197.59375 76.453125 197.59375 76.453125 L 198.234375 75.210938 L 196.683594 75.542969 C 196.683594 75.542969 196.597656 74.050781 197.648438 73.984375 L 196.230469 73.59375 C 196.230469 73.59375 197.273438 72.367188 198.691406 72.6875 C 200.117188 73.007812 200.851562 74.226562 202.191406 74.890625 C 204.382812 76 209.511719 75.210938 205.691406 74.4375 C 204.792969 74.25 204.164062 73.40625 204.164062 73.40625 C 204.164062 73.40625 201.734375 73.917969 199.851562 71.003906 C 198.566406 69.007812 197.96875 67.371094 195.644531 67.824219 C 195.644531 67.824219 196.75 66.40625 197.96875 66.847656 C 197.96875 66.847656 197.261719 65.941406 196.152344 66.007812 C 196.152344 66.007812 196.675781 64.710938 198.226562 65.164062 C 198.226562 65.164062 197.382812 64.390625 196.609375 64.457031 C 196.609375 64.457031 197.0625 63.09375 199.132812 64.246094 C 201.214844 65.421875 199.964844 66.394531 200.363281 67.105469 C 200.628906 67.558594 201.195312 68.34375 202.566406 69.574219 C 204.90625 71.65625 206.011719 72.167969 205.292969 70.050781 C 204.515625 69.539062 204.0625 68.199219 203.875 67.558594 C 203.675781 66.90625 202.578125 65.355469 202.898438 64.964844 C 203.21875 64.578125 204.195312 65.296875 204.195312 65.296875 C 204.195312 65.296875 205.425781 64.777344 207.109375 64.777344 C 208.792969 64.777344 209.433594 65.5625 209.433594 65.5625 C 209.433594 65.5625 210.609375 64.65625 210.796875 65.097656 C 210.996094 65.5625 210.15625 66.261719 209.765625 67.046875 C 209.378906 67.824219 209.832031 68.730469 209.832031 68.730469 C 209.832031 68.730469 210.964844 70.226562 213.300781 70.292969 C 215.628906 70.347656 219.09375 69.960938 220.324219 69.707031 C 221.554688 69.453125 223.703125 69.03125 225.121094 69.285156 C 226.558594 69.539062 230.570312 69.453125 230.4375 68.398438 C 230.304688 67.371094 229.328125 67.046875 227.324219 67.304688 C 225.320312 67.558594 223.582031 68.210938 219.878906 67.945312 C 216.191406 67.691406 215.816406 65.820312 216.058594 64.898438 C 216.378906 63.671875 218.453125 62.929688 220.402344 62.929688 C 222.339844 62.929688 224.777344 63.738281 226.207031 63.738281 C 227.667969 63.738281 229.507812 63.347656 229.507812 63.347656 Z M 229.507812 63.347656 " fill-opacity="1" fill-rule="nonzero"/><path fill="#dd2e44" d="M 205.390625 69.054688 C 205.390625 69.054688 206.167969 69.40625 206.621094 69.386719 C 207.074219 69.339844 207.882812 68.921875 207.882812 68.921875 C 207.882812 68.921875 207.628906 69.40625 207.628906 69.863281 C 207.628906 70.316406 207.53125 70.78125 206.742188 70.804688 C 205.570312 70.835938 205.746094 70.082031 205.679688 69.773438 C 205.625 69.429688 205.390625 69.054688 205.390625 69.054688 Z M 205.390625 69.054688 " fill-opacity="1" fill-rule="nonzero"/><path fill="#11429a" d="M 207.339844 73.230469 C 207.339844 73.5625 207.085938 73.816406 206.753906 73.816406 L 206.632812 73.816406 C 206.3125 73.816406 206.046875 73.5625 206.046875 73.230469 L 206.046875 70.703125 C 206.046875 70.371094 206.3125 70.117188 206.632812 70.117188 L 206.753906 70.117188 C 207.074219 70.117188 207.339844 70.371094 207.339844 70.703125 Z M 196.652344 72.863281 C 196.054688 73.140625 195.675781 73.59375 195.675781 73.59375 L 197.105469 73.984375 C 196.03125 74.039062 196.132812 75.542969 196.132812 75.542969 L 197.671875 75.222656 Z M 229.617188 76 C 228.941406 76.351562 228.53125 77.140625 228.53125 77.140625 L 229.828125 77.140625 L 229.261719 78.824219 L 230.304688 78.4375 L 230.050781 79.796875 C 230.226562 79.578125 230.660156 79.222656 231.179688 78.933594 Z M 217.753906 79.066406 L 216.691406 75.867188 C 216.035156 76.152344 215.835938 76.761719 215.835938 76.761719 L 216.800781 77.019531 C 215.960938 77.21875 215.769531 78.191406 215.769531 78.191406 C 216.292969 77.726562 217.320312 78.058594 217.320312 78.058594 L 216.800781 79.554688 C 216.8125 79.542969 217.199219 79.332031 217.753906 79.066406 Z M 196.074219 64.445312 C 196.542969 64.402344 197.007812 64.644531 197.328125 64.867188 L 197.503906 63.804688 C 196.351562 63.605469 196.074219 64.445312 196.074219 64.445312 Z M 197.683594 75.222656 L 197.039062 76.441406 C 197.039062 76.441406 197.539062 76.320312 198.160156 76.320312 Z M 197.0625 66.484375 L 197.292969 65.078125 C 196.054688 64.933594 195.632812 65.996094 195.632812 65.996094 C 196.242188 65.964844 196.742188 66.238281 197.0625 66.484375 Z M 195.101562 67.8125 C 195.808594 67.679688 196.363281 67.722656 196.816406 67.933594 L 197.015625 66.761719 C 195.953125 66.707031 195.101562 67.8125 195.101562 67.8125 Z M 195.101562 67.8125 " fill-opacity="1" fill-rule="nonzero"/><path fill="#ffcc4d" d="M 225.574219 82.65625 C 225.574219 82.65625 224.886719 83.5625 222.539062 83.5625 C 220.179688 83.5625 221.242188 83.253906 219.359375 83.253906 C 217.488281 83.253906 216.667969 83.742188 216.667969 84.304688 C 216.667969 84.894531 217.332031 85.246094 219.847656 85.246094 C 222.351562 85.246094 223.269531 84.617188 225.285156 84.617188 C 227.300781 84.617188 228.078125 85.347656 228.078125 86.257812 C 228.078125 87.175781 226.769531 88.859375 224.710938 88.328125 C 224.710938 88.328125 226.160156 89.046875 227.691406 88.957031 C 229.230469 88.859375 230.546875 88.570312 230.636719 88.914062 C 230.726562 89.257812 231.355469 91.03125 231.269531 91.992188 C 231.113281 93.488281 229.230469 94.019531 228.476562 93.921875 C 227.703125 93.820312 226.691406 94.550781 226.40625 94.886719 L 226.59375 93.867188 L 225.828125 94.152344 L 226.273438 92.902344 L 225.296875 92.902344 C 225.296875 92.902344 225.785156 91.9375 226.539062 91.9375 C 227.3125 91.9375 229.0625 92.136719 229.152344 91.605469 C 229.242188 91.074219 228.675781 90.34375 227.558594 90.410156 C 226.460938 90.453125 224.34375 91.074219 223.039062 90.742188 C 223.039062 90.742188 222.605469 91.375 222.992188 91.851562 C 223.382812 92.335938 223.957031 92.914062 223.667969 93.257812 C 223.382812 93.578125 222.660156 93.578125 221.972656 93.535156 C 221.308594 93.488281 218.996094 93.675781 218.175781 93.964844 C 217.355469 94.253906 216.589844 94.683594 216.589844 94.683594 L 216.980469 93.566406 C 216.980469 93.566406 216.203125 93.335938 215.828125 93.667969 C 215.828125 93.667969 215.96875 92.957031 216.601562 92.800781 L 215.882812 92.601562 C 215.882812 92.601562 216.160156 91.738281 217.222656 91.828125 C 218.285156 91.925781 218.761719 92.171875 219.105469 91.785156 C 219.4375 91.394531 218.285156 90.621094 218.285156 90.621094 C 218.285156 90.621094 217.410156 90.964844 215.496094 91.25 C 213.566406 91.539062 212.316406 91.449219 212.316406 91.449219 C 212.316406 91.449219 212.070312 93.476562 208.992188 93.808594 C 205.914062 94.152344 204.371094 92.703125 203.640625 92.425781 C 202.921875 92.136719 201.914062 92.382812 201.914062 92.382812 L 202.402344 91.460938 L 201.25 91.707031 C 201.25 91.707031 201.183594 90.585938 201.96875 90.554688 L 200.90625 90.265625 C 200.90625 90.265625 201.667969 89.347656 202.734375 89.589844 C 203.796875 89.832031 204.339844 90.730469 205.335938 91.230469 C 206.976562 92.039062 210.785156 91.460938 207.941406 90.886719 C 207.273438 90.753906 206.808594 90.109375 206.808594 90.109375 C 206.808594 90.109375 205.003906 90.5 203.597656 88.328125 C 202.644531 86.84375 202.210938 85.636719 200.472656 85.96875 C 200.472656 85.96875 201.292969 84.914062 202.210938 85.246094 C 202.210938 85.246094 201.679688 84.574219 200.859375 84.617188 C 200.859375 84.617188 201.25 83.664062 202.402344 83.984375 C 202.402344 83.984375 201.769531 83.410156 201.195312 83.453125 C 201.195312 83.453125 201.535156 82.457031 203.078125 83.320312 C 204.617188 84.183594 203.6875 84.914062 203.996094 85.449219 C 204.195312 85.789062 204.605469 86.367188 205.636719 87.273438 C 207.363281 88.816406 208.183594 89.203125 207.652344 87.640625 C 207.074219 87.253906 206.742188 86.257812 206.597656 85.789062 C 206.457031 85.304688 205.636719 84.152344 205.878906 83.851562 C 206.121094 83.5625 206.84375 84.097656 206.84375 84.097656 C 206.84375 84.097656 207.761719 83.707031 209.015625 83.707031 C 210.265625 83.707031 210.753906 84.285156 210.753906 84.285156 C 210.753906 84.285156 211.617188 83.609375 211.761719 83.953125 C 211.90625 84.285156 211.273438 84.828125 210.984375 85.402344 C 210.699219 85.980469 211.03125 86.65625 211.03125 86.65625 C 211.03125 86.65625 211.882812 87.761719 213.609375 87.808594 C 215.351562 87.851562 217.921875 87.5625 218.839844 87.375 C 219.757812 87.175781 221.355469 86.875 222.40625 87.054688 C 223.46875 87.253906 226.460938 87.175781 226.359375 86.398438 C 226.261719 85.636719 225.542969 85.390625 224.046875 85.582031 C 222.5625 85.789062 221.253906 86.257812 218.507812 86.066406 C 215.769531 85.867188 215.496094 84.484375 215.671875 83.796875 C 215.914062 82.886719 217.453125 82.324219 218.894531 82.324219 C 220.335938 82.324219 222.152344 82.933594 223.203125 82.933594 C 224.199219 82.945312 225.574219 82.65625 225.574219 82.65625 Z M 225.574219 82.65625 " fill-opacity="1" fill-rule="nonzero"/><path fill="#dd2e44" d="M 207.75 86.875 C 207.75 86.875 208.328125 87.132812 208.671875 87.109375 C 209.003906 87.085938 209.601562 86.765625 209.601562 86.765625 C 209.601562 86.765625 209.414062 87.132812 209.414062 87.472656 C 209.414062 87.808594 209.335938 88.148438 208.757812 88.160156 C 207.894531 88.195312 208.015625 87.640625 207.960938 87.386719 C 207.929688 87.152344 207.75 86.875 207.75 86.875 Z M 207.75 86.875 " fill-opacity="1" fill-rule="nonzero"/><path fill="#11429a" d="M 209.191406 89.976562 C 209.191406 90.210938 209.003906 90.410156 208.757812 90.410156 L 208.671875 90.410156 C 208.425781 90.410156 208.238281 90.210938 208.238281 89.976562 L 208.238281 88.105469 C 208.238281 87.863281 208.425781 87.664062 208.671875 87.664062 L 208.757812 87.664062 C 209.003906 87.664062 209.191406 87.851562 209.191406 88.105469 Z M 201.59375 89.722656 C 201.136719 89.933594 200.871094 90.265625 200.871094 90.265625 L 201.9375 90.554688 C 201.148438 90.585938 201.214844 91.707031 201.214844 91.707031 L 202.355469 91.460938 Z M 226.074219 92.058594 C 225.585938 92.324219 225.285156 92.914062 225.285156 92.914062 L 226.261719 92.914062 L 225.816406 94.164062 L 226.582031 93.875 L 226.394531 94.894531 C 226.527344 94.71875 226.859375 94.464844 227.234375 94.253906 Z M 217.265625 94.34375 L 216.480469 91.960938 C 216.003906 92.183594 215.847656 92.625 215.847656 92.625 L 216.570312 92.824219 C 215.9375 92.96875 215.792969 93.6875 215.792969 93.6875 C 216.179688 93.367188 216.945312 93.589844 216.945312 93.589844 L 216.558594 94.707031 C 216.570312 94.695312 216.855469 94.53125 217.265625 94.34375 Z M 201.148438 83.464844 C 201.492188 83.429688 201.847656 83.628906 202.078125 83.785156 L 202.210938 83.011719 C 201.359375 82.84375 201.148438 83.464844 201.148438 83.464844 Z M 202.355469 91.484375 L 201.878906 92.382812 C 201.878906 92.382812 202.257812 92.292969 202.710938 92.28125 Z M 201.890625 84.980469 L 202.058594 83.941406 C 201.136719 83.832031 200.816406 84.628906 200.816406 84.628906 C 201.269531 84.605469 201.648438 84.804688 201.890625 84.980469 Z M 200.429688 85.980469 C 200.949219 85.878906 201.359375 85.921875 201.703125 86.066406 L 201.847656 85.191406 C 201.070312 85.160156 200.429688 85.980469 200.429688 85.980469 Z M 200.429688 85.980469 " fill-opacity="1" fill-rule="nonzero"/></svg>