<svg xmlns="http://www.w3.org/2000/svg" xmlns:xlink="http://www.w3.org/1999/xlink" width="576" zoomAndPan="magnify" viewBox="0 0 432 287.999989" height="384" preserveAspectRatio="xMidYMid meet" version="1.0"><defs><clipPath id="a2bc6212a7"><path d="M 129.601562 86.4375 L 302.101562 86.4375 L 302.101562 201.9375 L 129.601562 201.9375 Z M 129.601562 86.4375 " clip-rule="nonzero"/></clipPath><clipPath id="2096e53113"><path d="M 129.65625 86.4375 L 302.046875 86.4375 L 302.046875 201.9375 L 129.65625 201.9375 Z M 129.65625 86.4375 " clip-rule="nonzero"/></clipPath></defs><g clip-path="url(#a2bc6212a7)"><path fill="#009e49" d="M 302.046875 86.4375 L 129.65625 86.4375 L 129.65625 201.9375 Z M 302.046875 86.4375 " fill-opacity="1" fill-rule="evenodd"/><path fill="#ce1126" d="M 129.65625 201.9375 L 302.046875 201.9375 L 302.046875 86.4375 Z M 129.65625 201.9375 " fill-opacity="1" fill-rule="evenodd"/><path fill="#000000" d="M 129.65625 201.9375 L 302.046875 86.4375 Z M 129.65625 201.9375 " fill-opacity="1" fill-rule="evenodd"/><path fill="#000000" d="M 129.65625 201.9375 L 302.046875 86.4375 Z M 129.65625 201.9375 " fill-opacity="1" fill-rule="evenodd"/></g><g clip-path="url(#2096e53113)"><path fill="#fcd116" d="M 143.035156 222.109375 L 116.265625 181.753906 L 288.65625 66.253906 L 315.433594 106.617188 Z M 143.035156 222.109375 " fill-opacity="1" fill-rule="evenodd"/><path fill="#000000" d="M 139.210938 216.347656 L 120.089844 187.515625 L 292.480469 72.015625 L 311.601562 100.847656 Z M 139.210938 216.347656 " fill-opacity="1" fill-rule="evenodd"/></g><path fill="#ffffff" d="M 239.675781 108.78125 L 244.03125 124.347656 L 251.773438 122.167969 Z M 239.675781 108.78125 " fill-opacity="1" fill-rule="evenodd"/><path fill="#ffffff" d="M 239.675781 108.78125 L 252.304688 118.808594 L 247.316406 125.15625 Z M 239.675781 108.78125 " fill-opacity="1" fill-rule="evenodd"/><path fill="#ffffff" d="M 258.578125 109.554688 L 245.1875 118.519531 L 249.648438 125.246094 Z M 258.578125 109.554688 " fill-opacity="1" fill-rule="evenodd"/><path fill="#ffffff" d="M 258.578125 109.554688 L 252.992188 124.714844 L 245.445312 121.910156 Z M 258.578125 109.554688 " fill-opacity="1" fill-rule="evenodd"/><path fill="#ffffff" d="M 263.691406 127.847656 L 251.0625 117.828125 L 246.082031 124.171875 Z M 263.691406 127.847656 " fill-opacity="1" fill-rule="evenodd"/><path fill="#ffffff" d="M 263.691406 127.847656 L 247.613281 127.199219 L 247.9375 119.117188 Z M 263.691406 127.847656 " fill-opacity="1" fill-rule="evenodd"/><path fill="#ffffff" d="M 247.953125 138.394531 L 253.539062 123.234375 L 245.992188 120.421875 Z M 247.953125 138.394531 " fill-opacity="1" fill-rule="evenodd"/><path fill="#ffffff" d="M 247.953125 138.394531 L 243.601562 122.828125 L 251.34375 120.640625 Z M 247.953125 138.394531 " fill-opacity="1" fill-rule="evenodd"/><path fill="#ffffff" d="M 233.117188 126.609375 L 249.183594 127.265625 L 249.515625 119.183594 Z M 233.117188 126.609375 " fill-opacity="1" fill-rule="evenodd"/><path fill="#ffffff" d="M 233.117188 126.609375 L 246.496094 117.644531 L 250.964844 124.375 Z M 233.117188 126.609375 " fill-opacity="1" fill-rule="evenodd"/><path fill="#ffffff" d="M 174.164062 152.671875 L 178.519531 168.238281 L 186.261719 166.054688 Z M 174.164062 152.671875 " fill-opacity="1" fill-rule="evenodd"/><path fill="#ffffff" d="M 174.164062 152.671875 L 186.792969 162.703125 L 181.804688 169.039062 Z M 174.164062 152.671875 " fill-opacity="1" fill-rule="evenodd"/><path fill="#ffffff" d="M 193.066406 153.4375 L 179.675781 162.410156 L 184.144531 169.136719 Z M 193.066406 153.4375 " fill-opacity="1" fill-rule="evenodd"/><path fill="#ffffff" d="M 193.066406 153.4375 L 187.480469 168.605469 L 179.941406 165.796875 Z M 193.066406 153.4375 " fill-opacity="1" fill-rule="evenodd"/><path fill="#ffffff" d="M 198.179688 171.742188 L 185.558594 161.71875 L 180.570312 168.058594 Z M 198.179688 171.742188 " fill-opacity="1" fill-rule="evenodd"/><path fill="#ffffff" d="M 198.179688 171.742188 L 182.109375 171.09375 L 182.433594 163.007812 Z M 198.179688 171.742188 " fill-opacity="1" fill-rule="evenodd"/><path fill="#ffffff" d="M 182.449219 182.285156 L 188.027344 167.117188 L 180.488281 164.316406 Z M 182.449219 182.285156 " fill-opacity="1" fill-rule="evenodd"/><path fill="#ffffff" d="M 182.449219 182.285156 L 178.097656 166.71875 L 185.839844 164.53125 Z M 182.449219 182.285156 " fill-opacity="1" fill-rule="evenodd"/><path fill="#ffffff" d="M 167.601562 170.5 L 183.679688 171.152344 L 184.003906 163.074219 Z M 167.601562 170.5 " fill-opacity="1" fill-rule="evenodd"/><path fill="#ffffff" d="M 167.601562 170.5 L 180.992188 161.527344 L 185.453125 168.257812 Z M 167.601562 170.5 " fill-opacity="1" fill-rule="evenodd"/><path fill="#000000" d="M 54.152344 0 C 24.3125 0 0.140625 24.1875 0.140625 54 L 0.140625 234 C 0.140625 263.8125 24.265625 288 54.152344 288 L 377.847656 288 C 407.6875 288 431.859375 263.8125 431.859375 234 L 431.859375 54 C 431.859375 24.1875 407.734375 0 377.847656 0 Z M 54.152344 0 " fill-opacity="1" fill-rule="evenodd"/><path fill="#f2c500" d="M 364.402344 0 L 0.796875 242.578125 C 0.375 239.765625 0.140625 236.90625 0.140625 234 L 0.140625 54 C 0.140625 24.1875 24.3125 0 54.152344 0 Z M 364.402344 0 " fill-opacity="1" fill-rule="nonzero"/><path fill="#f2c500" d="M 431.203125 45.46875 C 431.625 48.234375 431.859375 51.09375 431.859375 54 L 431.859375 234 C 431.859375 263.8125 407.6875 288 377.847656 288 L 67.597656 288 Z M 431.203125 45.46875 " fill-opacity="1" fill-rule="nonzero"/><path fill="#1aaf5d" d="M 337.421875 0 L 0.140625 225 L 0.140625 54 C 0.140625 24.1875 24.3125 0 54.152344 0 Z M 337.421875 0 " fill-opacity="1" fill-rule="evenodd"/><path fill="#e94b35" d="M 431.859375 63 L 431.859375 234 C 431.859375 263.8125 407.6875 288 377.847656 288 L 378.222656 288 L 94.578125 288 Z M 431.859375 63 " fill-opacity="1" fill-rule="evenodd"/><path fill="#ffffff" d="M 292.121094 98.4375 L 266.5 96.09375 L 288.046875 81.984375 L 282.332031 56.859375 L 302.382812 73.03125 L 324.539062 59.8125 L 315.355469 83.90625 L 334.75 100.875 L 309.03125 99.609375 L 298.867188 123.28125 Z M 292.121094 98.4375 " fill-opacity="1" fill-rule="evenodd"/><path fill="#ffffff" d="M 116.832031 218.015625 L 91.160156 215.71875 L 112.707031 201.609375 L 106.992188 176.484375 L 127.042969 192.65625 L 149.199219 179.4375 L 140.019531 203.53125 L 159.410156 220.5 L 133.695312 219.234375 L 123.527344 242.90625 Z M 116.832031 218.015625 " fill-opacity="1" fill-rule="evenodd"/></svg>