<svg width="21" height="15" viewBox="0 0 21 15" fill="none" xmlns="http://www.w3.org/2000/svg">
<g clip-path="url(#clip0_3201_36505)">
<rect width="21" height="15" rx="3" fill="#1A47B8"/>
<path fill-rule="evenodd" clip-rule="evenodd" d="M0 15H21V0L0 15Z" fill="#FFDA2C"/>
<path fill-rule="evenodd" clip-rule="evenodd" d="M2 15H21V2L2 15Z" fill="#249F58"/>
<path fill-rule="evenodd" clip-rule="evenodd" d="M5.12199 5.658L4.50399 6L4.62199 5.276L4.12199 4.764L4.81199 4.658L5.12199 4L5.43199 4.658L6.12199 4.764L5.62199 5.276L5.73999 6L5.12199 5.658ZM3.12199 3.658L2.50399 4L2.62199 3.276L2.12199 2.764L2.81199 2.658L3.12199 2L3.43199 2.658L4.12199 2.764L3.62199 3.276L3.73999 4L3.12199 3.658ZM7.12199 3.658L6.50399 4L6.62199 3.276L6.12199 2.764L6.81199 2.658L7.12199 2L7.43199 2.658L8.12199 2.764L7.62199 3.276L7.73999 4L7.12199 3.658ZM7.12199 7.658L6.50399 8L6.62199 7.276L6.12199 6.764L6.81199 6.658L7.12199 6L7.43199 6.658L8.12199 6.764L7.62199 7.276L7.73999 8L7.12199 7.658ZM3.12199 7.658L2.50399 8L2.62199 7.276L2.12199 6.764L2.81199 6.658L3.12199 6L3.43199 6.658L4.12199 6.764L3.62199 7.276L3.73999 8L3.12199 7.658Z" fill="white"/>
</g>
<defs>
<clipPath id="clip0_3201_36505">
<rect width="21" height="15" rx="3" fill="white"/>
</clipPath>
</defs>
</svg>
