<svg width="21" height="15" viewBox="0 0 21 15" fill="none" xmlns="http://www.w3.org/2000/svg">
<g clip-path="url(#clip0_3201_36494)">
<rect width="21" height="15" rx="3" fill="white"/>
<path fill-rule="evenodd" clip-rule="evenodd" d="M0 10H21V15H0V10Z" fill="#151515"/>
<path fill-rule="evenodd" clip-rule="evenodd" d="M6.49999 8.75L5.02999 9.523L5.30999 7.886L4.12199 6.726L5.76499 6.489L6.49999 5L7.23499 6.49L8.87799 6.727L7.68799 7.887L7.96799 9.523L6.49999 8.75ZM14.5 8.75L13.03 9.523L13.31 7.886L12.122 6.726L13.765 6.489L14.5 5L15.235 6.49L16.878 6.727L15.688 7.887L15.968 9.523" fill="#249F58"/>
<path fill-rule="evenodd" clip-rule="evenodd" d="M0 0H21V5H0V0Z" fill="#249F58"/>
</g>
<defs>
<clipPath id="clip0_3201_36494">
<rect width="21" height="15" rx="3" fill="white"/>
</clipPath>
</defs>
</svg>
