<svg xmlns="http://www.w3.org/2000/svg" xmlns:xlink="http://www.w3.org/1999/xlink" width="576" zoomAndPan="magnify" viewBox="0 0 432 287.999989" height="384" preserveAspectRatio="xMidYMid meet" version="1.0"><defs><clipPath id="210a6efdda"><path d="M 16.503906 0 L 415.503906 0 L 415.503906 288 L 16.503906 288 Z M 16.503906 0 " clip-rule="nonzero"/></clipPath><clipPath id="0d984f4a92"><path d="M 16.503906 0 L 228 0 L 228 144 L 16.503906 144 Z M 16.503906 0 " clip-rule="nonzero"/></clipPath></defs><g clip-path="url(#210a6efdda)"><path fill="#00247d" d="M 371.085938 0 L 60.921875 0 C 58.652344 0 56.414062 0.167969 54.230469 0.5 L 54.1875 19.925781 L 23.945312 19.882812 C 19.316406 26.882812 16.613281 35.28125 16.613281 44.308594 L 16.613281 243.691406 C 16.613281 268.160156 36.453125 288 60.921875 288 L 371.085938 288 C 395.554688 288 415.394531 268.160156 415.394531 243.691406 L 415.394531 44.308594 C 415.394531 19.839844 395.554688 0 371.085938 0 Z M 371.085938 0 " fill-opacity="1" fill-rule="nonzero"/></g><path fill="#ffffff" d="M 271.390625 77.539062 L 271.390625 118.8125 C 271.390625 176.191406 303.371094 197.148438 328.503906 210.804688 C 353.648438 197.148438 381.695312 176.191406 381.695312 118.8125 L 381.695312 77.539062 Z M 271.390625 77.539062 " fill-opacity="1" fill-rule="nonzero"/><path fill="#fec400" d="M 328.503906 204.148438 C 304.113281 190.511719 276.007812 170.828125 276.007812 118.8125 L 276.007812 84.925781 L 377.875 84.925781 L 377.875 118.8125 C 377.875 170.828125 352.894531 190.511719 328.503906 204.148438 Z M 328.503906 204.148438 " fill-opacity="1" fill-rule="nonzero"/><path fill="#00a728" d="M 348.410156 177.054688 C 347.722656 170.996094 342.695312 151.953125 336.8125 146.25 C 330.929688 140.53125 328.503906 144.953125 328.503906 144.953125 C 328.503906 144.953125 326.078125 140.542969 320.195312 146.25 C 314.3125 151.964844 309.296875 170.996094 308.597656 177.054688 C 307.902344 183.113281 309.285156 184.496094 312.410156 184.496094 C 313.792969 187.445312 319.15625 187.953125 319.15625 187.953125 C 319.15625 187.953125 325.214844 191.929688 328.503906 187.953125 C 331.792969 191.929688 337.851562 187.953125 337.851562 187.953125 C 337.851562 187.953125 343.214844 187.433594 344.597656 184.496094 C 347.722656 184.496094 349.109375 183.113281 348.410156 177.054688 Z M 348.410156 177.054688 " fill-opacity="1" fill-rule="nonzero"/><path fill="#f0082d" d="M 337.332031 139.304688 C 337.332031 144.574219 338.730469 148.839844 328.679688 148.839844 C 318.632812 148.839844 320.03125 144.566406 320.03125 139.304688 C 320.03125 134.03125 323.90625 129.753906 328.679688 129.753906 C 333.46875 129.753906 337.332031 134.03125 337.332031 139.304688 Z M 337.332031 139.304688 " fill-opacity="1" fill-rule="nonzero"/><path fill="#ff9f3e" d="M 309.984375 132.402344 C 307.214844 137.078125 302.882812 133.785156 300.988281 128.25 C 299.09375 122.710938 291.472656 121.148438 288.703125 119.597656 C 285.933594 118.046875 285.246094 115.445312 288.703125 113.539062 C 292.160156 111.632812 290.089844 109.207031 292.515625 108.519531 C 289.402344 107.832031 286.609375 109.5625 286.355469 108.519531 C 286.113281 107.480469 288.527344 104.597656 292.515625 104.132812 C 289.222656 100.035156 291.128906 91.382812 292.515625 91.207031 C 293.898438 91.03125 296.734375 93.632812 298.175781 96.226562 C 299.613281 98.816406 303.769531 98.308594 303.425781 101.941406 C 304.289062 102.804688 307.234375 102.285156 310.003906 106.792969 C 312.753906 111.289062 309.984375 132.402344 309.984375 132.402344 Z M 309.984375 132.402344 " fill-opacity="1" fill-rule="nonzero"/><path fill="#ff927f" d="M 311.222656 131.714844 C 307.300781 132.015625 305.839844 128.601562 305.140625 123.585938 C 304.457031 118.566406 297.355469 120.4375 300.644531 112.929688 C 303.933594 105.417969 305.164062 109.972656 305.496094 104.144531 C 305.828125 98.320312 307.734375 93.476562 309.460938 93.476562 C 311.191406 93.476562 313.4375 98.839844 314.3125 101.097656 C 315.1875 103.359375 318.511719 102.828125 319.964844 110.613281 C 321.414062 118.402344 319.6875 124.117188 317.78125 125.84375 C 315.875 127.574219 315.011719 127.828125 314.667969 129.777344 C 314.3125 131.714844 313.792969 131.515625 311.222656 131.714844 Z M 311.222656 131.714844 " fill-opacity="1" fill-rule="nonzero"/><path fill="#fe9de0" d="M 311.222656 98.652344 C 312.410156 99.515625 312.453125 100.734375 311.222656 102.804688 C 309.996094 104.886719 312.019531 106.957031 312.132812 110.425781 C 312.242188 113.882812 310.449219 115.101562 310.824219 116.828125 C 311.203125 118.554688 313.972656 121.847656 313.628906 125.824219 C 313.285156 129.800781 312.464844 131.019531 311.222656 131.703125 C 309.996094 132.390625 310.515625 129.621094 310.769531 127.03125 C 311.023438 124.4375 309.296875 121.492188 308.433594 118.898438 C 307.566406 116.308594 309.59375 114.402344 310.136719 111.800781 C 310.679688 109.207031 309.296875 106.835938 309.117188 104.125 C 308.953125 101.421875 311.222656 98.652344 311.222656 98.652344 Z M 311.222656 98.652344 " fill-opacity="1" fill-rule="nonzero"/><path fill="#ba5b1f" d="M 351.355469 105.230469 C 351.878906 101.421875 351.699219 95.539062 350.492188 93.46875 C 349.285156 91.382812 347.378906 90.175781 348.585938 89.832031 C 349.792969 89.492188 355.511719 95.550781 352.398438 107.832031 C 349.273438 120.117188 351.355469 105.230469 351.355469 105.230469 Z M 351.355469 105.230469 " fill-opacity="1" fill-rule="nonzero"/><path fill="#ba5b1f" d="M 350.746094 104.167969 C 348.410156 102.804688 345.386719 99.335938 345.683594 97.445312 C 345.984375 95.539062 348.234375 92.082031 348.585938 92.769531 C 348.929688 93.457031 347.546875 95.605469 348.585938 98.429688 C 349.628906 101.253906 350.136719 101.410156 351.546875 103.292969 C 352.941406 105.1875 350.746094 104.167969 350.746094 104.167969 Z M 349.472656 106.792969 C 348.078125 105.109375 332.667969 95.195312 334.21875 94.507812 C 335.769531 93.820312 349.042969 102.128906 351.144531 106.792969 C 353.261719 111.457031 349.472656 106.792969 349.472656 106.792969 Z M 349.472656 106.792969 " fill-opacity="1" fill-rule="nonzero"/><path fill="#ba5b1f" d="M 348.585938 109.726562 C 342.949219 104.132812 329.023438 103.148438 329.722656 102.285156 C 330.421875 101.421875 348.265625 103.058594 350.757812 108.210938 C 353.261719 113.359375 348.585938 109.726562 348.585938 109.726562 Z M 348.585938 109.726562 " fill-opacity="1" fill-rule="nonzero"/><path fill="#ba5b1f" d="M 348.199219 112.683594 C 341.839844 109.382812 330.71875 108.6875 329.699219 108.863281 C 328.679688 109.042969 340.433594 105.5625 348.832031 110.757812 C 357.238281 115.964844 348.199219 112.683594 348.199219 112.683594 Z M 348.585938 117.347656 C 342.007812 114.402344 332.316406 115.265625 330.585938 116.308594 C 328.859375 117.347656 335.605469 112.386719 340.28125 112.875 C 344.953125 113.359375 349.472656 114.335938 350.757812 115.234375 C 352.042969 116.128906 350.878906 118.367188 348.585938 117.347656 Z M 348.585938 117.347656 " fill-opacity="1" fill-rule="nonzero"/><path fill="#ba5b1f" d="M 352.421875 104.132812 C 351.621094 99.878906 351.613281 96.292969 345.90625 96.722656 C 340.203125 97.15625 339.171875 107.824219 340.601562 122.710938 C 342.019531 137.597656 340.289062 142.472656 340.023438 143.324219 C 339.769531 144.175781 343.203125 140.367188 342.960938 133.785156 C 342.714844 127.207031 341.265625 112.753906 341.730469 107.433594 C 342.195312 102.117188 344.777344 98.128906 348.210938 99.171875 C 351.644531 100.222656 350.871094 102.894531 350.769531 106.140625 C 350.660156 109.382812 352.421875 104.132812 352.421875 104.132812 Z M 352.421875 104.132812 " fill-opacity="1" fill-rule="nonzero"/><path fill="#ba5b1f" d="M 356.199219 131.816406 C 356.199219 131.816406 357.925781 130.839844 360.175781 119.078125 C 362.421875 107.3125 357.582031 102.285156 353.25 102.285156 C 348.917969 102.285156 344.078125 107.300781 346.328125 119.078125 C 348.578125 130.839844 350.304688 131.816406 350.304688 131.816406 C 350.304688 131.816406 345 136.855469 345.75 139.304688 C 346.492188 141.75 353.25 141.808594 353.25 141.808594 C 353.25 141.808594 359.996094 141.75 360.75 139.304688 C 361.503906 136.855469 356.199219 131.816406 356.199219 131.816406 Z M 356.199219 131.816406 " fill-opacity="1" fill-rule="nonzero"/><path fill="#ba5b1f" d="M 355.210938 105.230469 C 354.691406 101.421875 354.867188 95.539062 356.074219 93.46875 C 357.28125 91.394531 359.1875 90.175781 357.980469 89.832031 C 356.773438 89.492188 351.058594 95.550781 354.171875 107.832031 C 357.292969 120.117188 355.210938 105.230469 355.210938 105.230469 Z M 355.210938 105.230469 " fill-opacity="1" fill-rule="nonzero"/><path fill="#ba5b1f" d="M 355.820312 104.167969 C 358.15625 102.804688 361.183594 99.335938 360.882812 97.445312 C 360.585938 95.550781 358.335938 92.082031 357.980469 92.769531 C 357.636719 93.457031 359.023438 95.605469 357.980469 98.429688 C 356.941406 101.253906 356.429688 101.410156 355.023438 103.292969 C 353.628906 105.1875 355.820312 104.167969 355.820312 104.167969 Z M 357.09375 106.792969 C 358.492188 105.109375 373.910156 95.195312 372.347656 94.507812 C 370.785156 93.820312 357.527344 102.128906 355.421875 106.792969 C 353.316406 111.457031 357.09375 106.792969 357.09375 106.792969 Z M 357.09375 106.792969 " fill-opacity="1" fill-rule="nonzero"/><path fill="#ba5b1f" d="M 357.980469 109.726562 C 363.621094 104.132812 377.542969 103.148438 376.84375 102.285156 C 376.148438 101.421875 358.300781 103.058594 355.808594 108.210938 C 353.316406 113.359375 357.980469 109.726562 357.980469 109.726562 Z M 357.980469 109.726562 " fill-opacity="1" fill-rule="nonzero"/><path fill="#ba5b1f" d="M 358.378906 112.683594 C 364.738281 109.382812 375.859375 108.6875 376.878906 108.863281 C 377.898438 109.042969 366.144531 105.5625 357.738281 110.757812 C 349.328125 115.964844 358.378906 112.683594 358.378906 112.683594 Z M 357.980469 117.347656 C 364.5625 114.402344 374.253906 115.265625 375.980469 116.308594 C 377.710938 117.347656 370.964844 112.386719 366.289062 112.875 C 361.613281 113.359375 357.09375 114.335938 355.808594 115.234375 C 354.523438 116.128906 355.6875 118.367188 357.980469 117.347656 Z M 357.980469 117.347656 " fill-opacity="1" fill-rule="nonzero"/><path fill="#ba5b1f" d="M 354.160156 104.132812 C 354.957031 99.878906 354.96875 96.292969 360.671875 96.722656 C 366.378906 97.15625 367.398438 107.824219 365.980469 122.710938 C 364.5625 137.597656 366.289062 142.472656 366.554688 143.324219 C 366.820312 144.175781 363.375 140.367188 363.621094 133.785156 C 363.863281 127.207031 365.3125 112.753906 364.847656 107.433594 C 364.382812 102.117188 361.800781 98.128906 358.367188 99.171875 C 354.933594 100.222656 355.710938 102.894531 355.808594 106.140625 C 355.910156 109.382812 354.160156 104.132812 354.160156 104.132812 Z M 354.160156 104.132812 " fill-opacity="1" fill-rule="nonzero"/><g clip-path="url(#0d984f4a92)"><path fill="#00247d" d="M 227.082031 144 L 227.082031 0 L 60.921875 0 C 57.378906 0 54.230469 0.5 54.230469 0.5 L 54.1875 19.925781 L 23.945312 19.882812 C 23.945312 19.882812 23.480469 20.535156 22.539062 22.152344 C 18.773438 28.679688 16.613281 36.242188 16.613281 44.308594 L 16.613281 144 Z M 227.082031 144 " fill-opacity="1" fill-rule="nonzero"/><path fill="#eeeeee" d="M 227.082031 0 L 201.261719 0 L 149.539062 36.210938 L 149.539062 0 L 94.152344 0 L 94.152344 28.457031 L 54.230469 0.5 C 47.429688 1.539062 41.050781 4.097656 35.710938 7.863281 L 87.796875 44.308594 L 68.566406 44.308594 L 27.324219 15.40625 C 26.105469 16.835938 24.988281 18.308594 23.945312 19.882812 L 58.851562 44.308594 L 16.613281 44.308594 L 16.613281 99.691406 L 59.648438 99.691406 L 16.613281 130.332031 L 16.613281 144 L 53.523438 144 L 94.152344 115.554688 L 94.152344 144 L 149.539062 144 L 149.539062 107.789062 L 201.25 144 L 227.082031 144 L 227.082031 121.523438 L 195.898438 99.691406 L 227.082031 99.691406 L 227.082031 44.308594 L 195.910156 44.308594 L 227.082031 22.476562 Z M 227.082031 0 " fill-opacity="1" fill-rule="nonzero"/><path fill="#cf1b2b" d="M 138.464844 0 L 105.230469 0 L 105.230469 55.382812 L 16.613281 55.382812 L 16.613281 88.617188 L 105.230469 88.617188 L 105.230469 144 L 138.464844 144 L 138.464844 88.617188 L 227.082031 88.617188 L 227.082031 55.382812 L 138.464844 55.382812 Z M 138.464844 0 " fill-opacity="1" fill-rule="nonzero"/></g><path fill="#cf1b2b" d="M 227.082031 0 L 210.898438 0 L 149.539062 42.96875 L 149.539062 44.308594 L 166.941406 44.308594 L 227.082031 2.191406 Z M 35.710938 7.863281 C 32.597656 10.023438 29.796875 12.550781 27.324219 15.40625 L 68.566406 44.308594 L 87.785156 44.308594 Z M 87.917969 99.691406 L 24.742188 144 L 43.875 144 L 94.152344 108.796875 L 94.152344 99.691406 Z M 227.082031 141.808594 L 227.082031 128.292969 L 186.238281 99.691406 L 166.929688 99.691406 Z M 227.082031 141.808594 " fill-opacity="1" fill-rule="nonzero"/></svg>