<svg xmlns="http://www.w3.org/2000/svg" xmlns:xlink="http://www.w3.org/1999/xlink" width="576" zoomAndPan="magnify" viewBox="0 0 432 287.999989" height="384" preserveAspectRatio="xMidYMid meet" version="1.0"><defs><clipPath id="0c4ce19d69"><path d="M 16.503906 0 L 415.503906 0 L 415.503906 288 L 16.503906 288 Z M 16.503906 0 " clip-rule="nonzero"/></clipPath><clipPath id="8d44aa1f59"><path d="M 16.503906 0 L 205 0 L 205 144 L 16.503906 144 Z M 16.503906 0 " clip-rule="nonzero"/></clipPath></defs><g clip-path="url(#0c4ce19d69)"><path fill="#fe0000" d="M 371.085938 0 L 204.925781 0 L 204.925781 144 L 16.613281 144 L 16.613281 243.691406 C 16.613281 268.160156 36.453125 288 60.921875 288 L 371.085938 288 C 395.554688 288 415.394531 268.160156 415.394531 243.691406 L 415.394531 44.308594 C 415.394531 19.839844 395.554688 0 371.085938 0 Z M 371.085938 0 " fill-opacity="1" fill-rule="nonzero"/></g><g clip-path="url(#8d44aa1f59)"><path fill="#000095" d="M 204.925781 0 L 60.921875 0 C 36.453125 0 16.613281 19.839844 16.613281 44.308594 L 16.613281 144 L 204.925781 144 Z M 137.765625 51.066406 L 160.308594 44.996094 L 143.792969 61.464844 C 142.449219 57.609375 140.390625 54.101562 137.765625 51.066406 Z M 140.546875 72 C 140.546875 86.910156 128.460938 99.003906 113.539062 99.003906 C 98.617188 99.003906 86.53125 86.910156 86.53125 72 C 86.53125 57.089844 98.628906 44.996094 113.539062 44.996094 C 128.449219 44.996094 140.546875 57.089844 140.546875 72 Z M 140.546875 25.234375 L 134.476562 47.773438 C 131.449219 45.148438 127.929688 43.089844 124.074219 41.75 Z M 113.539062 18 L 119.542969 40.53125 C 117.605469 40.164062 115.589844 39.953125 113.539062 39.953125 C 111.488281 39.953125 109.472656 40.164062 107.535156 40.53125 Z M 103.003906 41.75 C 99.148438 43.089844 95.636719 45.148438 92.601562 47.773438 L 86.53125 25.234375 Z M 89.3125 51.066406 C 86.6875 54.089844 84.628906 57.609375 83.289062 61.464844 L 66.769531 44.996094 Z M 82.070312 65.996094 C 81.691406 67.945312 81.492188 69.949219 81.492188 72 C 81.492188 74.050781 81.691406 76.066406 82.070312 78.003906 L 59.539062 72 Z M 83.289062 82.523438 C 84.628906 86.378906 86.699219 89.898438 89.3125 92.925781 L 66.769531 98.996094 Z M 86.53125 118.765625 L 92.601562 96.226562 C 95.628906 98.839844 99.148438 100.910156 103.003906 102.25 Z M 113.539062 126 L 107.535156 103.46875 C 109.484375 103.847656 111.488281 104.046875 113.539062 104.046875 C 115.589844 104.046875 117.605469 103.847656 119.542969 103.46875 Z M 124.074219 102.25 C 127.929688 100.910156 131.449219 98.839844 134.476562 96.226562 L 140.546875 118.765625 Z M 137.765625 92.933594 C 140.390625 89.910156 142.449219 86.390625 143.792969 82.535156 L 160.308594 99.003906 Z M 145.007812 78.003906 C 145.386719 76.054688 145.585938 74.050781 145.585938 72 C 145.585938 69.949219 145.386719 67.933594 145.007812 65.996094 L 167.539062 72 Z M 145.007812 78.003906 " fill-opacity="1" fill-rule="nonzero"/></g><path fill="#ffffff" d="M 119.542969 40.53125 L 113.539062 18 L 107.535156 40.53125 C 109.472656 40.164062 111.488281 39.953125 113.539062 39.953125 C 115.589844 39.953125 117.605469 40.164062 119.542969 40.53125 Z M 81.492188 72 C 81.492188 69.949219 81.691406 67.933594 82.070312 65.996094 L 59.539062 72 L 82.070312 78.003906 C 81.703125 76.066406 81.492188 74.050781 81.492188 72 Z M 107.535156 103.46875 L 113.539062 126 L 119.542969 103.46875 C 117.59375 103.847656 115.589844 104.046875 113.539062 104.046875 C 111.488281 104.046875 109.472656 103.835938 107.535156 103.46875 Z M 145.585938 72 C 145.585938 74.050781 145.386719 76.066406 145.007812 78.003906 L 167.539062 72 L 145.007812 65.996094 C 145.375 67.933594 145.585938 69.949219 145.585938 72 Z M 140.546875 25.234375 L 124.074219 41.75 C 127.929688 43.101562 131.449219 45.160156 134.476562 47.773438 Z M 137.765625 92.933594 L 160.308594 99.003906 L 143.792969 82.535156 C 142.449219 86.390625 140.390625 89.898438 137.765625 92.933594 Z M 86.53125 118.765625 L 103.003906 102.25 C 99.148438 100.910156 95.628906 98.839844 92.601562 96.226562 Z M 89.3125 51.066406 L 66.769531 44.996094 L 83.289062 61.464844 C 84.628906 57.609375 86.6875 54.101562 89.3125 51.066406 Z M 124.074219 102.25 L 140.546875 118.765625 L 134.476562 96.226562 C 131.441406 98.851562 127.929688 100.910156 124.074219 102.25 Z M 83.289062 82.523438 L 66.769531 98.996094 L 89.3125 92.925781 C 86.6875 89.898438 84.628906 86.390625 83.289062 82.523438 Z M 103.003906 41.75 L 86.53125 25.234375 L 92.601562 47.773438 C 95.636719 45.148438 99.148438 43.089844 103.003906 41.75 Z M 160.308594 44.996094 L 137.765625 51.066406 C 140.390625 54.089844 142.449219 57.609375 143.792969 61.464844 Z M 160.308594 44.996094 " fill-opacity="1" fill-rule="nonzero"/><path fill="#ffffff" d="M 140.546875 72 C 140.546875 72.882812 140.503906 73.765625 140.414062 74.648438 C 140.328125 75.527344 140.199219 76.402344 140.027344 77.269531 C 139.855469 78.136719 139.640625 78.992188 139.382812 79.839844 C 139.125 80.6875 138.828125 81.515625 138.488281 82.335938 C 138.152344 83.152344 137.773438 83.949219 137.355469 84.730469 C 136.941406 85.511719 136.484375 86.269531 135.996094 87.003906 C 135.503906 87.738281 134.976562 88.449219 134.414062 89.132812 C 133.855469 89.816406 133.261719 90.46875 132.636719 91.097656 C 132.011719 91.722656 131.355469 92.316406 130.671875 92.875 C 129.988281 93.4375 129.277344 93.964844 128.542969 94.453125 C 127.808594 94.945312 127.050781 95.398438 126.269531 95.816406 C 125.488281 96.234375 124.691406 96.613281 123.875 96.949219 C 123.058594 97.289062 122.226562 97.585938 121.378906 97.84375 C 120.53125 98.097656 119.675781 98.3125 118.808594 98.488281 C 117.941406 98.660156 117.066406 98.789062 116.1875 98.875 C 115.304688 98.960938 114.421875 99.003906 113.539062 99.003906 C 112.65625 99.003906 111.773438 98.960938 110.890625 98.875 C 110.011719 98.789062 109.136719 98.660156 108.269531 98.488281 C 107.402344 98.3125 106.546875 98.097656 105.699219 97.84375 C 104.851562 97.585938 104.023438 97.289062 103.203125 96.949219 C 102.386719 96.613281 101.589844 96.234375 100.808594 95.816406 C 100.027344 95.398438 99.269531 94.945312 98.535156 94.453125 C 97.800781 93.964844 97.089844 93.4375 96.40625 92.875 C 95.722656 92.316406 95.066406 91.722656 94.441406 91.097656 C 93.816406 90.46875 93.222656 89.816406 92.664062 89.132812 C 92.101562 88.449219 91.574219 87.738281 91.085938 87.003906 C 90.59375 86.269531 90.140625 85.511719 89.722656 84.730469 C 89.304688 83.949219 88.925781 83.152344 88.589844 82.335938 C 88.25 81.515625 87.953125 80.6875 87.695312 79.839844 C 87.4375 78.992188 87.222656 78.136719 87.050781 77.269531 C 86.878906 76.402344 86.75 75.527344 86.664062 74.648438 C 86.578125 73.765625 86.53125 72.882812 86.53125 72 C 86.53125 71.117188 86.578125 70.234375 86.664062 69.351562 C 86.75 68.472656 86.878906 67.597656 87.050781 66.730469 C 87.222656 65.863281 87.4375 65.007812 87.695312 64.160156 C 87.953125 63.3125 88.25 62.484375 88.589844 61.664062 C 88.925781 60.847656 89.304688 60.050781 89.722656 59.269531 C 90.140625 58.488281 90.59375 57.730469 91.085938 56.996094 C 91.574219 56.261719 92.101562 55.550781 92.664062 54.867188 C 93.222656 54.183594 93.816406 53.53125 94.441406 52.902344 C 95.066406 52.277344 95.722656 51.683594 96.40625 51.125 C 97.089844 50.5625 97.800781 50.035156 98.535156 49.546875 C 99.269531 49.054688 100.027344 48.601562 100.808594 48.183594 C 101.589844 47.765625 102.386719 47.386719 103.203125 47.050781 C 104.023438 46.710938 104.851562 46.414062 105.699219 46.15625 C 106.546875 45.902344 107.402344 45.6875 108.269531 45.511719 C 109.136719 45.339844 110.011719 45.210938 110.890625 45.125 C 111.773438 45.039062 112.65625 44.996094 113.539062 44.996094 C 114.421875 44.996094 115.304688 45.039062 116.1875 45.125 C 117.066406 45.210938 117.941406 45.339844 118.808594 45.511719 C 119.675781 45.6875 120.53125 45.902344 121.378906 46.15625 C 122.226562 46.414062 123.058594 46.710938 123.875 47.050781 C 124.691406 47.386719 125.488281 47.765625 126.269531 48.183594 C 127.050781 48.601562 127.808594 49.054688 128.542969 49.546875 C 129.277344 50.035156 129.988281 50.5625 130.671875 51.125 C 131.355469 51.683594 132.011719 52.277344 132.636719 52.902344 C 133.261719 53.53125 133.855469 54.183594 134.414062 54.867188 C 134.976562 55.550781 135.503906 56.261719 135.996094 56.996094 C 136.484375 57.730469 136.941406 58.488281 137.355469 59.269531 C 137.773438 60.050781 138.152344 60.847656 138.488281 61.664062 C 138.828125 62.484375 139.125 63.3125 139.382812 64.160156 C 139.640625 65.007812 139.855469 65.863281 140.027344 66.730469 C 140.199219 67.597656 140.328125 68.472656 140.414062 69.351562 C 140.503906 70.234375 140.546875 71.117188 140.546875 72 Z M 140.546875 72 " fill-opacity="1" fill-rule="nonzero"/></svg>