<svg xmlns="http://www.w3.org/2000/svg" xmlns:xlink="http://www.w3.org/1999/xlink" width="576" zoomAndPan="magnify" viewBox="0 0 432 287.999989" height="384" preserveAspectRatio="xMidYMid meet" version="1.0"><defs><clipPath id="9245591cb6"><path d="M 16.503906 0 L 415.503906 0 L 415.503906 288 L 16.503906 288 Z M 16.503906 0 " clip-rule="nonzero"/></clipPath><clipPath id="dc203421ab"><path d="M 16.503906 0 L 228 0 L 228 144 L 16.503906 144 Z M 16.503906 0 " clip-rule="nonzero"/></clipPath></defs><g clip-path="url(#9245591cb6)"><path fill="#00247d" d="M 371.085938 0 L 60.921875 0 C 58.652344 0 56.414062 0.167969 54.230469 0.5 L 54.1875 19.925781 L 23.945312 19.882812 C 19.316406 26.882812 16.613281 35.28125 16.613281 44.308594 L 16.613281 243.691406 C 16.613281 268.160156 36.453125 288 60.921875 288 L 371.085938 288 C 395.554688 288 415.394531 268.160156 415.394531 243.691406 L 415.394531 44.308594 C 415.394531 19.839844 395.554688 0 371.085938 0 Z M 371.085938 0 " fill-opacity="1" fill-rule="nonzero"/></g><path fill="#cccc32" d="M 392.554688 81.128906 C 392.554688 81.128906 376.292969 86.777344 358.082031 86.777344 C 339.878906 86.777344 326.1875 77.316406 326.1875 77.316406 C 326.1875 77.316406 312.542969 86.777344 294.320312 86.777344 C 276.109375 86.777344 258.9375 81.128906 258.9375 81.128906 C 257.234375 126.773438 260.046875 174.816406 276.761719 199.984375 C 294.742188 227.054688 326.179688 243.691406 326.179688 243.691406 C 326.179688 243.691406 356.683594 227.054688 374.675781 199.984375 C 391.421875 174.816406 394.257812 126.765625 392.554688 81.128906 Z M 392.554688 81.128906 " fill-opacity="1" fill-rule="nonzero"/><path fill="#ffffff" d="M 386.769531 86.523438 C 386.769531 86.523438 373.753906 91.382812 356.484375 91.382812 C 339.183594 91.382812 326.1875 82.746094 326.1875 82.746094 C 326.1875 82.746094 313.21875 91.382812 295.925781 91.382812 C 278.625 91.382812 265.675781 86.523438 265.675781 86.523438 C 264.035156 129.734375 265.675781 174.039062 282.421875 197.269531 C 299.183594 220.519531 326.1875 236.714844 326.1875 236.714844 C 326.1875 236.714844 353.25 220.507812 370.011719 197.269531 C 386.738281 174.050781 388.386719 129.742188 386.769531 86.523438 Z M 386.769531 86.523438 " fill-opacity="1" fill-rule="nonzero"/><path fill="#ff9900" d="M 311.046875 93.011719 C 311.046875 93.011719 311.589844 100.578125 314.824219 103.269531 C 314.824219 103.269531 322.933594 101.652344 329.414062 104.355469 C 334.542969 106.492188 344 110.292969 348.863281 108.675781 C 353.714844 107.058594 358.046875 105.441406 359.144531 106.515625 C 360.21875 107.589844 353.726562 109.21875 352.640625 110.292969 C 351.554688 111.378906 347.789062 112.464844 349.949219 115.699219 C 352.121094 118.945312 355.898438 121.648438 354.8125 124.890625 C 354.8125 124.890625 349.949219 121.113281 347.789062 117.871094 C 345.617188 114.625 340.753906 111.921875 332.648438 113.007812 C 324.539062 114.09375 318.070312 118.414062 316.996094 123.273438 C 315.910156 128.125 321.847656 127.59375 326.710938 128.667969 C 326.710938 128.667969 319.6875 131.371094 315.910156 131.371094 C 315.910156 131.371094 312.664062 137.320312 309.417969 142.714844 C 306.183594 148.121094 305.628906 151.367188 304.023438 150.824219 C 302.40625 150.28125 301.851562 142.714844 302.9375 138.394531 C 302.9375 138.394531 299.160156 136.234375 299.691406 125.433594 C 300.15625 116.207031 306.714844 107.601562 306.714844 107.601562 C 306.714844 107.601562 306.183594 104.367188 306.714844 100.578125 C 307.269531 96.789062 311.046875 93.011719 311.046875 93.011719 Z M 311.046875 93.011719 " fill-opacity="1" fill-rule="nonzero"/><path fill="#ffffff" d="M 305.109375 131.09375 C 305.109375 132.148438 304.265625 132.988281 303.214844 132.988281 C 302.164062 132.988281 301.320312 132.148438 301.320312 131.09375 C 301.320312 130.054688 302.164062 129.210938 303.214844 129.210938 C 304.265625 129.210938 305.109375 130.054688 305.109375 131.09375 Z M 305.109375 131.09375 " fill-opacity="1" fill-rule="nonzero"/><path fill="#ff9900" d="M 293.808594 185.292969 C 293.808594 185.292969 299.339844 180.089844 299.371094 175.878906 C 299.371094 175.878906 293 170.617188 290.984375 163.882812 C 289.390625 158.566406 286.367188 148.828125 282.035156 146.082031 C 277.691406 143.335938 273.714844 141.007812 273.859375 139.492188 C 274.027344 137.972656 279.375 141.972656 280.90625 142.128906 C 282.421875 142.28125 285.644531 144.53125 286.796875 140.808594 C 287.949219 137.089844 287.640625 132.445312 290.832031 131.226562 C 290.832031 131.226562 290.984375 137.386719 289.832031 141.109375 C 288.679688 144.820312 289.667969 150.304688 295.617188 155.898438 C 301.585938 161.492188 309.03125 163.785156 313.484375 161.535156 C 317.9375 159.308594 313.761719 155.054688 311.511719 150.589844 C 311.511719 150.589844 318.058594 154.324219 320.449219 157.269531 C 320.449219 157.269531 327.109375 156.019531 333.332031 155.109375 C 339.570312 154.203125 342.417969 152.574219 343.027344 154.179688 C 343.636719 155.773438 338.121094 160.96875 334.066406 162.875 C 334.066406 162.875 334.796875 167.160156 326.078125 173.574219 C 318.625 179.058594 307.8125 179.414062 307.8125 179.414062 C 307.8125 179.414062 305.664062 181.882812 302.375 183.84375 C 299.136719 185.828125 293.808594 185.292969 293.808594 185.292969 Z M 293.808594 185.292969 " fill-opacity="1" fill-rule="nonzero"/><path fill="#ffffff" d="M 327.074219 165.808594 C 327.882812 165.15625 329.089844 165.277344 329.734375 166.085938 C 330.410156 166.886719 330.277344 168.09375 329.46875 168.746094 C 328.660156 169.398438 327.472656 169.277344 326.820312 168.480469 C 326.144531 167.671875 326.277344 166.464844 327.074219 165.808594 Z M 327.074219 165.808594 " fill-opacity="1" fill-rule="nonzero"/><path fill="#ff9900" d="M 379.738281 153.195312 C 379.738281 153.195312 372.679688 150.359375 368.847656 152.085938 C 368.847656 152.085938 366.765625 160.074219 361.492188 164.726562 C 357.316406 168.425781 349.761719 175.246094 349.085938 180.320312 C 348.421875 185.40625 347.976562 190.003906 346.550781 190.5 C 345.109375 191 346.484375 184.464844 345.984375 183.011719 C 345.484375 181.574219 346.171875 177.695312 342.304688 178.214844 C 338.453125 178.738281 334.351562 180.953125 331.917969 178.570312 C 331.917969 178.570312 337.453125 175.847656 341.308594 175.3125 C 345.164062 174.804688 349.726562 171.605469 352.308594 163.859375 C 354.878906 156.085938 353.839844 148.375 349.925781 145.273438 C 346.039062 142.171875 343.914062 147.753906 340.8125 151.664062 C 340.8125 151.664062 341.464844 144.144531 343.113281 140.753906 C 343.113281 140.753906 339.195312 135.238281 335.761719 129.953125 C 332.324219 124.671875 329.632812 122.777344 330.839844 121.546875 C 332.027344 120.339844 339.082031 123.152344 342.484375 126.023438 C 342.484375 126.023438 346.09375 123.5625 355.578125 128.78125 C 363.675781 133.246094 368.515625 142.902344 368.515625 142.902344 C 368.515625 142.902344 371.671875 143.832031 374.839844 145.984375 C 377.984375 148.132812 379.738281 153.195312 379.738281 153.195312 Z M 379.738281 153.195312 " fill-opacity="1" fill-rule="nonzero"/><path fill="#ffffff" d="M 348.101562 131.160156 C 347.160156 130.707031 346.757812 129.578125 347.226562 128.636719 C 347.679688 127.695312 348.808594 127.308594 349.761719 127.761719 C 350.691406 128.226562 351.078125 129.34375 350.613281 130.285156 C 350.160156 131.226562 349.019531 131.628906 348.101562 131.160156 Z M 348.101562 131.160156 " fill-opacity="1" fill-rule="nonzero"/><path fill="#99ccff" d="M 279.929688 193.515625 C 280.71875 194.820312 281.546875 196.082031 282.421875 197.28125 C 299.183594 220.53125 326.1875 236.726562 326.1875 236.726562 C 326.1875 236.726562 353.25 220.519531 370.011719 197.28125 C 370.875 196.082031 371.695312 194.820312 372.492188 193.515625 Z M 279.929688 193.515625 " fill-opacity="1" fill-rule="nonzero"/><g clip-path="url(#dc203421ab)"><path fill="#00247d" d="M 227.082031 144 L 227.082031 0 L 60.921875 0 C 57.378906 0 54.230469 0.5 54.230469 0.5 L 54.1875 19.925781 L 23.945312 19.882812 C 23.945312 19.882812 23.480469 20.535156 22.539062 22.152344 C 18.773438 28.679688 16.613281 36.242188 16.613281 44.308594 L 16.613281 144 Z M 227.082031 144 " fill-opacity="1" fill-rule="nonzero"/><path fill="#eeeeee" d="M 227.082031 0 L 201.261719 0 L 149.539062 36.210938 L 149.539062 0 L 94.152344 0 L 94.152344 28.457031 L 54.230469 0.5 C 47.429688 1.539062 41.050781 4.097656 35.710938 7.863281 L 87.796875 44.308594 L 68.566406 44.308594 L 27.324219 15.40625 C 26.105469 16.835938 24.988281 18.308594 23.945312 19.882812 L 58.851562 44.308594 L 16.613281 44.308594 L 16.613281 99.691406 L 59.648438 99.691406 L 16.613281 130.332031 L 16.613281 144 L 53.523438 144 L 94.152344 115.554688 L 94.152344 144 L 149.539062 144 L 149.539062 107.789062 L 201.25 144 L 227.082031 144 L 227.082031 121.523438 L 195.898438 99.691406 L 227.082031 99.691406 L 227.082031 44.308594 L 195.910156 44.308594 L 227.082031 22.476562 Z M 227.082031 0 " fill-opacity="1" fill-rule="nonzero"/><path fill="#cf1b2b" d="M 138.464844 0 L 105.230469 0 L 105.230469 55.382812 L 16.613281 55.382812 L 16.613281 88.617188 L 105.230469 88.617188 L 105.230469 144 L 138.464844 144 L 138.464844 88.617188 L 227.082031 88.617188 L 227.082031 55.382812 L 138.464844 55.382812 Z M 138.464844 0 " fill-opacity="1" fill-rule="nonzero"/></g><path fill="#cf1b2b" d="M 227.082031 0 L 210.898438 0 L 149.539062 42.96875 L 149.539062 44.308594 L 166.941406 44.308594 L 227.082031 2.191406 Z M 35.710938 7.863281 C 32.597656 10.023438 29.796875 12.550781 27.324219 15.40625 L 68.566406 44.308594 L 87.785156 44.308594 Z M 87.917969 99.691406 L 24.742188 144 L 43.875 144 L 94.152344 108.796875 L 94.152344 99.691406 Z M 227.082031 141.808594 L 227.082031 128.292969 L 186.238281 99.691406 L 166.929688 99.691406 Z M 227.082031 141.808594 " fill-opacity="1" fill-rule="nonzero"/></svg>