<svg xmlns="http://www.w3.org/2000/svg" xmlns:xlink="http://www.w3.org/1999/xlink" width="576" zoomAndPan="magnify" viewBox="0 0 432 287.999989" height="384" preserveAspectRatio="xMidYMid meet" version="1.0"><defs><clipPath id="aa14ae2299"><path d="M 16.503906 99 L 415.503906 99 L 415.503906 189 L 16.503906 189 Z M 16.503906 99 " clip-rule="nonzero"/></clipPath><clipPath id="f520741374"><path d="M 16.503906 0 L 415.503906 0 L 415.503906 100 L 16.503906 100 Z M 16.503906 0 " clip-rule="nonzero"/></clipPath><clipPath id="0b48026c38"><path d="M 16.503906 188 L 415.503906 188 L 415.503906 288 L 16.503906 288 Z M 16.503906 188 " clip-rule="nonzero"/></clipPath></defs><g clip-path="url(#aa14ae2299)"><path fill="#eeeeee" d="M 16.613281 99.691406 L 415.394531 99.691406 L 415.394531 188.308594 L 16.613281 188.308594 Z M 16.613281 99.691406 " fill-opacity="1" fill-rule="nonzero"/></g><g clip-path="url(#f520741374)"><path fill="#ae1f28" d="M 371.085938 0 L 60.921875 0 C 36.453125 0 16.613281 19.839844 16.613281 44.308594 L 16.613281 99.691406 L 415.394531 99.691406 L 415.394531 44.308594 C 415.394531 19.839844 395.554688 0 371.085938 0 Z M 371.085938 0 " fill-opacity="1" fill-rule="nonzero"/></g><g clip-path="url(#0b48026c38)"><path fill="#20478b" d="M 60.921875 288 L 371.085938 288 C 395.554688 288 415.394531 268.160156 415.394531 243.691406 L 415.394531 188.308594 L 16.613281 188.308594 L 16.613281 243.691406 C 16.613281 268.160156 36.453125 288 60.921875 288 Z M 60.921875 288 " fill-opacity="1" fill-rule="nonzero"/></g></svg>