<svg xmlns="http://www.w3.org/2000/svg" xmlns:xlink="http://www.w3.org/1999/xlink" width="576" zoomAndPan="magnify" viewBox="0 0 432 287.999989" height="384" preserveAspectRatio="xMidYMid meet" version="1.0"><defs><clipPath id="3ab312c42e"><path d="M 16.503906 0 L 415.503906 0 L 415.503906 288 L 16.503906 288 Z M 16.503906 0 " clip-rule="nonzero"/></clipPath><clipPath id="98b292031f"><path d="M 16.503906 0 L 228 0 L 228 144 L 16.503906 144 Z M 16.503906 0 " clip-rule="nonzero"/></clipPath></defs><g clip-path="url(#3ab312c42e)"><path fill="#cf1b2b" d="M 371.085938 0 L 60.921875 0 C 58.652344 0 56.414062 0.167969 54.230469 0.5 L 54.1875 19.925781 L 23.945312 19.882812 C 19.316406 26.882812 16.613281 35.28125 16.613281 44.308594 L 16.613281 243.691406 C 16.613281 268.160156 36.453125 288 60.921875 288 L 371.085938 288 C 395.554688 288 415.394531 268.160156 415.394531 243.691406 L 415.394531 44.308594 C 415.394531 19.839844 395.554688 0 371.085938 0 Z M 371.085938 0 " fill-opacity="1" fill-rule="nonzero"/></g><path fill="#000000" d="M 266.769531 84.019531 L 266.769531 184.453125 C 266.769531 191.53125 268.386719 201.234375 281.304688 207.238281 C 292.304688 212.355469 308.699219 218.238281 316.152344 222.957031 C 320.328125 225.570312 326.777344 230.023438 326.777344 230.023438 C 326.777344 230.023438 333.222656 225.582031 337.386719 222.957031 C 344.855469 218.238281 360.085938 212.355469 371.085938 207.238281 C 384.011719 201.234375 385.617188 191.53125 385.617188 184.453125 L 385.617188 84.019531 Z M 266.769531 84.019531 " fill-opacity="1" fill-rule="nonzero"/><path fill="#2e8f22" d="M 272.585938 182.25 C 272.664062 188.828125 274.359375 198.6875 286.179688 204.179688 C 296.480469 208.964844 309.851562 214.472656 316.839844 218.890625 C 320.738281 221.351562 326.777344 225.503906 326.777344 225.503906 C 326.777344 225.503906 332.8125 221.351562 336.703125 218.890625 C 343.691406 214.472656 357.105469 208.964844 367.394531 204.179688 C 379.214844 198.6875 380.921875 188.816406 381 182.25 Z M 272.585938 182.25 " fill-opacity="1" fill-rule="nonzero"/><path fill="#ffffff" d="M 272.585938 89.789062 L 381 89.789062 L 381 183.269531 L 272.585938 183.269531 Z M 272.585938 89.789062 " fill-opacity="1" fill-rule="nonzero"/><path fill="#cf1b2b" d="M 369.554688 170.320312 C 368.78125 166 369.554688 159.320312 368.382812 157.347656 C 367.207031 155.386719 356.207031 151.464844 348.34375 152.242188 C 340.5 153.027344 345.984375 142.425781 351.488281 139.679688 C 356.996094 136.921875 362.101562 134.5625 362.878906 131.425781 C 363.664062 128.28125 360.90625 125.921875 356.199219 126.707031 C 351.476562 127.496094 348.730469 127.496094 345.972656 130.242188 C 343.226562 132.988281 342.839844 129.855469 341.652344 126.707031 C 340.488281 123.574219 342.429688 122.390625 342.839844 119.242188 C 343.226562 116.109375 342.441406 107.457031 340.078125 103.921875 C 337.730469 100.390625 338.9375 98.042969 335.019531 96.070312 C 331.085938 94.097656 326.796875 92.535156 326.796875 92.535156 C 326.796875 92.535156 322.476562 94.109375 318.546875 96.070312 C 314.625 98.042969 315.796875 100.390625 313.449219 103.921875 C 311.089844 107.457031 310.304688 116.109375 310.691406 119.242188 C 311.089844 122.390625 313.039062 123.574219 311.878906 126.707031 C 310.691406 129.855469 310.304688 132.988281 307.558594 130.242188 C 304.800781 127.496094 302.050781 127.496094 297.332031 126.707031 C 292.625 125.921875 289.867188 128.28125 290.652344 131.425781 C 291.429688 134.5625 296.535156 136.921875 302.039062 139.679688 C 307.546875 142.425781 313.03125 153.027344 305.1875 152.242188 C 297.320312 151.464844 286.332031 155.386719 285.148438 157.347656 C 283.972656 159.320312 284.75 166 283.972656 170.320312 C 283.1875 174.640625 281.226562 178.171875 283.1875 177.386719 C 285.160156 176.609375 294.1875 173.464844 298.519531 170.320312 C 302.839844 167.171875 307.945312 182.890625 305.984375 186.8125 C 304 190.734375 303.625 193.492188 300.480469 191.917969 C 297.332031 190.347656 292.625 192.707031 291.050781 195.851562 C 289.480469 198.984375 293.011719 200.945312 296.945312 203.695312 C 300.867188 206.453125 305.574219 200.945312 307.546875 198.199219 C 309.507812 195.441406 326.789062 186.8125 326.789062 186.8125 C 326.789062 186.8125 344.046875 195.441406 345.996094 198.199219 C 347.96875 200.945312 352.664062 206.453125 356.597656 203.695312 C 360.515625 200.945312 364.050781 198.984375 362.46875 195.851562 C 360.894531 192.707031 356.1875 190.347656 353.039062 191.917969 C 349.894531 193.492188 349.507812 190.734375 347.523438 186.8125 C 345.574219 182.890625 350.667969 167.171875 354.988281 170.320312 C 359.320312 173.464844 368.347656 176.597656 370.320312 177.386719 C 372.304688 178.171875 370.355469 174.640625 369.554688 170.320312 Z M 369.554688 170.320312 " fill-opacity="1" fill-rule="nonzero"/><path fill="#ffe000" d="M 358.523438 148.320312 C 358.523438 148.320312 359.707031 151.066406 361.269531 151.066406 C 362.832031 151.066406 365.601562 147.542969 363.242188 144.796875 C 360.894531 142.039062 358.910156 140.863281 360.109375 138.515625 C 361.269531 136.15625 358.136719 132.226562 358.136719 132.226562 C 356.5625 134.574219 352.242188 138.117188 344.777344 133.398438 C 337.3125 128.691406 331.417969 127.894531 330.242188 130.652344 L 323.296875 130.652344 C 322.136719 127.90625 316.230469 128.691406 308.765625 133.398438 C 301.296875 138.105469 296.96875 134.574219 295.40625 132.226562 C 295.40625 132.226562 292.269531 136.15625 293.433594 138.515625 C 294.617188 140.863281 292.648438 142.039062 290.300781 144.796875 C 287.9375 147.542969 290.699219 151.066406 292.269531 151.066406 C 293.84375 151.066406 295.019531 148.320312 295.019531 148.320312 C 295.019531 148.320312 300.113281 152.640625 299.738281 158.53125 C 299.339844 164.414062 291.484375 169.910156 291.484375 169.910156 C 293.84375 172.65625 293.84375 176.597656 296.203125 183.65625 C 298.550781 190.734375 306.804688 188.761719 306.804688 188.761719 C 307.203125 193.09375 314.667969 197.414062 317.40625 197.414062 C 320.164062 197.414062 320.9375 199.761719 320.9375 199.761719 C 320.9375 199.761719 317.804688 201.734375 319.367188 203.304688 C 320.839844 204.769531 326.113281 202.785156 326.765625 202.542969 C 327.417969 202.785156 332.691406 204.769531 334.164062 203.304688 C 335.738281 201.722656 332.589844 199.761719 332.589844 199.761719 C 332.589844 199.761719 333.367188 197.414062 336.125 197.414062 C 338.863281 197.414062 346.328125 193.082031 346.726562 188.761719 C 346.726562 188.761719 354.980469 190.734375 357.328125 183.65625 C 359.6875 176.589844 359.6875 172.65625 362.046875 169.910156 C 362.046875 169.910156 354.191406 164.414062 353.792969 158.53125 C 353.429688 152.640625 358.523438 148.320312 358.523438 148.320312 Z M 358.523438 148.320312 " fill-opacity="1" fill-rule="nonzero"/><path fill="#64b4d1" d="M 363.308594 145.175781 C 360.949219 142.425781 358.988281 141.242188 360.164062 138.894531 C 361.347656 136.535156 358.589844 134.972656 358.589844 134.972656 C 357.015625 137.332031 350.460938 140.6875 344.855469 137.332031 C 338.960938 133.785156 337.386719 134.574219 335.816406 133.785156 C 335.816406 133.785156 336.777344 136.523438 334.640625 137.332031 C 331.507812 138.507812 330.308594 135.746094 330.308594 135.746094 L 323.253906 135.746094 C 323.253906 135.746094 322.070312 138.507812 318.921875 137.332031 C 316.785156 136.523438 317.75 133.785156 317.75 133.785156 C 316.164062 134.574219 314.601562 133.785156 308.710938 137.332031 C 303.105469 140.6875 296.535156 137.332031 294.972656 134.972656 C 294.972656 134.972656 292.214844 136.546875 293.402344 138.894531 C 294.574219 141.242188 292.613281 142.425781 290.253906 145.175781 C 287.894531 147.921875 291.429688 145.5625 293 145.5625 C 294.574219 145.5625 298.507812 148.320312 298.507812 148.320312 C 298.507812 148.320312 302.828125 151.464844 302.429688 158.933594 C 302.117188 164.824219 293.390625 170.695312 293.390625 170.695312 C 295.738281 173.464844 298.097656 183.277344 298.097656 183.277344 C 300.457031 188.394531 351.445312 164.824219 351.125 158.933594 C 350.734375 151.464844 355.046875 148.320312 355.046875 148.320312 C 355.046875 148.320312 358.976562 145.5625 360.550781 145.5625 C 362.125 145.574219 365.667969 147.921875 363.308594 145.175781 Z M 363.308594 145.175781 " fill-opacity="1" fill-rule="nonzero"/><path fill="#cccccc" d="M 351.125 158.933594 C 351.070312 157.890625 351.113281 156.9375 351.210938 156.074219 C 347.480469 156.296875 343.824219 154.324219 342.484375 152.640625 C 340.910156 150.679688 338.960938 150.679688 335.417969 152.640625 C 331.882812 154.613281 331.882812 160.09375 331.882812 160.09375 L 331.882812 160.890625 L 353.484375 175.015625 L 359.707031 171.292969 C 359.863281 171.070312 359.996094 170.882812 360.164062 170.683594 C 360.164062 170.695312 351.445312 164.824219 351.125 158.933594 Z M 351.125 158.933594 " fill-opacity="1" fill-rule="nonzero"/><path fill="#e4cb5e" d="M 300.855469 142.824219 L 303.601562 171.890625 L 316.164062 181.316406 L 329.136719 170.707031 L 326.386719 162.464844 L 324.816406 151.863281 L 320.097656 148.71875 L 316.164062 140.863281 L 311.070312 140.464844 L 308.320312 142.425781 C 308.320312 142.425781 305.960938 140.855469 305.960938 141.253906 C 305.960938 141.652344 303.992188 143.613281 303.992188 143.613281 Z M 300.855469 142.824219 " fill-opacity="1" fill-rule="nonzero"/><path fill="#000000" d="M 322.84375 144 L 327.5625 142.824219 L 334.242188 154.613281 L 340.910156 153.824219 L 342.097656 156.960938 L 324.027344 162.851562 L 324.027344 158.132812 L 324.816406 156.570312 Z M 322.84375 144 " fill-opacity="1" fill-rule="nonzero"/><path fill="#000000" d="M 310.28125 147.921875 L 312.242188 176.210938 L 314.214844 175.027344 C 314.214844 175.027344 311.46875 151.855469 311.855469 152.242188 C 312.242188 152.640625 317.75 172.28125 317.75 172.28125 L 320.109375 173.066406 L 313.429688 148.707031 L 324.027344 167.171875 L 325.988281 162.453125 L 315 147.535156 L 311.855469 143.613281 Z M 310.28125 147.921875 " fill-opacity="1" fill-rule="nonzero"/><path fill="#9f5a2b" d="M 323.628906 160.09375 L 341.320312 156.171875 L 349.175781 167.949219 L 346.027344 176.976562 C 346.027344 176.976562 332.667969 183.65625 332.292969 184.054688 C 331.894531 184.441406 319.320312 182.867188 319.320312 182.867188 Z M 323.628906 160.09375 " fill-opacity="1" fill-rule="nonzero"/><path fill="#cccccc" d="M 344.058594 185.25 C 344.058594 185.25 344.84375 182.890625 347.203125 183.277344 C 349.550781 183.667969 348.777344 186.414062 348.777344 186.414062 C 348.777344 186.414062 353.097656 188.394531 355.457031 183.277344 C 355.621094 183.046875 355.742188 182.792969 355.84375 182.503906 C 357.261719 178.25 357.816406 173.476562 360.164062 170.707031 C 360.164062 170.707031 359.941406 170.574219 359.574219 170.296875 C 357.492188 171.136719 355.84375 172.289062 355.84375 172.289062 C 355.84375 172.289062 355.84375 168.769531 351.921875 167.96875 C 348 167.183594 344.066406 173.078125 344.066406 173.078125 C 342.496094 168.371094 336.203125 173.078125 333.457031 177.398438 C 330.71875 181.726562 324.027344 180.542969 324.027344 180.542969 L 322.832031 178.183594 C 322.832031 178.183594 323.242188 174.261719 320.097656 172.289062 C 316.949219 170.328125 312.230469 175.039062 312.230469 175.039062 C 313.417969 169.929688 307.910156 170.707031 306.75 171.515625 C 305.5625 172.289062 303.601562 169.542969 300.855469 168.769531 C 298.796875 168.179688 296.957031 172.644531 296.003906 176.398438 C 296.570312 178.371094 297.046875 180.5 297.710938 182.515625 C 297.808594 182.800781 297.941406 183.066406 298.097656 183.289062 C 300.457031 188.40625 304.777344 186.425781 304.777344 186.425781 C 304.777344 186.425781 304 183.675781 306.351562 183.289062 C 308.710938 182.902344 309.496094 185.261719 309.496094 185.261719 C 309.496094 185.261719 312.242188 184.476562 313.03125 186.835938 C 313.804688 189.195312 310.28125 189.980469 310.28125 189.980469 C 309.894531 190.753906 312.242188 194.300781 320.417969 196.128906 C 321.980469 197.234375 322.84375 199.382812 322.84375 199.382812 L 322.84375 202.90625 L 330.707031 202.90625 L 330.707031 199.382812 C 330.707031 199.382812 331.5625 197.234375 333.132812 196.105469 C 341.308594 194.277344 343.65625 190.746094 343.269531 189.957031 C 343.269531 189.957031 339.746094 189.171875 340.523438 186.8125 C 341.308594 184.453125 344.058594 185.25 344.058594 185.25 Z M 344.058594 185.25 " fill-opacity="1" fill-rule="nonzero"/><path fill="#ffffff" d="M 321.269531 100.402344 L 325.214844 102.363281 L 324.429688 103.933594 L 320.507812 103.148438 Z M 331.882812 100.402344 L 327.960938 102.363281 L 328.738281 103.933594 L 332.660156 103.148438 Z M 331.882812 100.402344 " fill-opacity="1" fill-rule="nonzero"/><path fill="#000000" d="M 335.027344 105.496094 L 335.804688 102.75 L 332.28125 106.292969 L 330.707031 108.253906 L 328.738281 106.292969 L 326.777344 108.253906 L 324.816406 106.292969 L 322.84375 108.253906 L 321.269531 106.292969 L 317.75 102.75 L 318.523438 105.496094 L 314.589844 108.253906 L 318.136719 106.683594 L 320.097656 107.46875 L 322.058594 109.429688 L 324.816406 108.652344 L 326.777344 111 L 328.738281 108.652344 L 331.496094 109.429688 L 333.457031 107.46875 L 335.417969 106.683594 L 338.960938 108.253906 Z M 335.027344 105.496094 " fill-opacity="1" fill-rule="nonzero"/><g clip-path="url(#98b292031f)"><path fill="#00247d" d="M 227.082031 144 L 227.082031 0 L 60.921875 0 C 57.378906 0 54.230469 0.5 54.230469 0.5 L 54.1875 19.925781 L 23.945312 19.882812 C 23.945312 19.882812 23.480469 20.535156 22.539062 22.152344 C 18.773438 28.679688 16.613281 36.242188 16.613281 44.308594 L 16.613281 144 Z M 227.082031 144 " fill-opacity="1" fill-rule="nonzero"/><path fill="#eeeeee" d="M 227.082031 0 L 201.261719 0 L 149.539062 36.210938 L 149.539062 0 L 94.152344 0 L 94.152344 28.457031 L 54.230469 0.5 C 47.429688 1.539062 41.050781 4.097656 35.710938 7.863281 L 87.796875 44.308594 L 68.566406 44.308594 L 27.324219 15.40625 C 26.105469 16.835938 24.988281 18.308594 23.945312 19.882812 L 58.851562 44.308594 L 16.613281 44.308594 L 16.613281 99.691406 L 59.648438 99.691406 L 16.613281 130.332031 L 16.613281 144 L 53.523438 144 L 94.152344 115.554688 L 94.152344 144 L 149.539062 144 L 149.539062 107.789062 L 201.25 144 L 227.082031 144 L 227.082031 121.523438 L 195.898438 99.691406 L 227.082031 99.691406 L 227.082031 44.308594 L 195.910156 44.308594 L 227.082031 22.476562 Z M 227.082031 0 " fill-opacity="1" fill-rule="nonzero"/><path fill="#cf1b2b" d="M 138.464844 0 L 105.230469 0 L 105.230469 55.382812 L 16.613281 55.382812 L 16.613281 88.617188 L 105.230469 88.617188 L 105.230469 144 L 138.464844 144 L 138.464844 88.617188 L 227.082031 88.617188 L 227.082031 55.382812 L 138.464844 55.382812 Z M 138.464844 0 " fill-opacity="1" fill-rule="nonzero"/></g><path fill="#cf1b2b" d="M 227.082031 0 L 210.898438 0 L 149.539062 42.96875 L 149.539062 44.308594 L 166.941406 44.308594 L 227.082031 2.191406 Z M 35.710938 7.863281 C 32.597656 10.023438 29.796875 12.550781 27.324219 15.40625 L 68.566406 44.308594 L 87.785156 44.308594 Z M 87.917969 99.691406 L 24.742188 144 L 43.875 144 L 94.152344 108.796875 L 94.152344 99.691406 Z M 227.082031 141.808594 L 227.082031 128.292969 L 186.238281 99.691406 L 166.929688 99.691406 Z M 227.082031 141.808594 " fill-opacity="1" fill-rule="nonzero"/></svg>