<svg xmlns="http://www.w3.org/2000/svg" xmlns:xlink="http://www.w3.org/1999/xlink" width="576" zoomAndPan="magnify" viewBox="0 0 432 287.999989" height="384" preserveAspectRatio="xMidYMid meet" version="1.0"><defs><clipPath id="66d989ff57"><path d="M 16.503906 0 L 150 0 L 150 288 L 16.503906 288 Z M 16.503906 0 " clip-rule="nonzero"/></clipPath><clipPath id="ebe9c0cea7"><path d="M 182 0 L 415.503906 0 L 415.503906 288 L 182 288 Z M 182 0 " clip-rule="nonzero"/></clipPath></defs><path fill="#cc212d" d="M 149.539062 0 L 149.539062 288 L 282.46875 288 L 282.46875 0 Z M 236.851562 172.6875 L 216.003906 157.546875 L 195.15625 172.6875 L 203.121094 148.1875 L 182.273438 133.042969 L 208.039062 133.042969 L 216.003906 108.53125 L 223.96875 133.035156 L 249.734375 133.035156 L 228.886719 148.175781 Z M 236.851562 172.6875 " fill-opacity="1" fill-rule="nonzero"/><g clip-path="url(#66d989ff57)"><path fill="#288541" d="M 60.921875 0 C 36.453125 0 16.613281 19.839844 16.613281 44.308594 L 16.613281 243.691406 C 16.613281 268.160156 36.453125 288 60.921875 288 L 149.539062 288 L 149.539062 0 Z M 60.921875 0 " fill-opacity="1" fill-rule="nonzero"/></g><g clip-path="url(#ebe9c0cea7)"><path fill="#fee833" d="M 371.085938 0 L 282.46875 0 L 282.46875 288 L 371.085938 288 C 395.554688 288 415.394531 268.160156 415.394531 243.691406 L 415.394531 44.308594 C 415.394531 19.839844 395.554688 0 371.085938 0 Z M 223.96875 133.042969 L 216.003906 108.53125 L 208.039062 133.042969 L 182.273438 133.042969 L 203.121094 148.1875 L 195.15625 172.6875 L 216.003906 157.546875 L 236.851562 172.6875 L 228.886719 148.1875 L 249.734375 133.042969 Z M 223.96875 133.042969 " fill-opacity="1" fill-rule="nonzero"/></g></svg>