<svg xmlns="http://www.w3.org/2000/svg" xmlns:xlink="http://www.w3.org/1999/xlink" width="576" zoomAndPan="magnify" viewBox="0 0 432 287.999989" height="384" preserveAspectRatio="xMidYMid meet" version="1.0"><defs><clipPath id="5b9eecc481"><path d="M 16.503906 0 L 415.503906 0 L 415.503906 106 L 16.503906 106 Z M 16.503906 0 " clip-rule="nonzero"/></clipPath><clipPath id="9000f838d3"><path d="M 16.503906 0 L 415.503906 0 L 415.503906 122 L 16.503906 122 Z M 16.503906 0 " clip-rule="nonzero"/></clipPath><clipPath id="545a02ee4b"><path d="M 16.503906 182 L 415.503906 182 L 415.503906 288 L 16.503906 288 Z M 16.503906 182 " clip-rule="nonzero"/></clipPath><clipPath id="9ce2bd1580"><path d="M 16.503906 0 L 415.503906 0 L 415.503906 288 L 16.503906 288 Z M 16.503906 0 " clip-rule="nonzero"/></clipPath><clipPath id="a8467c57a4"><path d="M 16.503906 166 L 415.503906 166 L 415.503906 288 L 16.503906 288 Z M 16.503906 166 " clip-rule="nonzero"/></clipPath></defs><g clip-path="url(#5b9eecc481)"><path fill="#eeeeee" d="M 121.226562 0 L 60.921875 0 C 36.453125 0 16.613281 19.839844 16.613281 44.308594 L 16.613281 105.230469 L 121.226562 105.230469 Z M 415.394531 105.230469 L 415.394531 44.308594 C 415.394531 19.839844 395.554688 0 371.085938 0 L 199.386719 0 L 199.386719 105.230469 Z M 415.394531 105.230469 " fill-opacity="1" fill-rule="nonzero"/></g><g clip-path="url(#9000f838d3)"><path fill="#0065bd" d="M 415.394531 121.847656 L 415.394531 105.230469 L 199.386719 105.230469 L 199.386719 0 L 182.773438 0 L 182.773438 121.847656 Z M 138.464844 0 L 121.226562 0 L 121.226562 105.230469 L 16.613281 105.230469 L 16.613281 121.847656 L 138.464844 121.847656 Z M 138.464844 0 " fill-opacity="1" fill-rule="nonzero"/></g><g clip-path="url(#545a02ee4b)"><path fill="#eeeeee" d="M 16.613281 182.769531 L 16.613281 243.691406 C 16.613281 268.160156 36.453125 288 60.921875 288 L 121.226562 288 L 121.226562 182.769531 Z M 199.386719 182.769531 L 199.386719 288 L 371.085938 288 C 395.554688 288 415.394531 268.160156 415.394531 243.691406 L 415.394531 182.769531 Z M 199.386719 182.769531 " fill-opacity="1" fill-rule="nonzero"/></g><g clip-path="url(#9ce2bd1580)"><path fill="#ed2939" d="M 182.773438 121.847656 L 182.773438 0 L 138.464844 0 L 138.464844 121.847656 L 16.613281 121.847656 L 16.613281 166.152344 L 138.464844 166.152344 L 138.464844 288 L 182.773438 288 L 182.773438 166.152344 L 415.394531 166.152344 L 415.394531 121.847656 Z M 182.773438 121.847656 " fill-opacity="1" fill-rule="nonzero"/></g><g clip-path="url(#a8467c57a4)"><path fill="#0065bd" d="M 182.773438 166.152344 L 182.773438 288 L 199.386719 288 L 199.386719 182.769531 L 415.394531 182.769531 L 415.394531 166.152344 Z M 138.464844 166.152344 L 16.613281 166.152344 L 16.613281 182.769531 L 121.226562 182.769531 L 121.226562 288 L 138.464844 288 Z M 138.464844 166.152344 " fill-opacity="1" fill-rule="nonzero"/></g></svg>