<svg xmlns="http://www.w3.org/2000/svg" xmlns:xlink="http://www.w3.org/1999/xlink" width="576" zoomAndPan="magnify" viewBox="0 0 432 287.999989" height="384" preserveAspectRatio="xMidYMid meet" version="1.0"><defs><clipPath id="e12b857635"><path d="M 282 0 L 415.503906 0 L 415.503906 288 L 282 288 Z M 282 0 " clip-rule="nonzero"/></clipPath><clipPath id="f8b0b3752f"><path d="M 16.503906 0 L 150 0 L 150 288 L 16.503906 288 Z M 16.503906 0 " clip-rule="nonzero"/></clipPath></defs><g clip-path="url(#e12b857635)"><path fill="#ed2939" d="M 415.394531 243.691406 C 415.394531 268.160156 395.554688 288 371.085938 288 L 282.46875 288 L 282.46875 0 L 371.085938 0 C 395.554688 0 415.394531 19.839844 415.394531 44.308594 Z M 415.394531 243.691406 " fill-opacity="1" fill-rule="nonzero"/></g><g clip-path="url(#f8b0b3752f)"><path fill="#002495" d="M 60.921875 0 C 36.453125 0 16.613281 19.839844 16.613281 44.308594 L 16.613281 243.691406 C 16.613281 268.160156 36.453125 288 60.921875 288 L 149.539062 288 L 149.539062 0 Z M 60.921875 0 " fill-opacity="1" fill-rule="nonzero"/></g><path fill="#eeeeee" d="M 149.539062 0 L 282.46875 0 L 282.46875 288 L 149.539062 288 Z M 149.539062 0 " fill-opacity="1" fill-rule="nonzero"/></svg>