<svg xmlns="http://www.w3.org/2000/svg" xmlns:xlink="http://www.w3.org/1999/xlink" width="576" zoomAndPan="magnify" viewBox="0 0 432 287.999989" height="384" preserveAspectRatio="xMidYMid meet" version="1.0"><defs><clipPath id="c233cf7390"><path d="M 16.503906 188 L 415.503906 188 L 415.503906 288 L 16.503906 288 Z M 16.503906 188 " clip-rule="nonzero"/></clipPath><clipPath id="c34be1456b"><path d="M 16.503906 0 L 415.503906 0 L 415.503906 200 L 16.503906 200 Z M 16.503906 0 " clip-rule="nonzero"/></clipPath></defs><g clip-path="url(#c233cf7390)"><path fill="#da1c0b" d="M 415.394531 243.691406 C 415.394531 268.160156 395.554688 288 371.085938 288 L 60.921875 288 C 36.453125 288 16.613281 268.160156 16.613281 243.691406 L 16.613281 188.308594 L 415.394531 188.308594 Z M 415.394531 243.691406 " fill-opacity="1" fill-rule="nonzero"/></g><g clip-path="url(#c34be1456b)"><path fill="#eeeeee" d="M 371.085938 0 L 60.921875 0 C 36.453125 0 16.613281 19.839844 16.613281 44.308594 L 16.613281 199.382812 L 415.394531 199.382812 L 415.394531 44.308594 C 415.394531 19.839844 395.554688 0 371.085938 0 Z M 371.085938 0 " fill-opacity="1" fill-rule="nonzero"/></g><path fill="#da1c0b" d="M 176.691406 59.40625 L 176.691406 68.035156 L 168.074219 68.035156 L 168.074219 59.40625 L 150.824219 59.40625 L 150.824219 68.035156 L 142.195312 68.035156 L 142.195312 59.40625 L 133.578125 59.40625 L 133.578125 76.652344 L 142.195312 76.652344 L 142.195312 119.765625 L 176.691406 119.765625 L 176.691406 76.652344 L 185.320312 76.652344 L 185.320312 59.40625 Z M 176.691406 59.40625 " fill-opacity="1" fill-rule="nonzero"/><path fill="#da1c0b" d="M 185.441406 102.515625 L 185.441406 111.144531 L 176.8125 111.144531 L 176.8125 102.515625 L 168.195312 102.515625 L 168.195312 111.144531 L 150.945312 111.144531 L 150.945312 102.515625 L 142.316406 102.515625 L 142.316406 111.144531 L 133.699219 111.144531 L 133.699219 102.515625 L 125.082031 102.515625 L 125.082031 119.765625 L 125.082031 119.753906 L 125.082031 119.765625 L 133.699219 119.765625 L 133.699219 166.886719 L 125.082031 171.492188 L 125.082031 180.121094 L 194.058594 180.121094 L 194.058594 171.492188 L 185.441406 166.886719 L 185.441406 119.765625 L 194.058594 119.765625 L 194.058594 102.515625 Z M 185.441406 102.515625 " fill-opacity="1" fill-rule="nonzero"/><path fill="#000000" d="M 150.824219 93.898438 L 168.074219 93.898438 L 168.074219 111.144531 L 150.824219 111.144531 Z M 150.824219 93.898438 " fill-opacity="1" fill-rule="nonzero"/><path fill="#000000" d="M 168.074219 93.898438 C 168.074219 98.664062 164.21875 102.515625 159.453125 102.515625 C 154.691406 102.515625 150.835938 98.664062 150.835938 93.898438 C 150.835938 89.136719 154.691406 85.28125 159.453125 85.28125 C 164.21875 85.269531 168.074219 89.136719 168.074219 93.898438 Z M 168.074219 148.210938 C 168.074219 141.332031 166.332031 135.746094 159.453125 135.746094 C 152.574219 135.746094 150.835938 141.332031 150.835938 148.210938 L 150.835938 162.886719 L 168.082031 162.886719 L 168.082031 148.210938 Z M 168.074219 148.210938 " fill-opacity="1" fill-rule="nonzero"/><path fill="#da1c0b" d="M 292.546875 59.40625 L 292.546875 68.035156 L 283.929688 68.035156 L 283.929688 59.40625 L 266.683594 59.40625 L 266.683594 68.035156 L 258.0625 68.035156 L 258.0625 59.40625 L 249.433594 59.40625 L 249.433594 76.652344 L 258.0625 76.652344 L 258.0625 119.765625 L 292.546875 119.765625 L 292.546875 76.652344 L 301.1875 76.652344 L 301.1875 59.40625 Z M 292.546875 59.40625 " fill-opacity="1" fill-rule="nonzero"/><path fill="#da1c0b" d="M 301.1875 102.515625 L 301.1875 111.144531 L 292.546875 111.144531 L 292.546875 102.515625 L 283.929688 102.515625 L 283.929688 111.144531 L 266.683594 111.144531 L 266.683594 102.515625 L 258.0625 102.515625 L 258.0625 111.144531 L 249.433594 111.144531 L 249.433594 102.515625 L 240.816406 102.515625 L 240.816406 119.765625 L 240.816406 119.753906 L 240.816406 119.765625 L 249.433594 119.765625 L 249.433594 166.886719 L 240.816406 171.492188 L 240.816406 180.121094 L 309.792969 180.121094 L 309.792969 171.492188 L 301.1875 166.886719 L 301.1875 119.765625 L 309.792969 119.765625 L 309.792969 102.515625 Z M 301.1875 102.515625 " fill-opacity="1" fill-rule="nonzero"/><path fill="#000000" d="M 266.683594 93.898438 L 283.929688 93.898438 L 283.929688 111.144531 L 266.683594 111.144531 Z M 266.683594 93.898438 " fill-opacity="1" fill-rule="nonzero"/><path fill="#000000" d="M 283.929688 93.898438 C 283.929688 98.664062 280.0625 102.515625 275.3125 102.515625 C 270.546875 102.515625 266.691406 98.664062 266.691406 93.898438 C 266.691406 89.136719 270.558594 85.28125 275.3125 85.28125 C 280.0625 85.269531 283.929688 89.136719 283.929688 93.898438 Z M 283.929688 148.210938 C 283.929688 141.332031 282.191406 135.746094 275.3125 135.746094 C 268.433594 135.746094 266.691406 141.332031 266.691406 148.210938 L 266.691406 162.886719 L 283.941406 162.886719 L 283.941406 148.210938 Z M 283.929688 148.210938 " fill-opacity="1" fill-rule="nonzero"/><path fill="#da1c0b" d="M 238.160156 33.230469 L 238.160156 44.308594 L 227.082031 44.308594 L 227.082031 33.230469 L 204.925781 33.230469 L 204.925781 44.308594 L 193.847656 44.308594 L 193.847656 33.230469 L 182.773438 33.230469 L 182.773438 55.382812 L 193.847656 55.382812 L 193.847656 110.769531 L 238.160156 110.769531 L 238.160156 55.382812 L 249.234375 55.382812 L 249.234375 33.230469 Z M 238.160156 33.230469 " fill-opacity="1" fill-rule="nonzero"/><path fill="#da1c0b" d="M 249.234375 88.617188 L 249.234375 99.691406 L 238.160156 99.691406 L 238.160156 88.617188 L 227.082031 88.617188 L 227.082031 99.691406 L 204.925781 99.691406 L 204.925781 88.617188 L 193.847656 88.617188 L 193.847656 99.691406 L 182.773438 99.691406 L 182.773438 88.617188 L 171.695312 88.617188 L 171.695312 188.308594 L 260.3125 188.308594 L 260.3125 88.617188 Z M 249.234375 88.617188 " fill-opacity="1" fill-rule="nonzero"/><path fill="#000000" d="M 204.925781 77.539062 L 227.082031 77.539062 L 227.082031 99.691406 L 204.925781 99.691406 Z M 204.925781 77.539062 " fill-opacity="1" fill-rule="nonzero"/><path fill="#000000" d="M 227.082031 77.539062 C 227.082031 78.265625 227.011719 78.984375 226.867188 79.699219 C 226.726562 80.414062 226.515625 81.105469 226.238281 81.777344 C 225.960938 82.449219 225.617188 83.085938 225.214844 83.691406 C 224.808594 84.296875 224.351562 84.855469 223.835938 85.371094 C 223.320312 85.886719 222.761719 86.34375 222.15625 86.75 C 221.554688 87.152344 220.914062 87.492188 220.242188 87.773438 C 219.570312 88.050781 218.878906 88.261719 218.164062 88.402344 C 217.453125 88.542969 216.730469 88.617188 216.003906 88.617188 C 215.277344 88.617188 214.554688 88.542969 213.84375 88.402344 C 213.128906 88.261719 212.4375 88.050781 211.765625 87.773438 C 211.09375 87.492188 210.453125 87.152344 209.847656 86.75 C 209.246094 86.34375 208.683594 85.886719 208.171875 85.371094 C 207.65625 84.855469 207.199219 84.296875 206.792969 83.691406 C 206.390625 83.085938 206.046875 82.449219 205.769531 81.777344 C 205.492188 81.105469 205.28125 80.414062 205.140625 79.699219 C 204.996094 78.984375 204.925781 78.265625 204.925781 77.539062 C 204.925781 76.8125 204.996094 76.089844 205.140625 75.378906 C 205.28125 74.664062 205.492188 73.972656 205.769531 73.300781 C 206.046875 72.628906 206.390625 71.988281 206.792969 71.382812 C 207.199219 70.78125 207.65625 70.21875 208.171875 69.707031 C 208.683594 69.191406 209.246094 68.730469 209.847656 68.328125 C 210.453125 67.925781 211.09375 67.582031 211.765625 67.304688 C 212.4375 67.027344 213.128906 66.816406 213.84375 66.675781 C 214.554688 66.53125 215.277344 66.460938 216.003906 66.460938 C 216.730469 66.460938 217.453125 66.53125 218.164062 66.675781 C 218.878906 66.816406 219.570312 67.027344 220.242188 67.304688 C 220.914062 67.582031 221.554688 67.925781 222.15625 68.328125 C 222.761719 68.730469 223.320312 69.191406 223.835938 69.707031 C 224.351562 70.21875 224.808594 70.78125 225.214844 71.382812 C 225.617188 71.988281 225.960938 72.628906 226.238281 73.300781 C 226.515625 73.972656 226.726562 74.664062 226.867188 75.378906 C 227.011719 76.089844 227.082031 76.8125 227.082031 77.539062 Z M 227.082031 77.539062 " fill-opacity="1" fill-rule="nonzero"/><path fill="#000000" d="M 232 147.300781 C 232 138.460938 224.84375 131.292969 216.003906 131.292969 C 207.164062 131.292969 200.007812 138.460938 200.007812 147.300781 L 200.007812 171.304688 L 232.011719 171.304688 L 232.011719 147.300781 Z M 232 147.300781 " fill-opacity="1" fill-rule="nonzero"/><path fill="#fff100" d="M 217.796875 203.25 L 217.796875 204.722656 L 229.75 216.664062 L 217.796875 228.605469 L 217.796875 280.855469 L 213.945312 280.855469 L 213.945312 275.019531 L 200.75 275.019531 L 200.75 267.1875 L 204.605469 267.1875 L 204.605469 271.183594 L 213.945312 271.183594 L 213.945312 259.566406 L 204.605469 259.566406 L 204.605469 263.496094 L 200.75 263.496094 L 200.75 255.722656 L 213.945312 255.722656 L 213.945312 228.582031 L 201.980469 216.664062 L 213.945312 204.769531 L 213.945312 203.25 Z M 217.796875 203.25 " fill-opacity="1" fill-rule="nonzero"/><path fill="#da1c0b" d="M 207.585938 216.632812 L 215.871094 208.347656 L 224.15625 216.640625 L 215.859375 224.929688 Z M 207.585938 216.632812 " fill-opacity="1" fill-rule="nonzero"/><path fill="#fff100" d="M 217.632812 180.773438 L 214.375 180.773438 C 211.683594 180.773438 209.5 184.097656 209.5 188.1875 L 209.5 203.007812 C 209.5 207.09375 211.683594 210.417969 214.375 210.417969 L 217.632812 210.417969 C 220.324219 210.417969 222.507812 207.09375 222.507812 203.007812 L 222.507812 188.1875 C 222.507812 184.097656 220.324219 180.773438 217.632812 180.773438 Z M 218.851562 203.25 C 218.851562 205.566406 217.621094 207.425781 216.113281 207.425781 C 214.609375 207.425781 213.367188 205.566406 213.367188 203.25 L 213.367188 188.308594 C 213.367188 186.015625 214.597656 184.152344 216.113281 184.152344 C 217.632812 184.152344 218.851562 186.015625 218.851562 188.308594 Z M 218.851562 203.25 " fill-opacity="1" fill-rule="nonzero"/><path fill="#fff100" d="M 230.691406 169.089844 C 229.507812 168.425781 227.921875 168.445312 227.167969 169.121094 L 216.003906 179.191406 L 204.839844 169.121094 C 204.085938 168.445312 202.5 168.4375 201.316406 169.089844 C 200.117188 169.742188 199.765625 170.816406 200.519531 171.503906 L 214.164062 183.777344 C 214.585938 184.152344 215.273438 184.277344 216.003906 184.230469 C 216.734375 184.277344 217.410156 184.152344 217.84375 183.777344 L 231.488281 171.503906 C 232.253906 170.816406 231.898438 169.730469 230.691406 169.089844 Z M 230.691406 169.089844 " fill-opacity="1" fill-rule="nonzero"/></svg>