<svg xmlns="http://www.w3.org/2000/svg" xmlns:xlink="http://www.w3.org/1999/xlink" width="576" zoomAndPan="magnify" viewBox="0 0 432 287.999989" height="384" preserveAspectRatio="xMidYMid meet" version="1.0"><defs><clipPath id="112ad9a774"><path d="M 182 0 L 415.503906 0 L 415.503906 144 L 182 144 Z M 182 0 " clip-rule="nonzero"/></clipPath><clipPath id="165f057d2c"><path d="M 182 144 L 415.503906 144 L 415.503906 288 L 182 288 Z M 182 144 " clip-rule="nonzero"/></clipPath><clipPath id="aab4668d8f"><path d="M 16.503906 0 L 183 0 L 183 288 L 16.503906 288 Z M 16.503906 0 " clip-rule="nonzero"/></clipPath></defs><g clip-path="url(#112ad9a774)"><path fill="#fcd116" d="M 371.085938 0 L 182.773438 0 L 182.773438 144 L 415.394531 144 L 415.394531 44.308594 C 415.394531 19.839844 395.554688 0 371.085938 0 Z M 371.085938 0 " fill-opacity="1" fill-rule="nonzero"/></g><g clip-path="url(#165f057d2c)"><path fill="#009e49" d="M 182.773438 288 L 371.085938 288 C 395.554688 288 415.394531 268.160156 415.394531 243.691406 L 415.394531 144 L 182.773438 144 Z M 182.773438 288 " fill-opacity="1" fill-rule="nonzero"/></g><g clip-path="url(#aab4668d8f)"><path fill="#ce1126" d="M 182.773438 0 L 60.921875 0 C 36.453125 0 16.613281 19.839844 16.613281 44.308594 L 16.613281 243.691406 C 16.613281 268.160156 36.453125 288 60.921875 288 L 182.773438 288 Z M 127.386719 188.308594 L 99.171875 167.804688 L 70.957031 188.308594 L 81.738281 155.144531 L 53.523438 134.640625 L 88.394531 134.640625 L 99.171875 101.476562 L 109.949219 134.640625 L 144.820312 134.640625 L 116.609375 155.144531 Z M 127.386719 188.308594 " fill-opacity="1" fill-rule="nonzero"/></g><path fill="#000000" d="M 109.949219 134.640625 L 99.171875 101.476562 L 88.394531 134.640625 L 53.523438 134.640625 L 81.738281 155.144531 L 70.957031 188.308594 L 99.171875 167.804688 L 127.386719 188.308594 L 116.609375 155.144531 L 144.820312 134.640625 Z M 109.949219 134.640625 " fill-opacity="1" fill-rule="nonzero"/></svg>