<svg width="21" height="15" viewBox="0 0 21 15" fill="none" xmlns="http://www.w3.org/2000/svg">
<rect width="21" height="15" rx="3" fill="#F93939"/>
<path fill-rule="evenodd" clip-rule="evenodd" d="M10.155 7.51401C7.44299 6.36601 8.64499 2.83001 11.24 3.00601C10.714 3.27601 10.638 3.78001 10.938 4.24601C11.274 4.77001 10.908 5.61101 10.454 5.81601C9.70799 6.15101 9.55899 7.04601 10.154 7.51401H10.155ZM10.382 7.39201C10.635 4.45901 14.372 4.50901 15.002 7.03001C14.584 6.61501 14.082 6.69801 13.73 7.12801C13.337 7.60801 12.424 7.51801 12.09 7.15101C11.54 6.54701 10.64 6.68101 10.382 7.39301V7.39201ZM10.474 7.68501C13.354 7.07001 14.398 10.657 12.171 11.999C12.447 11.476 12.221 11.019 11.707 10.809C11.133 10.573 10.951 9.67401 11.205 9.24701C11.623 8.54401 11.231 7.72401 10.475 7.68401L10.474 7.68501ZM6.74999 10.98C7.32999 11.08 7.69499 10.723 7.73599 10.17C7.78299 9.55001 8.58099 9.10001 9.06599 9.21001C9.86399 9.39001 10.523 8.76401 10.326 8.03201C11.802 10.582 8.71299 12.682 6.74899 10.979L6.74999 10.98ZM6.15299 5.50001C6.26799 6.07801 6.73099 6.29001 7.26299 6.13001C7.85799 5.95201 8.56499 6.53601 8.63599 7.03001C8.75399 7.83801 9.57399 8.22801 10.186 7.78401C8.33599 10.074 5.26599 7.94401 6.15299 5.49901V5.50001Z" fill="white"/>
</svg>
