<svg xmlns="http://www.w3.org/2000/svg" xmlns:xlink="http://www.w3.org/1999/xlink" width="576" zoomAndPan="magnify" viewBox="0 0 432 287.999989" height="384" preserveAspectRatio="xMidYMid meet" version="1.0"><defs><clipPath id="7b0d8b4405"><path d="M 16.503906 0 L 415.503906 0 L 415.503906 288 L 16.503906 288 Z M 16.503906 0 " clip-rule="nonzero"/></clipPath><clipPath id="2fe453d65f"><path d="M 16.503906 0 L 228 0 L 228 144 L 16.503906 144 Z M 16.503906 0 " clip-rule="nonzero"/></clipPath></defs><g clip-path="url(#7b0d8b4405)"><path fill="#00247d" d="M 371.085938 0 L 60.921875 0 C 58.652344 0 56.414062 0.167969 54.230469 0.5 L 54.1875 19.925781 L 23.945312 19.882812 C 19.316406 26.882812 16.613281 35.28125 16.613281 44.308594 L 16.613281 243.691406 C 16.613281 268.160156 36.453125 288 60.921875 288 L 371.085938 288 C 395.554688 288 415.394531 268.160156 415.394531 243.691406 L 415.394531 44.308594 C 415.394531 19.839844 395.554688 0 371.085938 0 Z M 371.085938 0 " fill-opacity="1" fill-rule="nonzero"/></g><path fill="#f9d050" d="M 390.359375 196.28125 C 387.269531 196.726562 385.972656 201.15625 384.644531 203.816406 C 384.644531 203.816406 381.554688 206.472656 376.667969 206.03125 C 376.667969 206.03125 378.90625 202.484375 381.109375 198.929688 C 383.324219 195.398438 382.007812 190.953125 378.90625 190.523438 C 375.816406 190.070312 375.371094 188.296875 371.375 184.761719 C 367.386719 181.21875 360.296875 180.773438 358.964844 183.875 C 357.636719 186.96875 351.421875 189.195312 352.320312 193.625 C 353.195312 198.054688 355.410156 203.816406 357.625 207.359375 C 357.625 207.359375 347.148438 214.007812 338.71875 217.109375 C 330.296875 220.210938 324.195312 220.652344 324.195312 220.652344 C 324.195312 220.652344 315.34375 220.210938 306.925781 217.109375 C 298.496094 214.007812 290.488281 207.359375 290.488281 207.359375 C 292.691406 203.816406 294.90625 198.054688 295.816406 193.625 C 296.691406 189.203125 290.488281 186.96875 289.15625 183.875 C 287.828125 180.773438 280.738281 181.21875 276.75 184.761719 C 272.761719 188.296875 272.332031 190.070312 269.207031 190.523438 C 266.117188 190.953125 264.777344 195.386719 266.992188 198.929688 C 269.207031 202.476562 271.402344 206.03125 271.402344 206.03125 C 266.527344 206.472656 263.414062 203.816406 263.414062 203.816406 C 262.085938 201.15625 260.710938 196.726562 257.609375 196.28125 C 254.507812 195.839844 254.441406 198.929688 254.886719 202.054688 C 255.328125 205.144531 257.378906 210.914062 258.695312 214.449219 C 260.023438 217.992188 262.363281 218.4375 267.246094 219.324219 C 272.121094 220.210938 279.453125 216.234375 279.453125 216.234375 C 296.757812 233.058594 321.636719 232.617188 321.636719 232.617188 C 321.636719 232.617188 348.941406 233.058594 366.222656 216.234375 C 366.222656 216.234375 374.773438 220.210938 379.660156 219.324219 C 384.53125 218.4375 387.492188 217.992188 388.808594 214.449219 C 390.136719 210.914062 392.507812 205.144531 392.953125 202.054688 C 393.417969 198.929688 393.472656 195.839844 390.359375 196.28125 Z M 390.359375 196.28125 " fill-opacity="1" fill-rule="nonzero"/><path fill="#db1c1c" d="M 388.675781 213.996094 C 388.675781 213.996094 392.210938 203.371094 393.097656 199.816406 C 393.980469 196.28125 390.4375 194.941406 387.789062 197.15625 C 385.132812 199.382812 381.132812 212.234375 381.132812 212.234375 C 381.132812 212.234375 382.460938 209.574219 385.121094 210.007812 C 387.789062 210.460938 388.675781 213.996094 388.675781 213.996094 Z M 367.398438 197.613281 C 367.398438 197.613281 372.269531 191.839844 372.714844 188.296875 C 373.15625 184.761719 368.28125 180.320312 364.726562 180.765625 C 361.191406 181.207031 358.523438 183.867188 359.421875 186.96875 C 360.308594 190.070312 363.398438 196.28125 363.398438 196.28125 C 363.398438 196.28125 363.398438 195.398438 365.179688 195.398438 C 366.953125 195.398438 367.398438 197.613281 367.398438 197.613281 Z M 259.492188 213.996094 C 259.492188 213.996094 255.949219 203.371094 255.050781 199.816406 C 254.175781 196.28125 257.710938 194.941406 260.367188 197.15625 C 263.027344 199.382812 267.027344 212.234375 267.027344 212.234375 C 267.027344 212.234375 265.695312 209.574219 263.039062 210.007812 C 260.367188 210.460938 259.492188 213.996094 259.492188 213.996094 Z M 280.761719 197.613281 C 280.761719 197.613281 275.886719 191.839844 275.445312 188.296875 C 275 184.761719 279.875 180.320312 283.417969 180.765625 C 286.964844 181.207031 289.632812 183.867188 288.738281 186.96875 C 287.851562 190.070312 284.75 196.28125 284.75 196.28125 C 284.75 196.28125 284.75 195.398438 282.988281 195.398438 C 281.203125 195.398438 280.761719 197.613281 280.761719 197.613281 Z M 280.761719 197.613281 " fill-opacity="1" fill-rule="nonzero"/><path fill="#cf1b2b" d="M 324.195312 120.050781 L 288.40625 120.050781 L 288.40625 152.484375 L 365.945312 152.484375 L 365.945312 120.050781 Z M 324.195312 120.050781 " fill-opacity="1" fill-rule="nonzero"/><path fill="#ffffff" d="M 351.933594 203.351562 C 358.136719 195.808594 365.945312 182.09375 365.945312 163.03125 L 365.945312 146.570312 C 363.574219 146.527344 361.015625 146.304688 360.375 146.492188 C 356.285156 147.667969 355.597656 151.953125 350.636719 151.953125 C 344.886719 151.953125 343.316406 146.191406 337.554688 146.191406 C 331.78125 146.191406 329.898438 151.953125 324.140625 151.953125 C 319.277344 151.953125 315.222656 146.191406 310.792969 146.191406 C 306.359375 146.191406 301.453125 151.953125 297.464844 151.953125 C 293.941406 151.953125 291.617188 147.46875 288.394531 146.414062 L 288.414062 163.03125 C 288.414062 176.277344 291.109375 186.800781 294.253906 194.753906 C 296.082031 199.375 301.15625 206.296875 302.074219 207.015625 C 302.074219 207.015625 312.542969 209.289062 318.625 219.964844 C 318.625 219.964844 319.707031 220.753906 324.316406 220.753906 C 328.925781 220.753906 329.933594 219.734375 329.933594 219.734375 C 335.992188 208.667969 346.394531 210.085938 351.933594 203.351562 Z M 351.933594 203.351562 " fill-opacity="1" fill-rule="nonzero"/><path fill="#0b50a0" d="M 296.101562 175.890625 C 301.410156 175.890625 308.054688 171.027344 311.601562 171.027344 C 315.144531 171.027344 318.246094 175.890625 323.121094 175.890625 C 327.996094 175.890625 334.199219 171.027344 337.300781 171.027344 C 340.402344 171.027344 345.273438 175.890625 350.136719 175.890625 C 355.011719 175.890625 356.785156 171.027344 361.203125 171.027344 C 362.089844 171.027344 364.703125 171.371094 365.414062 171.679688 C 365.867188 168.789062 366.089844 163.949219 365.933594 159.429688 C 364.085938 159.386719 362.789062 159.320312 361.902344 159.320312 C 361.382812 159.320312 360.726562 159.21875 359.984375 159.472656 C 356.21875 160.792969 355.433594 164.824219 350.613281 164.824219 C 344.867188 164.824219 343.292969 159.066406 337.53125 159.066406 C 331.761719 159.066406 329.878906 164.824219 324.117188 164.824219 C 319.253906 164.824219 315.199219 159.066406 310.769531 159.066406 C 306.339844 159.066406 301.429688 164.824219 297.445312 164.824219 C 294.707031 164.824219 292.714844 162.109375 290.453125 160.414062 C 289.421875 159.640625 288.394531 159.386719 288.394531 159.386719 C 288.128906 165.523438 288.726562 171.605469 288.726562 171.605469 C 290.917969 172.878906 291.925781 175.890625 296.101562 175.890625 Z M 337.796875 202.042969 C 332.09375 202.042969 330.277344 207.636719 324.671875 207.757812 C 319.066406 207.636719 317.238281 202.042969 311.546875 202.042969 C 307.691406 202.042969 304.621094 205.320312 302.0625 207.027344 C 305.019531 208.898438 309.320312 210.085938 314.945312 214.261719 C 318.957031 217.242188 324.671875 217.550781 324.671875 217.550781 C 324.671875 217.550781 330.386719 217.230469 334.398438 214.261719 C 340.035156 210.085938 344.332031 208.898438 347.28125 207.027344 C 344.734375 205.320312 341.652344 202.042969 337.796875 202.042969 Z M 363.398438 178.550781 C 357.195312 178.550781 357.660156 184.308594 351.910156 184.308594 C 346.140625 184.308594 344.808594 178.550781 339.0625 178.550781 C 333.289062 178.550781 331.515625 184.308594 325.769531 184.308594 C 320.882812 184.308594 316.894531 178.550781 312.464844 178.550781 C 308.042969 178.550781 303.160156 184.308594 299.183594 184.308594 C 296.148438 184.308594 292.847656 180.964844 289.691406 179.359375 C 289.691406 179.359375 291.230469 188.605469 294.175781 194.578125 C 295.183594 195.019531 296.546875 195.386719 297.84375 195.386719 C 303.160156 195.386719 309.792969 190.523438 313.351562 190.523438 C 316.894531 190.523438 319.996094 195.386719 324.871094 195.386719 C 329.746094 195.386719 335.949219 190.523438 339.050781 190.523438 C 342.152344 190.523438 347.027344 195.386719 351.886719 195.386719 C 355.046875 195.386719 357.207031 193.257812 359.332031 191.820312 C 361.371094 188.074219 362.910156 183.753906 364.140625 178.582031 C 363.929688 178.558594 363.640625 178.550781 363.398438 178.550781 Z M 363.398438 178.550781 " fill-opacity="1" fill-rule="nonzero"/><path fill="#059334" d="M 302.859375 164.316406 L 306.792969 150.945312 L 310.835938 164.28125 L 324.769531 163.882812 L 313.339844 171.859375 L 318.015625 184.984375 L 306.902344 176.566406 L 295.859375 185.085938 L 300.421875 171.914062 L 288.925781 164.039062 Z M 343.636719 164.316406 L 347.558594 150.945312 L 351.613281 164.28125 L 365.546875 163.882812 L 354.105469 171.859375 L 358.789062 184.984375 L 347.667969 176.566406 L 336.636719 185.085938 L 341.199219 171.914062 L 329.691406 164.039062 Z M 343.636719 164.316406 " fill-opacity="1" fill-rule="nonzero"/><path fill="#059334" d="M 323.253906 188.242188 L 327.175781 174.859375 L 331.230469 188.207031 L 345.164062 187.820312 L 333.722656 195.785156 L 338.40625 208.910156 L 327.296875 200.515625 L 316.242188 209.011719 L 320.816406 195.851562 L 309.308594 187.964844 Z M 323.253906 188.242188 " fill-opacity="1" fill-rule="nonzero"/><path fill="#f9d050" d="M 295.582031 122.933594 C 298.351562 120.660156 300.898438 124.261719 301.355469 126.476562 C 301.796875 128.691406 304.457031 131.792969 307.113281 131.792969 C 307.113281 131.792969 308.886719 126.476562 310.214844 123.816406 C 311.546875 121.160156 315.089844 120.273438 317.316406 121.160156 C 319.53125 122.046875 323.519531 121.601562 323.078125 125.589844 C 322.632812 129.578125 321.304688 131.351562 321.304688 131.351562 C 321.304688 131.351562 329.28125 131.792969 332.824219 131.351562 C 336.371094 130.90625 340.367188 128.691406 343.027344 130.019531 C 345.675781 131.351562 349.671875 131.792969 351.003906 130.90625 C 352.332031 130.019531 353.21875 127.363281 350.117188 127.804688 C 347.015625 128.257812 344.355469 128.257812 341.699219 128.703125 C 339.039062 129.132812 327.519531 129.589844 327.519531 126.042969 C 327.519531 122.5 331.9375 122.054688 332.824219 122.5 C 333.722656 122.941406 340.367188 118.070312 341.699219 120.285156 C 343.027344 122.5 343.027344 125.15625 339.039062 125.15625 C 335.050781 125.15625 329.28125 124.273438 329.28125 125.601562 C 329.28125 126.929688 331.0625 127.816406 333.722656 127.816406 C 336.367188 127.816406 340.8125 126.042969 343.902344 126.042969 C 347.003906 126.042969 351.445312 122.5 354.09375 124.714844 C 356.75 126.929688 358.964844 130.03125 356.75 131.359375 C 354.546875 132.691406 346.558594 133.132812 343.902344 132.691406 C 343.902344 132.691406 347.003906 134.460938 349.671875 134.90625 C 352.332031 135.359375 357.648438 136.234375 357.214844 138.894531 C 356.761719 141.550781 358.089844 145.097656 354.558594 144.652344 C 351.011719 144.210938 351.457031 142.4375 352.34375 141.109375 C 353.230469 139.78125 351.011719 138.449219 347.027344 138.894531 C 343.046875 139.335938 338.164062 137.121094 338.164062 137.121094 C 338.164062 137.121094 336.835938 140.664062 338.605469 141.550781 C 338.605469 141.550781 333.289062 143.765625 330.1875 144.210938 C 327.085938 144.652344 323.984375 145.984375 323.984375 144.210938 C 323.984375 142.4375 326.199219 139.78125 327.972656 140.664062 C 329.746094 141.550781 332.835938 140.210938 333.742188 140.210938 C 334.617188 140.210938 330.632812 137.554688 332.847656 136.667969 C 335.0625 135.78125 331.085938 135.335938 328.871094 136.667969 C 326.65625 137.996094 313.363281 141.539062 308.917969 143.3125 C 304.5 145.085938 300.5 144.640625 298.730469 145.527344 C 296.957031 146.414062 293.421875 144.199219 295.183594 141.984375 C 296.957031 139.769531 297.84375 138.4375 299.171875 139.769531 C 300.5 141.097656 302.714844 140.65625 305.816406 139.769531 C 308.917969 138.882812 304.058594 137.996094 303.171875 137.109375 C 302.285156 136.222656 298.738281 130.90625 298.738281 129.578125 C 298.683594 128.25 290.707031 126.917969 295.582031 122.933594 Z M 312.011719 89.492188 C 309.351562 85.503906 301.375 80.1875 301.375 80.1875 L 308.910156 82.402344 C 308.910156 82.402344 305.363281 77.527344 301.375 76.640625 C 302.25 76.640625 309.351562 77.527344 311.554688 79.300781 C 311.554688 79.300781 305.351562 72.210938 302.25 70.882812 C 302.25 70.882812 309.792969 73.097656 312.453125 75.753906 L 309.351562 69.109375 C 309.351562 69.109375 315.113281 71.765625 316.882812 75.3125 C 316.882812 75.3125 315.113281 68.222656 311.566406 64.679688 C 311.566406 64.679688 316.882812 67.789062 318.679688 70.4375 L 319.984375 64.113281 L 323.894531 67.636719 L 326.566406 62.71875 L 329.691406 67.800781 L 335.0625 62.230469 C 335.0625 62.230469 333.734375 66.550781 333.289062 70.550781 C 333.289062 70.550781 335.503906 66.949219 340.378906 65.175781 C 340.378906 65.175781 334.175781 74.679688 333.289062 78.226562 C 333.289062 78.226562 342.152344 69.453125 347.910156 67.238281 C 347.910156 67.238281 339.925781 76.597656 337.71875 80.140625 C 337.71875 80.140625 344.367188 74.402344 350.558594 72.632812 C 350.558594 72.632812 342.582031 81.0625 341.253906 82.832031 C 341.253906 82.832031 345.683594 81.0625 351.445312 81.503906 C 351.445312 81.503906 338.164062 89.035156 335.0625 91.695312 C 331.949219 94.351562 312.011719 89.492188 312.011719 89.492188 Z M 312.011719 89.492188 " fill-opacity="1" fill-rule="nonzero"/><path fill="#ffffff" d="M 305.707031 109.042969 C 300.921875 109.917969 299.613281 112.53125 300.046875 115.144531 C 300.480469 117.757812 303.535156 119.929688 306.570312 118.621094 C 309.617188 117.316406 311.023438 116.671875 312.242188 116.453125 C 315.199219 115.910156 319.210938 114.710938 319.210938 114.710938 C 319.210938 114.710938 324.007812 115.578125 326.621094 114.710938 C 326.621094 114.710938 331.40625 116.882812 335.328125 115.144531 C 335.328125 115.144531 344.910156 119.496094 349.261719 117.757812 C 353.617188 116.019531 350.0625 110.183594 347.957031 109.484375 C 344.035156 108.175781 334.453125 106.871094 327.042969 106.4375 C 319.640625 105.996094 305.707031 109.042969 305.707031 109.042969 Z M 305.707031 109.042969 " fill-opacity="1" fill-rule="nonzero"/><path fill="#073163" d="M 348.34375 109.429688 C 346.714844 108.886719 344.101562 108.332031 341.089844 107.84375 C 341.089844 107.84375 341.699219 110.304688 342.140625 112.960938 C 342.441406 114.746094 342.539062 116.71875 343.503906 117.824219 C 345.773438 118.546875 348.078125 118.46875 349.683594 117.824219 C 354.105469 116.074219 350.492188 110.136719 348.34375 109.429688 Z M 322.390625 106.40625 C 323.753906 108 324.59375 112.175781 326.5 114.789062 C 327.1875 115.210938 331.574219 117.160156 335.304688 115.277344 C 335.714844 114.535156 332.203125 106.738281 332.203125 106.738281 C 330.441406 106.558594 324.085938 106.28125 322.390625 106.40625 Z M 312.863281 116.328125 C 313.539062 116.738281 318.878906 115.167969 318.878906 114.800781 C 318.8125 114.101562 318.214844 113.140625 317.339844 111.191406 C 316.617188 109.617188 315.675781 108.332031 314.667969 107.28125 C 310.292969 107.945312 306.550781 108.71875 305.617188 108.917969 C 307.480469 112.085938 309.527344 114.335938 312.863281 116.328125 Z M 312.863281 116.328125 " fill-opacity="1" fill-rule="nonzero"/><path fill="#059334" d="M 291.183594 91.261719 C 291.183594 91.261719 292.515625 86.378906 298.273438 86.378906 C 304.035156 86.378906 301.375 89.921875 308.023438 90.367188 C 314.679688 90.808594 338.164062 93.910156 341.699219 95.683594 C 345.242188 97.453125 349.683594 97.011719 351.886719 96.570312 C 354.105469 96.113281 352.34375 98.785156 350.128906 100.113281 C 347.910156 101.441406 343.46875 100.554688 343.46875 100.554688 C 343.46875 100.554688 348.355469 104.988281 349.683594 108.089844 C 351.011719 111.191406 349.683594 112.519531 347.46875 111.191406 C 345.253906 109.859375 342.59375 112.519531 342.140625 110.746094 C 341.699219 108.976562 337.277344 102.773438 337.277344 102.773438 C 337.277344 102.773438 324.429688 101 320.882812 104.101562 C 317.347656 107.203125 312.996094 108.355469 305.816406 107.644531 C 301.398438 107.203125 298.730469 104.988281 299.625 102.328125 C 300.511719 99.671875 302.714844 98.785156 302.714844 98.785156 C 302.714844 98.785156 302.273438 93.46875 300.511719 94.796875 C 298.738281 96.125 294.742188 95.238281 294.296875 94.351562 C 293.84375 93.476562 291.183594 91.261719 291.183594 91.261719 Z M 291.183594 91.261719 " fill-opacity="1" fill-rule="nonzero"/><path fill="#059334" d="M 305.351562 89.492188 C 307.257812 88.347656 316.429688 84.171875 323.53125 84.617188 C 330.621094 85.058594 335.050781 86.832031 339.914062 89.492188 C 344.800781 92.148438 344.34375 94.363281 347.015625 95.25 C 349.671875 96.136719 348.34375 97.464844 347.015625 98.796875 C 345.683594 100.125 341.242188 107.65625 327.0625 107.214844 C 312.886719 106.769531 311.554688 102.78125 309.339844 101.011719 C 307.125 99.238281 305.796875 94.808594 305.796875 93.476562 C 305.796875 92.148438 303.148438 90.808594 305.351562 89.492188 Z M 305.351562 89.492188 " fill-opacity="1" fill-rule="nonzero"/><path fill="#00493d" d="M 331.949219 102.78125 C 336.757812 101.464844 343.269531 99.726562 346.4375 95.007812 C 344.398438 94 344.398438 91.925781 339.925781 89.492188 C 335.0625 86.832031 330.621094 85.058594 323.542969 84.617188 C 318.535156 84.296875 312.476562 86.289062 308.6875 87.894531 C 308.476562 91.03125 308.476562 94.808594 308.476562 94.808594 C 308.476562 94.808594 312.464844 97.023438 315.566406 99.679688 C 318.65625 102.339844 327.0625 104.113281 331.949219 102.78125 Z M 331.949219 102.78125 " fill-opacity="1" fill-rule="nonzero"/><g clip-path="url(#2fe453d65f)"><path fill="#00247d" d="M 227.082031 144 L 227.082031 0 L 60.921875 0 C 57.378906 0 54.230469 0.5 54.230469 0.5 L 54.1875 19.925781 L 23.945312 19.882812 C 23.945312 19.882812 23.480469 20.535156 22.539062 22.152344 C 18.773438 28.679688 16.613281 36.242188 16.613281 44.308594 L 16.613281 144 Z M 227.082031 144 " fill-opacity="1" fill-rule="nonzero"/><path fill="#eeeeee" d="M 227.082031 0 L 201.261719 0 L 149.539062 36.210938 L 149.539062 0 L 94.152344 0 L 94.152344 28.457031 L 54.230469 0.5 C 47.429688 1.539062 41.050781 4.097656 35.710938 7.863281 L 87.796875 44.308594 L 68.566406 44.308594 L 27.324219 15.40625 C 26.105469 16.835938 24.988281 18.308594 23.945312 19.882812 L 58.851562 44.308594 L 16.613281 44.308594 L 16.613281 99.691406 L 59.648438 99.691406 L 16.613281 130.332031 L 16.613281 144 L 53.523438 144 L 94.152344 115.554688 L 94.152344 144 L 149.539062 144 L 149.539062 107.789062 L 201.25 144 L 227.082031 144 L 227.082031 121.523438 L 195.898438 99.691406 L 227.082031 99.691406 L 227.082031 44.308594 L 195.910156 44.308594 L 227.082031 22.476562 Z M 227.082031 0 " fill-opacity="1" fill-rule="nonzero"/><path fill="#cf1b2b" d="M 138.464844 0 L 105.230469 0 L 105.230469 55.382812 L 16.613281 55.382812 L 16.613281 88.617188 L 105.230469 88.617188 L 105.230469 144 L 138.464844 144 L 138.464844 88.617188 L 227.082031 88.617188 L 227.082031 55.382812 L 138.464844 55.382812 Z M 138.464844 0 " fill-opacity="1" fill-rule="nonzero"/></g><path fill="#cf1b2b" d="M 227.082031 0 L 210.898438 0 L 149.539062 42.96875 L 149.539062 44.308594 L 166.941406 44.308594 L 227.082031 2.191406 Z M 35.710938 7.863281 C 32.597656 10.023438 29.796875 12.550781 27.324219 15.40625 L 68.566406 44.308594 L 87.785156 44.308594 Z M 87.917969 99.691406 L 24.742188 144 L 43.875 144 L 94.152344 108.796875 L 94.152344 99.691406 Z M 227.082031 141.808594 L 227.082031 128.292969 L 186.238281 99.691406 L 166.929688 99.691406 Z M 227.082031 141.808594 " fill-opacity="1" fill-rule="nonzero"/></svg>