<svg xmlns="http://www.w3.org/2000/svg" xmlns:xlink="http://www.w3.org/1999/xlink" width="576" zoomAndPan="magnify" viewBox="0 0 432 287.999989" height="384" preserveAspectRatio="xMidYMid meet" version="1.0"><defs><clipPath id="fa62bf131c"><path d="M 16.503906 0 L 415.503906 0 L 415.503906 288 L 16.503906 288 Z M 16.503906 0 " clip-rule="nonzero"/></clipPath><clipPath id="c11e66ee74"><path d="M 16.503906 0 L 228 0 L 228 144 L 16.503906 144 Z M 16.503906 0 " clip-rule="nonzero"/></clipPath></defs><g clip-path="url(#fa62bf131c)"><path fill="#00247d" d="M 371.085938 0 L 60.921875 0 C 58.652344 0 56.414062 0.167969 54.230469 0.5 L 54.1875 19.925781 L 23.945312 19.882812 C 19.316406 26.882812 16.613281 35.28125 16.613281 44.308594 L 16.613281 243.691406 C 16.613281 268.160156 36.453125 288 60.921875 288 L 371.085938 288 C 395.554688 288 415.394531 268.160156 415.394531 243.691406 L 415.394531 44.308594 C 415.394531 19.839844 395.554688 0 371.085938 0 Z M 371.085938 0 " fill-opacity="1" fill-rule="nonzero"/></g><path fill="#ffffff" d="M 387.324219 195.441406 C 384.210938 193.402344 379.636719 189.050781 378.839844 187.765625 C 375.714844 182.570312 372.136719 181.496094 369.679688 181.496094 C 369.378906 181.496094 369.035156 181.550781 368.691406 181.585938 C 369.867188 179.625 370.632812 177.683594 370.632812 175.855469 L 370.632812 73.628906 L 258.929688 73.628906 L 258.929688 175.855469 C 258.929688 177.683594 259.691406 179.613281 260.867188 181.585938 C 260.523438 181.539062 260.179688 181.496094 259.878906 181.496094 C 257.421875 181.496094 253.84375 182.582031 250.71875 187.765625 C 249.933594 189.050781 245.359375 193.414062 242.234375 195.441406 C 239.675781 197.089844 238.167969 199.75 237.980469 202.886719 C 237.726562 207.304688 240.261719 212.421875 244.472656 215.933594 C 246.1875 217.375 248.238281 218.117188 250.375 218.117188 C 253.257812 218.117188 255.714844 216.796875 257.652344 215.214844 C 276.054688 230.410156 294.796875 237.808594 314.769531 237.808594 C 334.742188 237.808594 353.484375 230.410156 371.882812 215.214844 C 373.820312 216.796875 376.292969 218.117188 379.160156 218.117188 C 381.296875 218.117188 383.347656 217.375 385.066406 215.933594 C 389.273438 212.433594 391.8125 207.316406 391.554688 202.886719 C 391.390625 199.738281 389.871094 197.089844 387.324219 195.441406 Z M 387.324219 195.441406 " fill-opacity="1" fill-rule="nonzero"/><path fill="#006129" d="M 314.78125 210.871094 C 290.078125 199.851562 264.464844 183.511719 264.464844 175.847656 L 264.464844 79.15625 L 365.09375 79.15625 L 365.09375 175.847656 C 365.09375 183.523438 339.480469 199.859375 314.78125 210.871094 Z M 314.78125 210.871094 " fill-opacity="1" fill-rule="nonzero"/><path fill="#ffc6b5" d="M 294.410156 142.792969 C 292.148438 143.667969 291.460938 137.597656 294.410156 133.277344 C 297.355469 128.945312 306.007812 120.117188 307.910156 111.988281 C 309.816406 103.855469 313.171875 105.066406 314.78125 102.816406 C 316.398438 100.566406 316.628906 97.964844 314.78125 97.453125 C 312.929688 96.945312 310.335938 96.246094 312.066406 89.492188 C 313.792969 82.746094 321.238281 83.429688 321.238281 88.105469 C 321.238281 92.78125 319.507812 96.933594 321.238281 100.566406 C 322.964844 104.199219 326.953125 103.335938 329.367188 110.257812 C 331.792969 117.183594 332.660156 123.929688 331.097656 126.875 C 329.535156 129.820312 328.671875 141.066406 326.597656 144.011719 C 324.527344 146.957031 321.746094 145.738281 322.269531 140.378906 C 322.789062 135.015625 326.246094 127.738281 327.285156 123.941406 C 328.328125 120.128906 325.722656 112.34375 321.925781 111.476562 C 318.113281 110.613281 311.191406 119.441406 308.078125 123.074219 C 304.964844 126.707031 298.207031 129.476562 297.863281 132.425781 C 297.519531 135.347656 296.65625 141.917969 294.410156 142.792969 Z M 294.410156 142.792969 " fill-opacity="1" fill-rule="nonzero"/><path fill="#ffffff" d="M 335.261719 186.921875 C 331.285156 187.785156 322.457031 191.078125 317.605469 189.871094 C 312.753906 188.664062 304.101562 191.773438 302.894531 190.136719 C 301.6875 188.484375 304.101562 179.492188 304.457031 175.335938 C 304.800781 171.183594 305.320312 167.027344 304.632812 167.027344 C 303.945312 167.027344 301.023438 167.027344 302.5625 159.585938 C 304.113281 152.140625 306.703125 138.472656 306.703125 138.472656 C 306.703125 138.472656 304.113281 137.429688 305.664062 133.277344 C 307.226562 129.125 309.121094 119.253906 308.609375 117.003906 C 308.101562 114.757812 304.277344 115.445312 305.664062 111.988281 C 307.046875 108.53125 308.089844 107.832031 309.121094 105.242188 C 310.160156 102.648438 312.289062 100.601562 313.792969 101.265625 C 315.300781 101.929688 316.996094 103.855469 318.679688 102.828125 C 320.363281 101.785156 320.539062 100.234375 322.789062 100.402344 C 325.039062 100.578125 329.855469 105.097656 328.847656 106.117188 C 327.839844 107.136719 326.011719 110.660156 325.703125 115.054688 C 325.390625 119.441406 322.621094 130.175781 321.757812 133.644531 C 320.894531 137.109375 324.703125 145.40625 326.777344 153.203125 C 328.859375 160.957031 335.261719 186.921875 335.261719 186.921875 Z M 335.261719 186.921875 " fill-opacity="1" fill-rule="nonzero"/><path fill="#9c5100" d="M 312.175781 84.496094 C 313.183594 81.824219 318.125 79.609375 322.277344 82.898438 C 326.433594 86.191406 328.160156 92.25 325.226562 95.882812 C 322.277344 99.515625 320.574219 98.652344 319.441406 95.882812 C 318.300781 93.113281 319.519531 90.632812 317.957031 89.800781 C 316.398438 88.957031 317.78125 86.542969 316.398438 86.023438 C 315.011719 85.503906 310.726562 88.347656 312.175781 84.496094 Z M 312.175781 84.496094 " fill-opacity="1" fill-rule="nonzero"/><path fill="#ff0000" d="M 272.652344 82.898438 C 271.953125 82.125 270.183594 85.335938 270.878906 87.585938 C 271.566406 89.84375 271.390625 91.960938 272.753906 91.617188 C 274.113281 91.273438 273.78125 89.3125 274.679688 87.742188 C 275.367188 86.523438 272.597656 86.875 273.472656 85.492188 Z M 272.652344 82.898438 " fill-opacity="1" fill-rule="nonzero"/><path fill="#f8c600" d="M 269.828125 90.863281 L 279 90.863281 C 279 90.863281 280.207031 86.710938 282.113281 86.53125 C 284.019531 86.355469 284.539062 90.6875 284.539062 90.6875 C 284.539062 90.6875 288.871094 91.726562 290.765625 90.507812 C 292.660156 89.292969 297.34375 90.6875 293.710938 92.757812 C 290.078125 94.839844 292.148438 90.507812 290.078125 92.757812 C 288.007812 95.007812 286.101562 95.871094 286.445312 96.734375 C 286.789062 97.597656 285.359375 98.285156 282.445312 98.285156 C 279.519531 98.285156 277.625 97.609375 277.96875 96.226562 C 278.3125 94.839844 276.066406 94.320312 273.472656 93.800781 C 270.871094 93.289062 269.828125 90.863281 269.828125 90.863281 Z M 269.828125 90.863281 " fill-opacity="1" fill-rule="nonzero"/><path fill="#ff0000" d="M 272.652344 100.488281 C 271.953125 99.714844 270.183594 102.925781 270.878906 105.175781 C 271.578125 107.425781 271.390625 109.5625 272.753906 109.21875 C 274.113281 108.875 273.78125 106.902344 274.679688 105.339844 C 275.367188 104.125 272.597656 104.476562 273.472656 103.09375 Z M 272.652344 100.488281 " fill-opacity="1" fill-rule="nonzero"/><path fill="#f8c600" d="M 269.828125 108.453125 L 279 108.453125 C 279 108.453125 280.207031 104.300781 282.113281 104.125 C 284.019531 103.945312 284.539062 108.277344 284.539062 108.277344 C 284.539062 108.277344 288.871094 109.316406 290.765625 108.101562 C 292.667969 106.890625 297.34375 108.277344 293.710938 110.347656 C 290.078125 112.429688 292.148438 108.101562 290.078125 110.347656 C 288.007812 112.597656 286.101562 113.460938 286.445312 114.324219 C 286.789062 115.1875 285.359375 115.875 282.445312 115.875 C 279.519531 115.875 277.625 115.199219 277.96875 113.816406 C 278.3125 112.429688 276.066406 111.910156 273.472656 111.390625 C 270.871094 110.878906 269.828125 108.453125 269.828125 108.453125 Z M 269.828125 108.453125 " fill-opacity="1" fill-rule="nonzero"/><path fill="#ff0000" d="M 272.652344 120.050781 C 271.953125 119.277344 270.183594 122.488281 270.878906 124.738281 C 271.578125 126.984375 271.390625 129.113281 272.753906 128.769531 C 274.113281 128.425781 273.78125 126.464844 274.679688 124.890625 C 275.367188 123.675781 272.597656 124.027344 273.472656 122.644531 Z M 272.652344 120.050781 " fill-opacity="1" fill-rule="nonzero"/><path fill="#f8c600" d="M 269.828125 128.015625 L 279 128.015625 C 279 128.015625 280.207031 123.863281 282.113281 123.683594 C 284.019531 123.507812 284.539062 127.839844 284.539062 127.839844 C 284.539062 127.839844 288.871094 128.878906 290.765625 127.660156 C 292.660156 126.441406 297.34375 127.839844 293.710938 129.910156 C 290.078125 131.992188 292.148438 127.660156 290.078125 129.910156 C 288.007812 132.160156 286.101562 133.023438 286.445312 133.886719 C 286.789062 134.75 285.359375 135.4375 282.445312 135.4375 C 279.519531 135.4375 277.625 134.75 277.96875 133.367188 C 278.3125 131.980469 276.066406 131.460938 273.472656 130.941406 C 270.871094 130.429688 269.828125 128.015625 269.828125 128.015625 Z M 269.828125 128.015625 " fill-opacity="1" fill-rule="nonzero"/><path fill="#ff0000" d="M 283.730469 139.09375 C 283.03125 138.316406 281.261719 141.53125 281.957031 143.777344 C 282.65625 146.027344 282.46875 148.152344 283.828125 147.808594 C 285.191406 147.46875 284.859375 145.507812 285.757812 143.933594 C 286.445312 142.714844 283.675781 143.070312 284.550781 141.683594 Z M 283.730469 139.09375 " fill-opacity="1" fill-rule="nonzero"/><path fill="#f8c600" d="M 280.90625 147.046875 L 290.078125 147.046875 C 290.078125 147.046875 291.285156 142.890625 293.191406 142.714844 C 295.09375 142.539062 295.617188 146.867188 295.617188 146.867188 C 295.617188 146.867188 299.945312 147.910156 301.839844 146.691406 C 303.746094 145.484375 308.421875 146.867188 304.789062 148.941406 C 301.15625 151.023438 303.226562 146.691406 301.15625 148.941406 C 299.070312 151.1875 297.179688 152.054688 297.519531 152.917969 C 297.863281 153.78125 296.4375 154.46875 293.523438 154.46875 C 290.597656 154.46875 288.703125 153.78125 289.046875 152.394531 C 289.390625 151.011719 287.140625 150.492188 284.550781 149.96875 C 281.957031 149.449219 280.90625 147.046875 280.90625 147.046875 Z M 280.90625 147.046875 " fill-opacity="1" fill-rule="nonzero"/><path fill="#ff0000" d="M 272.011719 154.601562 C 271.3125 153.824219 269.539062 157.039062 270.238281 159.296875 C 270.925781 161.546875 270.746094 163.671875 272.109375 163.316406 C 273.472656 162.984375 273.140625 161.015625 274.039062 159.441406 C 274.722656 158.234375 271.953125 158.578125 272.828125 157.191406 Z M 272.011719 154.601562 " fill-opacity="1" fill-rule="nonzero"/><path fill="#f8c600" d="M 269.1875 162.566406 L 278.359375 162.566406 C 278.359375 162.566406 279.566406 158.410156 281.46875 158.234375 C 283.375 158.054688 283.894531 162.386719 283.894531 162.386719 C 283.894531 162.386719 288.226562 163.429688 290.121094 162.210938 C 292.027344 161.003906 296.703125 162.386719 293.066406 164.460938 C 289.433594 166.542969 291.507812 162.210938 289.433594 164.460938 C 287.351562 166.707031 285.457031 167.570312 285.800781 168.4375 C 286.144531 169.300781 284.714844 169.988281 281.800781 169.988281 C 278.878906 169.988281 276.972656 169.300781 277.328125 167.914062 C 277.671875 166.53125 275.421875 166.011719 272.828125 165.488281 C 270.238281 164.96875 269.1875 162.566406 269.1875 162.566406 Z M 269.1875 162.566406 " fill-opacity="1" fill-rule="nonzero"/><path fill="#ff0000" d="M 272.011719 173.121094 C 271.3125 172.347656 269.539062 175.558594 270.238281 177.816406 C 270.925781 180.066406 270.746094 182.191406 272.109375 181.839844 C 273.472656 181.507812 273.140625 179.535156 274.039062 177.960938 C 274.722656 176.753906 271.953125 177.097656 272.828125 175.714844 Z M 272.011719 173.121094 " fill-opacity="1" fill-rule="nonzero"/><path fill="#f8c600" d="M 269.1875 181.085938 L 278.359375 181.085938 C 278.359375 181.085938 279.566406 176.933594 281.46875 176.753906 C 283.375 176.578125 283.894531 180.910156 283.894531 180.910156 C 283.894531 180.910156 288.226562 181.949219 290.121094 180.730469 C 292.015625 179.511719 296.703125 180.910156 293.066406 182.980469 C 289.433594 185.0625 291.507812 180.730469 289.433594 182.980469 C 287.351562 185.226562 285.457031 186.09375 285.800781 186.957031 C 286.144531 187.820312 284.714844 188.507812 281.800781 188.507812 C 278.878906 188.507812 276.972656 187.820312 277.328125 186.4375 C 277.671875 185.050781 275.421875 184.53125 272.828125 184.011719 C 270.238281 183.488281 269.1875 181.085938 269.1875 181.085938 Z M 269.1875 181.085938 " fill-opacity="1" fill-rule="nonzero"/><path fill="#ff0000" d="M 338.085938 173.121094 C 337.386719 172.347656 335.617188 175.558594 336.3125 177.816406 C 337 180.066406 336.824219 182.191406 338.1875 181.839844 C 339.546875 181.507812 339.214844 179.535156 340.113281 177.960938 C 340.800781 176.753906 338.03125 177.097656 338.90625 175.714844 Z M 338.085938 173.121094 " fill-opacity="1" fill-rule="nonzero"/><path fill="#f8c600" d="M 335.261719 181.085938 L 344.433594 181.085938 C 344.433594 181.085938 345.640625 176.933594 347.546875 176.753906 C 349.453125 176.578125 349.972656 180.910156 349.972656 180.910156 C 349.972656 180.910156 354.304688 181.949219 356.199219 180.730469 C 358.101562 179.523438 362.777344 180.910156 359.144531 182.980469 C 355.511719 185.050781 357.582031 180.730469 355.511719 182.980469 C 353.429688 185.226562 351.535156 186.09375 351.878906 186.957031 C 352.222656 187.820312 350.792969 188.507812 347.878906 188.507812 C 344.953125 188.507812 343.046875 187.820312 343.402344 186.4375 C 343.746094 185.050781 341.496094 184.53125 338.90625 184.011719 C 336.292969 183.5 335.261719 181.085938 335.261719 181.085938 Z M 335.261719 181.085938 " fill-opacity="1" fill-rule="nonzero"/><path fill="#ff0000" d="M 338.085938 155.730469 C 337.386719 154.953125 335.617188 158.167969 336.3125 160.425781 C 337 162.675781 336.824219 164.800781 338.1875 164.449219 C 339.546875 164.117188 339.214844 162.144531 340.113281 160.570312 C 340.800781 159.363281 338.03125 159.707031 338.90625 158.324219 Z M 338.085938 155.730469 " fill-opacity="1" fill-rule="nonzero"/><path fill="#f8c600" d="M 335.261719 163.683594 L 344.433594 163.683594 C 344.433594 163.683594 345.640625 159.53125 347.546875 159.351562 C 349.453125 159.175781 349.972656 163.507812 349.972656 163.507812 C 349.972656 163.507812 354.304688 164.546875 356.199219 163.328125 C 358.101562 162.121094 362.777344 163.507812 359.144531 165.578125 C 355.511719 167.648438 357.582031 163.328125 355.511719 165.578125 C 353.4375 167.828125 351.535156 168.691406 351.878906 169.554688 C 352.222656 170.417969 350.792969 171.105469 347.878906 171.105469 C 344.953125 171.105469 343.046875 170.417969 343.402344 169.035156 C 343.746094 167.648438 341.496094 167.128906 338.90625 166.609375 C 336.292969 166.109375 335.261719 163.683594 335.261719 163.683594 Z M 335.261719 163.683594 " fill-opacity="1" fill-rule="nonzero"/><path fill="#ff0000" d="M 338.085938 137.929688 C 337.386719 137.15625 335.617188 140.367188 336.3125 142.625 C 337 144.875 336.824219 147 338.1875 146.648438 C 339.546875 146.316406 339.214844 144.34375 340.113281 142.769531 C 340.800781 141.5625 338.03125 141.90625 338.90625 140.523438 Z M 338.085938 137.929688 " fill-opacity="1" fill-rule="nonzero"/><path fill="#f8c600" d="M 335.261719 145.882812 L 344.433594 145.882812 C 344.433594 145.882812 345.640625 141.730469 347.546875 141.550781 C 349.453125 141.375 349.972656 145.707031 349.972656 145.707031 C 349.972656 145.707031 354.304688 146.746094 356.199219 145.527344 C 358.101562 144.320312 362.777344 145.707031 359.144531 147.777344 C 355.511719 149.847656 357.582031 145.527344 355.511719 147.777344 C 353.4375 150.027344 351.535156 150.890625 351.878906 151.753906 C 352.222656 152.617188 350.792969 153.304688 347.878906 153.304688 C 344.953125 153.304688 343.046875 152.628906 343.402344 151.246094 C 343.746094 149.859375 341.496094 149.339844 338.90625 148.820312 C 336.292969 148.308594 335.261719 145.882812 335.261719 145.882812 Z M 335.261719 145.882812 " fill-opacity="1" fill-rule="nonzero"/><path fill="#ff0000" d="M 338.085938 120.050781 C 337.386719 119.277344 335.617188 122.488281 336.3125 124.75 C 337 126.996094 336.824219 129.125 338.1875 128.769531 C 339.546875 128.4375 339.214844 126.464844 340.113281 124.890625 C 340.800781 123.683594 338.03125 124.027344 338.90625 122.644531 Z M 338.085938 120.050781 " fill-opacity="1" fill-rule="nonzero"/><path fill="#f8c600" d="M 335.261719 128.015625 L 344.433594 128.015625 C 344.433594 128.015625 345.640625 123.863281 347.546875 123.683594 C 349.453125 123.507812 349.972656 127.839844 349.972656 127.839844 C 349.972656 127.839844 354.304688 128.878906 356.199219 127.660156 C 358.101562 126.453125 362.777344 127.839844 359.144531 129.910156 C 355.511719 131.980469 357.582031 127.660156 355.511719 129.910156 C 353.4375 132.160156 351.535156 133.023438 351.878906 133.886719 C 352.222656 134.75 350.792969 135.4375 347.878906 135.4375 C 344.953125 135.4375 343.046875 134.75 343.402344 133.367188 C 343.746094 131.980469 341.496094 131.460938 338.90625 130.941406 C 336.292969 130.429688 335.261719 128.015625 335.261719 128.015625 Z M 335.261719 128.015625 " fill-opacity="1" fill-rule="nonzero"/><path fill="#ff0000" d="M 338.085938 101.621094 C 337.386719 100.84375 335.617188 104.054688 336.3125 106.316406 C 337 108.566406 336.824219 110.679688 338.1875 110.335938 C 339.546875 110.003906 339.214844 108.035156 340.113281 106.460938 C 340.800781 105.253906 338.03125 105.597656 338.90625 104.210938 Z M 338.085938 101.621094 " fill-opacity="1" fill-rule="nonzero"/><path fill="#f8c600" d="M 335.261719 109.585938 L 344.433594 109.585938 C 344.433594 109.585938 345.640625 105.429688 347.546875 105.253906 C 349.453125 105.074219 349.972656 109.40625 349.972656 109.40625 C 349.972656 109.40625 354.304688 110.449219 356.199219 109.230469 C 358.101562 108.023438 362.777344 109.40625 359.144531 111.476562 C 355.511719 113.550781 357.582031 109.230469 355.511719 111.476562 C 353.429688 113.726562 351.535156 114.589844 351.878906 115.453125 C 352.222656 116.320312 350.792969 117.003906 347.878906 117.003906 C 344.953125 117.003906 343.046875 116.320312 343.402344 114.933594 C 343.746094 113.550781 341.496094 113.027344 338.90625 112.507812 C 336.292969 112 335.261719 109.585938 335.261719 109.585938 Z M 335.261719 109.585938 " fill-opacity="1" fill-rule="nonzero"/><path fill="#ff0000" d="M 338.085938 82.898438 C 337.386719 82.125 335.617188 85.335938 336.3125 87.597656 C 337 89.84375 336.824219 91.960938 338.1875 91.617188 C 339.546875 91.285156 339.214844 89.3125 340.113281 87.742188 C 340.800781 86.53125 338.03125 86.875 338.90625 85.492188 Z M 338.085938 82.898438 " fill-opacity="1" fill-rule="nonzero"/><path fill="#f8c600" d="M 335.261719 90.863281 L 344.433594 90.863281 C 344.433594 90.863281 345.640625 86.710938 347.546875 86.53125 C 349.453125 86.355469 349.972656 90.6875 349.972656 90.6875 C 349.972656 90.6875 354.304688 91.726562 356.199219 90.507812 C 358.101562 89.300781 362.777344 90.6875 359.144531 92.757812 C 355.511719 94.828125 357.582031 90.507812 355.511719 92.757812 C 353.4375 95.007812 351.535156 95.871094 351.878906 96.734375 C 352.222656 97.597656 350.792969 98.285156 347.878906 98.285156 C 344.953125 98.285156 343.046875 97.609375 343.402344 96.226562 C 343.746094 94.839844 341.496094 94.320312 338.90625 93.800781 C 336.292969 93.289062 335.261719 90.863281 335.261719 90.863281 Z M 384.300781 200.070312 C 380.84375 197.824219 375.472656 192.914062 374.085938 190.613281 C 372.703125 188.308594 369.933594 185.085938 366.988281 188.519531 C 364.039062 191.941406 340.613281 214.792969 314.769531 214.792969 C 288.925781 214.792969 265.496094 191.953125 262.550781 188.519531 C 259.605469 185.085938 256.835938 188.308594 255.449219 190.613281 C 254.066406 192.914062 248.703125 197.824219 245.238281 200.070312 C 241.769531 202.320312 243.851562 208.203125 248.007812 211.667969 C 252.160156 215.136719 257.179688 207.515625 257.179688 207.515625 C 271.546875 220.320312 290.230469 232.261719 314.757812 232.261719 C 339.28125 232.261719 357.96875 220.320312 372.335938 207.515625 C 372.335938 207.515625 377.355469 215.136719 381.507812 211.667969 C 385.664062 208.203125 387.765625 202.332031 384.300781 200.070312 Z M 384.300781 200.070312 " fill-opacity="1" fill-rule="nonzero"/><g clip-path="url(#c11e66ee74)"><path fill="#00247d" d="M 227.082031 144 L 227.082031 0 L 60.921875 0 C 57.378906 0 54.230469 0.5 54.230469 0.5 L 54.1875 19.925781 L 23.945312 19.882812 C 23.945312 19.882812 23.480469 20.535156 22.539062 22.152344 C 18.773438 28.679688 16.613281 36.242188 16.613281 44.308594 L 16.613281 144 Z M 227.082031 144 " fill-opacity="1" fill-rule="nonzero"/><path fill="#eeeeee" d="M 227.082031 0 L 201.261719 0 L 149.539062 36.210938 L 149.539062 0 L 94.152344 0 L 94.152344 28.457031 L 54.230469 0.5 C 47.429688 1.539062 41.050781 4.097656 35.710938 7.863281 L 87.796875 44.308594 L 68.566406 44.308594 L 27.324219 15.40625 C 26.105469 16.835938 24.988281 18.308594 23.945312 19.882812 L 58.851562 44.308594 L 16.613281 44.308594 L 16.613281 99.691406 L 59.648438 99.691406 L 16.613281 130.332031 L 16.613281 144 L 53.523438 144 L 94.152344 115.554688 L 94.152344 144 L 149.539062 144 L 149.539062 107.789062 L 201.25 144 L 227.082031 144 L 227.082031 121.523438 L 195.898438 99.691406 L 227.082031 99.691406 L 227.082031 44.308594 L 195.910156 44.308594 L 227.082031 22.476562 Z M 227.082031 0 " fill-opacity="1" fill-rule="nonzero"/><path fill="#cf1b2b" d="M 138.464844 0 L 105.230469 0 L 105.230469 55.382812 L 16.613281 55.382812 L 16.613281 88.617188 L 105.230469 88.617188 L 105.230469 144 L 138.464844 144 L 138.464844 88.617188 L 227.082031 88.617188 L 227.082031 55.382812 L 138.464844 55.382812 Z M 138.464844 0 " fill-opacity="1" fill-rule="nonzero"/></g><path fill="#cf1b2b" d="M 227.082031 0 L 210.898438 0 L 149.539062 42.96875 L 149.539062 44.308594 L 166.941406 44.308594 L 227.082031 2.191406 Z M 35.710938 7.863281 C 32.597656 10.023438 29.796875 12.550781 27.324219 15.40625 L 68.566406 44.308594 L 87.785156 44.308594 Z M 87.917969 99.691406 L 24.742188 144 L 43.875 144 L 94.152344 108.796875 L 94.152344 99.691406 Z M 227.082031 141.808594 L 227.082031 128.292969 L 186.238281 99.691406 L 166.929688 99.691406 Z M 227.082031 141.808594 " fill-opacity="1" fill-rule="nonzero"/></svg>