<svg xmlns="http://www.w3.org/2000/svg" xmlns:xlink="http://www.w3.org/1999/xlink" width="576" zoomAndPan="magnify" viewBox="0 0 432 287.999989" height="384" preserveAspectRatio="xMidYMid meet" version="1.0"><defs><clipPath id="92bd22c336"><path d="M 16.503906 0 L 415.503906 0 L 415.503906 288 L 16.503906 288 Z M 16.503906 0 " clip-rule="nonzero"/></clipPath></defs><g clip-path="url(#92bd22c336)"><path fill="#244aa5" d="M 415.394531 243.691406 C 415.394531 268.160156 395.554688 288 371.085938 288 L 60.921875 288 C 36.453125 288 16.613281 268.160156 16.613281 243.691406 L 16.613281 44.308594 C 16.613281 19.839844 36.453125 0 60.921875 0 L 371.085938 0 C 395.554688 0 415.394531 19.839844 415.394531 44.308594 Z M 415.394531 243.691406 " fill-opacity="1" fill-rule="nonzero"/></g><path fill="#d0a650" d="M 205.070312 96.324219 L 207.386719 96.269531 C 208.75 97.6875 210.15625 99.070312 211.550781 100.457031 C 211.527344 101.53125 211.972656 102.304688 213.058594 102.628906 C 212.09375 102.882812 211.097656 102.960938 210.121094 103.070312 C 209.710938 103.625 209.214844 104.054688 208.617188 104.367188 C 208.78125 105.949219 210.234375 106.847656 211.21875 107.921875 C 212.257812 108.023438 213.410156 108 214.210938 108.796875 L 216.492188 108.851562 L 216.503906 111.820312 C 217.445312 111.722656 218.628906 111.898438 218.90625 110.714844 C 220.566406 110.703125 222.230469 110.691406 223.902344 110.726562 C 224.332031 111.644531 225.363281 111.699219 226.183594 112.085938 L 226.582031 114.148438 C 227.425781 113.0625 228.222656 111.675781 229.761719 111.632812 C 230.238281 112.296875 230.738281 112.953125 231.234375 113.605469 C 232.097656 113.671875 233.007812 113.761719 233.394531 114.703125 L 234.933594 114.757812 C 234.933594 116.605469 234.800781 118.46875 235.046875 120.304688 L 235.953125 120.859375 C 235.976562 122.34375 235.976562 123.828125 235.953125 125.300781 C 236.882812 126.089844 238.445312 126.808594 239.265625 125.433594 L 240.585938 125.433594 C 241.148438 126.253906 241.835938 126.976562 242.679688 127.515625 C 242.699219 128.96875 242.679688 130.417969 242.699219 131.859375 C 244.628906 132.558594 243.386719 135.183594 243.761719 136.746094 C 244.738281 137.410156 245.511719 138.285156 245.96875 139.390625 C 246.222656 138.894531 246.53125 138.40625 246.808594 137.917969 L 250.144531 137.984375 C 250.640625 138.574219 251.140625 139.148438 251.683594 139.734375 L 252.59375 140.722656 C 253.367188 140.921875 254.132812 141.152344 254.753906 141.683594 L 256.722656 141.808594 C 257.246094 142.992188 258.585938 142.824219 259.648438 143.046875 L 258.195312 144.132812 C 258.152344 146.558594 258.375 148.996094 258.085938 151.410156 L 257.199219 151.910156 C 257.179688 153.136719 256.96875 154.355469 256.136719 155.355469 L 258.175781 155.332031 L 258.261719 156.460938 L 259.203125 156.460938 C 259.226562 156.183594 259.269531 155.621094 259.316406 155.332031 L 261.089844 155.332031 L 261.15625 156.417969 C 262.21875 156.617188 263.746094 156.03125 264.332031 157.246094 C 267.058594 157.304688 269.785156 157.28125 272.53125 157.257812 L 272.640625 158.710938 C 273.074219 159.199219 273.484375 159.683594 273.894531 160.183594 C 274.800781 160.183594 275.730469 160.183594 276.664062 160.207031 L 276.574219 161.824219 C 277.417969 162.574219 278.347656 163.25 279.53125 163.25 L 279.554688 161.222656 L 281.347656 161.246094 L 281.480469 160.128906 C 282.777344 160.207031 284.472656 159.808594 284.769531 161.535156 L 285.835938 159.949219 C 286.699219 160.207031 287.417969 160.78125 288.128906 161.3125 L 288.148438 162.785156 C 289.644531 163.097656 289.058594 164.714844 289.191406 165.789062 L 287.308594 167.273438 C 287.308594 168.800781 287.308594 170.328125 287.285156 171.871094 L 285.445312 171.914062 L 285.445312 177.164062 C 284.382812 178.015625 283.429688 178.96875 282.457031 179.890625 L 282.457031 183.101562 C 281.734375 183.699219 281.070312 184.285156 280.375 184.875 L 280.375 186.226562 C 279.621094 186.902344 278.765625 187.421875 277.757812 187.554688 C 277.28125 188.121094 276.808594 188.695312 276.351562 189.269531 C 276.03125 189.371094 275.378906 189.539062 275.054688 189.613281 L 276.664062 190.566406 C 276.640625 192.671875 276.617188 194.789062 276.640625 196.890625 C 275.367188 197.96875 273.695312 197.898438 272.144531 197.890625 L 270.503906 199.882812 C 269.339844 199.871094 268.511719 200.648438 267.800781 201.457031 C 267.824219 202.464844 267.84375 203.472656 267.890625 204.46875 C 269.660156 205.410156 270.359375 208.003906 272.628906 207.914062 C 272.652344 209.585938 272.953125 211.515625 271.355469 212.609375 C 270.648438 212.589844 269.90625 212.589844 269.21875 212.589844 C 268.109375 214.183594 265.695312 213.097656 264.046875 213.375 L 264.046875 211.535156 L 262.507812 211.492188 C 261.984375 212.101562 261.464844 212.6875 260.921875 213.273438 C 260.011719 213.398438 259.261719 213.851562 258.5625 214.394531 C 257.453125 214.472656 256.359375 214.4375 255.273438 214.4375 L 255.183594 215.578125 L 252.714844 215.523438 C 252.027344 216.210938 251.460938 217.019531 251.394531 218.039062 L 249.691406 219.5 C 249.734375 220.6875 249.757812 221.96875 248.503906 222.511719 C 248.757812 223.855469 247.773438 226.203125 249.679688 226.566406 L 249.613281 228.039062 C 247.042969 228.128906 244.460938 228.085938 241.890625 228.097656 L 241.847656 225.492188 C 239.984375 224.960938 241.136719 222.570312 240.804688 221.183594 L 239.699219 221.117188 L 239.71875 219.390625 C 238.878906 219.300781 237.902344 219.433594 237.558594 218.480469 L 236.042969 218.480469 L 235.910156 216.386719 L 231.210938 216.375 C 231.167969 216.742188 231.125 217.472656 231.101562 217.828125 C 230.648438 218.316406 230.214844 218.800781 229.785156 219.300781 L 227.402344 219.3125 C 226.96875 219.921875 226.570312 220.507812 226.160156 221.128906 C 225.007812 221.152344 223.835938 221.160156 222.671875 221.207031 C 222.261719 221.695312 221.808594 222.160156 221.320312 222.570312 L 221.265625 224.03125 C 220.367188 224.121094 219.394531 224.128906 219.148438 225.183594 L 216.84375 225.183594 C 216.359375 225.804688 215.882812 226.421875 215.417969 227.054688 L 211.164062 227.066406 C 210.5 228.714844 208.492188 227.90625 207.140625 228.152344 C 206.566406 228.960938 205.867188 229.65625 205.039062 230.199219 C 205.015625 231.097656 205.003906 232.007812 205.003906 232.925781 L 203.886719 232.992188 L 203.863281 235.628906 C 203.21875 236.117188 202.601562 236.625 201.96875 237.132812 C 202.035156 239.492188 202.023438 241.84375 201.980469 244.214844 L 203.875 245.730469 L 203.875 251.964844 C 203.429688 252.386719 203 252.820312 202.578125 253.261719 L 200.972656 253.296875 L 200.925781 254.933594 L 199.675781 256.164062 C 197.949219 256.164062 196.21875 256.164062 194.503906 256.1875 C 193.714844 257.195312 192.886719 258.167969 192.054688 259.144531 L 188.597656 259.121094 C 188.433594 258.234375 188.253906 257.339844 187.644531 256.628906 C 187.558594 254.324219 187.601562 252.03125 187.601562 249.730469 C 188.554688 248.796875 189.496094 247.847656 190.492188 246.9375 L 190.492188 243.9375 L 189.539062 243.394531 C 189.328125 240.28125 189.527344 237.132812 189.472656 233.988281 L 187.757812 233.988281 C 187.613281 233.023438 187.789062 231.761719 186.484375 231.652344 C 186.472656 229.292969 186.472656 226.945312 186.515625 224.585938 L 184.789062 223.101562 C 184.632812 222.191406 184.632812 221.152344 183.589844 220.808594 L 183.546875 218.78125 C 182.308594 218.226562 182.515625 216.242188 183.835938 215.964844 C 182.738281 215.003906 181.71875 213.960938 180.667969 212.976562 L 180.644531 211.691406 C 179.425781 211.449219 178.339844 210.859375 177.15625 210.539062 C 176.824219 209.695312 175.992188 209.621094 175.195312 209.585938 L 174.429688 208.746094 C 173.6875 208.65625 173.058594 208.355469 172.546875 207.835938 L 171.183594 207.804688 C 170.753906 205.953125 169.898438 204.226562 170.132812 202.265625 C 169.65625 201.84375 169.214844 201.378906 168.792969 200.902344 C 166.398438 200.800781 164.019531 200.933594 161.636719 200.859375 C 161.027344 200.878906 160.507812 200.679688 160.085938 200.238281 C 159.554688 199.695312 159 199.175781 158.433594 198.675781 C 158.402344 197.082031 158.492188 195.484375 158.367188 193.902344 C 157.949219 192.792969 157.25 191.839844 156.609375 190.886719 L 156.550781 189.4375 L 155.488281 189.28125 L 155.5 187.785156 C 154.347656 187.101562 154.8125 185.648438 154.636719 184.550781 L 151.777344 184.484375 L 151.777344 183.011719 L 150.347656 181.660156 L 148.808594 181.5625 L 148.777344 180.054688 C 147.902344 179.5 147.65625 178.59375 147.691406 177.605469 L 149.628906 177.53125 C 149.628906 175.78125 149.652344 174.019531 149.5625 172.257812 C 148.988281 171.160156 148.5 169.988281 147.578125 169.132812 L 146.660156 168.003906 L 145.296875 167.894531 L 144.035156 166.628906 L 144.023438 164.46875 C 142.5625 164.171875 143.105469 162.566406 142.917969 161.492188 C 141.15625 160.339844 142.707031 158.199219 143.203125 156.761719 C 143.535156 156.351562 143.890625 155.964844 144.265625 155.585938 C 144.921875 154.933594 145.507812 154.210938 146.050781 153.472656 L 148.585938 153.472656 L 150.09375 155.398438 L 151.777344 155.289062 L 151.777344 157.257812 C 154.957031 157.257812 158.136719 157.238281 161.316406 157.28125 C 161.402344 156.351562 161.238281 155.210938 162.421875 155.011719 C 162.445312 153.195312 162.445312 151.378906 162.5 149.5625 C 163.609375 149.472656 164.882812 149.695312 165.714844 148.730469 L 167.21875 148.640625 L 167.21875 145.695312 C 168.75 145.695312 170.300781 145.773438 171.828125 145.617188 L 172.347656 144.519531 C 173.378906 144.464844 174.011719 145.007812 174.277344 145.972656 C 174.839844 145.285156 175.417969 144.621094 176.003906 143.964844 C 176.980469 143.746094 177.875 143.335938 178.519531 142.550781 C 179.527344 141.707031 180.800781 141.296875 181.941406 140.65625 L 180.824219 139.546875 C 180.777344 138.183594 179.859375 137.230469 178.796875 136.523438 C 178.773438 135.183594 178.773438 133.84375 178.796875 132.503906 C 179.605469 131.769531 180.402344 131.007812 181.15625 130.21875 L 183.226562 130.21875 C 184.445312 128.546875 185.972656 127.128906 187.589844 125.84375 L 187.589844 124.316406 C 187.988281 124.339844 188.785156 124.339844 189.1875 124.347656 C 189.339844 125.335938 190.171875 125.425781 190.980469 125.445312 C 191.367188 124.914062 191.8125 124.425781 192.308594 123.984375 L 192.410156 122.765625 C 193.914062 121.757812 192.886719 119.519531 193.21875 117.992188 C 193.960938 117.261719 195.011719 116.683594 195.34375 115.632812 C 195.046875 114.589844 193.980469 114.035156 193.273438 113.292969 C 193.804688 110.847656 191.523438 109.75 190.269531 108.097656 L 188.566406 107.910156 C 188.378906 107.089844 188.453125 106.082031 187.636719 105.5625 C 187.601562 104.410156 187.601562 103.246094 187.613281 102.085938 C 190.082031 102.03125 192.5625 102.25 195.023438 101.972656 L 195.511719 101.132812 C 196.5625 100.480469 197.714844 100.011719 198.65625 99.203125 C 199.6875 99.171875 200.71875 99.160156 201.746094 99.160156 C 202.234375 98.519531 202.746094 97.910156 203.242188 97.277344 L 204.925781 97.332031 C 204.972656 97.121094 205.039062 96.601562 205.070312 96.324219 Z M 205.070312 96.324219 " fill-opacity="1" fill-rule="nonzero"/><path fill="#ededed" d="M 327.007812 46.65625 L 322.742188 59.738281 L 309.195312 59.59375 L 320.316406 67.691406 L 315.988281 80.527344 L 327.109375 72.453125 L 337.988281 80.527344 L 333.765625 67.449219 L 344.800781 59.59375 L 331.039062 59.59375 Z M 282.621094 34.691406 L 278.359375 47.773438 L 264.789062 47.628906 L 275.933594 55.707031 L 271.601562 68.554688 L 282.722656 60.480469 L 293.609375 68.554688 L 289.367188 55.472656 L 300.421875 47.628906 L 286.664062 47.628906 Z M 238.214844 28.855469 L 233.949219 41.925781 L 220.390625 41.792969 L 231.523438 49.867188 L 227.191406 62.71875 L 238.3125 54.632812 L 249.203125 62.71875 L 244.960938 49.625 L 256.015625 41.78125 L 242.257812 41.78125 Z M 105 46.65625 L 109.253906 59.738281 L 122.8125 59.59375 L 111.679688 67.679688 L 116 80.519531 L 104.875 72.441406 L 94 80.519531 L 98.242188 67.4375 L 87.1875 59.59375 L 100.933594 59.59375 Z M 149.394531 34.691406 L 153.648438 47.773438 L 167.207031 47.628906 L 156.085938 55.707031 L 160.40625 68.554688 L 149.285156 60.480469 L 138.398438 68.554688 L 142.648438 55.472656 L 131.59375 47.628906 L 145.34375 47.628906 Z M 193.804688 28.855469 L 198.058594 41.925781 L 211.617188 41.792969 L 200.484375 49.867188 L 204.816406 62.71875 L 193.695312 54.632812 L 182.804688 62.71875 L 187.058594 49.625 L 176.015625 41.78125 L 189.761719 41.769531 Z M 193.804688 28.855469 " fill-opacity="1" fill-rule="nonzero"/></svg>